<svg xmlns="http://www.w3.org/2000/svg" width="198.059" height="233" viewBox="0 0 198.059 233">
  <g id="Master_Spot_Illustrations_Work_from_Home" data-name="Master/Spot Illustrations/Work from Home" transform="translate(-80 -54)">
    <g id="Window" transform="translate(192.199 54)">
      <g id="Window_Star" data-name="Window/Star" transform="translate(0 0)">
        <g id="Window-1">
          <path id="Fill-40" d="M62.56,50.115H2.974A2.974,2.974,0,0,1,0,47.141V2.974A2.974,2.974,0,0,1,2.974,0H62.56a2.974,2.974,0,0,1,2.974,2.974V47.141a2.974,2.974,0,0,1-2.974,2.974" fill="#fed21c" fill-rule="evenodd"/>
          <path id="Fill-41" d="M63.965,12.022H1.061v-7.9A2.884,2.884,0,0,1,3.947,1.235H61.081a2.884,2.884,0,0,1,2.884,2.884Z" transform="translate(0.247 0.288)" fill="#fff1ce" fill-rule="evenodd"/>
          <path id="Fill-42" d="M5.458,37.8a.978.978,0,1,1-.978-.978.979.979,0,0,1,.978.978" transform="translate(0.816 8.577)" fill="#fff1ce" fill-rule="evenodd"/>
          <path id="Fill-43" d="M8.123,37.8a.978.978,0,1,1-.978-.978.979.979,0,0,1,.978.978" transform="translate(1.437 8.577)" fill="#fff1ce" fill-rule="evenodd"/>
          <path id="Fill-44" d="M10.788,37.8a.978.978,0,1,1-.978-.978.979.979,0,0,1,.978.978" transform="translate(2.057 8.577)" fill="#fff1ce" fill-rule="evenodd"/>
          <path id="Fill-45" d="M10.595,6.521A3.547,3.547,0,1,1,7.049,2.975a3.546,3.546,0,0,1,3.546,3.546" transform="translate(0.816 0.693)" fill="#fed21c" fill-rule="evenodd"/>
          <path id="Fill-46" d="M10.63,4.343H41.971V2.976H10.63Z" transform="translate(2.476 0.693)" fill="#fed21c" fill-rule="evenodd"/>
          <path id="Fill-47" d="M10.63,6.431h18.33v-1.5H10.63Z" transform="translate(2.476 1.148)" fill="#fed21c" fill-rule="evenodd"/>
          <path id="Fill-48" d="M30.925,13.924l2.623,5.315a2,2,0,0,0,1.509,1.095l5.865.853a2,2,0,0,1,1.11,3.417l-4.244,4.138a2,2,0,0,0-.576,1.772l1,5.842a2,2,0,0,1-2.907,2.112L30.061,35.71a2,2,0,0,0-1.864,0L22.95,38.468a2,2,0,0,1-2.907-2.112l1-5.842a2,2,0,0,0-.576-1.772L16.225,24.6a2,2,0,0,1,1.111-3.417l5.865-.853a2,2,0,0,0,1.508-1.095l2.624-5.315a2,2,0,0,1,3.593,0" transform="translate(3.638 2.984)" fill="#fff1ce" fill-rule="evenodd"/>
        </g>
      </g>
    </g>
    <g id="Pet" transform="translate(240.285 230.313)">
      <g id="Pet_Black_Cat" data-name="Pet/Black Cat" transform="translate(0 0)">
        <g id="Cat-1" transform="translate(0 0)">
          <path id="Fill-36" d="M6.93,43.118q.1.677.191,1.356a3.118,3.118,0,0,1-.085,1.7c-.391.873-1.439,1.185-2.248,1.694a1.006,1.006,0,0,0-.354.324.772.772,0,0,0,.285.946,2.217,2.217,0,0,0,1.017.327,25.355,25.355,0,0,0,4.4.584,18.677,18.677,0,0,0,5.21-.61,11.839,11.839,0,0,1,3.25-.592c.5.021.986.125,1.482.131a3.806,3.806,0,0,0,3.853-3.944c-.065-1.764-1.317-3.246-1.81-4.94a13.916,13.916,0,0,1-.1-4.975,8.165,8.165,0,0,0-.735-4.87,4.557,4.557,0,0,0-2.335-1.918,9.36,9.36,0,0,0-3.053-.372c-3.408-.048-6.956-.178-10.062,1.229a1.714,1.714,0,0,0-.949.788c-.39.917.194,2.323.372,3.24q.364,1.89.7,3.788.533,3.05.974,6.114" transform="translate(1.016 6.507)" fill="#cdd6f2" fill-rule="evenodd"/>
          <path id="Fill-37" d="M5.624,12.215a4.283,4.283,0,0,0,3.052-.33.7.7,0,0,0,.375-.618c.012-.364-.165-.515-.489-.329A3.654,3.654,0,0,1,5.85,11.2a2.145,2.145,0,0,1-1.16-.672c-.239-.261-.452-.549-.689-.81a.5.5,0,0,0-.633-.178c-.261.148-.259.4-.162.665a3.327,3.327,0,0,0,2.418,2.006" transform="translate(0.733 2.21)" fill="#faa6dc" fill-rule="evenodd"/>
          <path id="Fill-38" d="M5.042,6.677c-.646-.18-.83-.465-.517-1.054.416-.784.87-1.547,1.312-2.318.126-.222.249-.449.573-.385s.344.318.4.568c.2.944.235,1.9.34,2.859.068.621.11.616-.3.633a4.858,4.858,0,0,1-1.809-.3" transform="translate(1.02 0.678)" fill="#f376da" fill-rule="evenodd"/>
          <path id="Fill-39" d="M8.886,15.741a2.752,2.752,0,0,0,1.371-.789c.083-.068.039-.165-.02-.237a.221.221,0,0,0-.282-.055,3.571,3.571,0,0,0-.433.221,1.054,1.054,0,0,1-1.391-.216c-.208-.187-.42-.371-.624-.562a.442.442,0,0,0-.519-.118c-.173.117-.049.329.039.48a2.531,2.531,0,0,0,1.858,1.277" transform="translate(1.608 3.247)" fill="#f376da" fill-rule="evenodd"/>
          <path id="Fill-40-2" data-name="Fill-40" d="M7.982,12.943c.016.09.03.223.064.349a.556.556,0,0,0,.571.46c.317-.015.449-.285.448-.567s-.006-.584-.02-.877a.474.474,0,0,0-.408-.5c-.29-.039-.387.159-.477.369a2.144,2.144,0,0,0-.178.769" transform="translate(1.859 2.749)" fill="#f376da" fill-rule="evenodd"/>
          <path id="Fill-41-2" data-name="Fill-41" d="M2.556,15.9h0s0,0,0,.006Z" transform="translate(0.595 3.703)" fill="#fcb332" fill-rule="evenodd"/>
          <path id="Fill-42-2" data-name="Fill-42" d="M30.929,37.225a26.18,26.18,0,0,0-8.584-10.956c-1.27-.893-2.482-1.867-3.788-2.706-1.023-.658-2.324-1.171-2.836-2.355a8.331,8.331,0,0,1-.5-2.044c-3.167.836-6.506.583-9.772.326-.185,1.227-2.393,13.036-1.23,15.821.224.535.644.953.827,1.5l.074.095c.127.138.255.276.38.416.589.655,2.073,1.039,2.814,1.486,0,0,1.349,13.241,1.087,13.387a16.8,16.8,0,0,0-2.569,1.263.788.788,0,0,0-.306.62c.025.4.436.514.766.536,3.319.221,6.648.121,9.971.052a46.665,46.665,0,0,0,8.976-.592,3.257,3.257,0,0,0,1.429-.594A38.912,38.912,0,0,0,36.79,29.937a50.555,50.555,0,0,0-.358-9.647c-.56-3.9-1.768-7.755-4.716-10.51a7.45,7.45,0,0,0-1.447-1.09,2.179,2.179,0,0,0-2.461.011,3.046,3.046,0,0,0-1.058,2.627c-.014.1-.035.2-.041.3-.1,1.678,2.775,7.782,3.285,9.67a70.486,70.486,0,0,1,2.128,11.771c.065.687.289,4.472-1.111,4.3-.015,0-.043-.054-.083-.147" transform="translate(0.905 1.937)" fill="#2c2571" fill-rule="evenodd"/>
          <path id="Fill-43-2" data-name="Fill-43" d="M3.808,11.755a.5.5,0,0,1,.633.178c.238.261.45.549.689.81a2.14,2.14,0,0,0,1.16.672A3.654,3.654,0,0,0,9,13.148c.324-.186.5-.035.489.329a.7.7,0,0,1-.374.618c-1.782.991-4.709.414-5.471-1.676-.1-.264-.1-.517.162-.665m4.5,5.477a.439.439,0,0,1,.518.117c.2.192.417.376.624.563a1.054,1.054,0,0,0,1.392.215,3.956,3.956,0,0,1,.433-.219.22.22,0,0,1,.281.055c.06.072.1.169.02.238a2.751,2.751,0,0,1-1.37.788,2.536,2.536,0,0,1-1.859-1.277c-.088-.15-.211-.362-.038-.48m8.551-8.743a15.1,15.1,0,0,1-1.821-.381c-.381-.112-.441-.324-.333-.71.282-1.009.948-1.833,1.288-2.811.058-.166.16-.375.393-.366a.482.482,0,0,1,.419.348,17.417,17.417,0,0,1,1.087,2.891c.215.946.15,1.012-1.034,1.03m-6.223,7.446c0,.281-.131.551-.449.567a.557.557,0,0,1-.57-.46,3.239,3.239,0,0,1-.064-.35,2.125,2.125,0,0,1,.178-.769c.09-.21.187-.408.477-.367a.473.473,0,0,1,.408.5c.012.291.018.584.02.877M7.579,7.659a4.87,4.87,0,0,1-1.81-.3c-.646-.18-.83-.465-.517-1.055.417-.784.87-1.547,1.312-2.318.126-.221.25-.448.575-.383s.343.318.4.568c.2.943.235,1.9.34,2.859.068.621.11.616-.3.633M1.866,17.774A8.931,8.931,0,0,0,3.8,20.694c1.357,1.413,3.9,1.439,5.694,1.735A14.68,14.68,0,0,0,15.88,22.1a4.685,4.685,0,0,0,2.5-1.353,7.07,7.07,0,0,0,1.255-2.15,11.957,11.957,0,0,0,.18-6.961c-.207-.845-.9-4.594-1.207-5.585C18.1,4.423,17.585,2.8,16.966,1.208c-.078-.2-.139-.434-.379-.436-.217,0-.282.237-.361.408q-1.474,3.187-2.942,6.377c-.321.693-.411,1.221-1.245,1.222a5.415,5.415,0,0,1-2.3-.56c-.546-.276-.556-.529-.621-1.159,0-.014,0-.028-.006-.044Q8.752,3.751,8.389.483c-.018-.166.047-.4-.16-.469s-.371.1-.489.245c-.615.767-4.878,6.095-6.234,11.675A10.787,10.787,0,0,0,1.6,16.9a6.386,6.386,0,0,0,.269.873" transform="translate(0.293 0)" fill="#2c2571" fill-rule="evenodd"/>
          <path id="Fill-44-2" data-name="Fill-44" d="M15.358,6.661A17.611,17.611,0,0,0,14.271,3.77a.484.484,0,0,0-.42-.348c-.233-.009-.334.2-.393.366-.339.979-1,1.8-1.287,2.811-.109.387-.048.6.332.71a14.639,14.639,0,0,0,1.821.381c1.186-.017,1.25-.083,1.036-1.03" transform="translate(2.824 0.797)" fill="#f376da" fill-rule="evenodd"/>
          <path id="Fill-45-2" data-name="Fill-45" d="M4.536,19.1a11.429,11.429,0,0,0,3.9.774c.649.053,1.3.09,1.948.132.576.039.737-.144.661-.681-.044-.307-.252-.329-.477-.353-.869-.088-1.741-.153-2.608-.264-1.113-.145-2.2-.432-3.294-.686l-.128.007c-.058.342-.254.681-.037,1.032a.06.06,0,0,1,.038.037" transform="translate(1.025 4.198)" fill="#f376da" fill-rule="evenodd"/>
          <path id="Fill-46-2" data-name="Fill-46" d="M14.013,19.3c.055-.12.118-.237.166-.359.129-.324-.033-.572-.38-.551a9.821,9.821,0,0,0-1.616.243c-.461.1-.327.478-.3.756.025.327.308.2.489.18.52-.065,1.037-.155,1.556-.237l.088-.032" transform="translate(2.759 4.284)" fill="#f376da" fill-rule="evenodd"/>
          <path id="Fill-47-2" data-name="Fill-47" d="M10.829,19.46c.227-.015.515.025.519-.324s-.28-.335-.515-.328c-.217.007-.475.01-.47.337s.207.358.466.316" transform="translate(2.414 4.381)" fill="#f376da" fill-rule="evenodd"/>
          <path id="Fill-48-2" data-name="Fill-48" d="M13.247,13.17a4.291,4.291,0,0,1-2.88-1.062.7.7,0,0,1-.213-.69c.078-.358.286-.46.555-.2a3.645,3.645,0,0,0,2.565.917,2.13,2.13,0,0,0,1.288-.37c.3-.195.572-.42.867-.619a.5.5,0,0,1,.656-.016c.218.207.153.451,0,.683a3.334,3.334,0,0,1-2.833,1.359" transform="translate(2.361 2.565)" fill="#faa6dc" fill-rule="evenodd"/>
          <path id="Stroke-49" d="M17.185,31.088c-7.157,7.75,1.261,14.172,2.4,14.775-2.164-.711-9.514-.3-11.47.864" transform="translate(1.891 7.242)" fill="none" stroke="#cdd6f2" stroke-linecap="round" stroke-linejoin="round" stroke-width="0.5" fill-rule="evenodd"/>
          <line id="Stroke-50" x2="2.532" y2="1.615" transform="translate(0 12.969)" fill="none" stroke="#2c2571" stroke-linecap="round" stroke-width="1"/>
          <line id="Stroke-51" y1="0.285" x2="2.102" transform="translate(0.232 16.739)" fill="none" stroke="#2c2571" stroke-linecap="round" stroke-width="1"/>
          <line id="Stroke-52" x1="2.856" y2="0.933" transform="translate(20.47 14.947)" fill="none" stroke="#2c2571" stroke-linecap="round" stroke-width="1"/>
          <line id="Stroke-53" x1="1.964" y1="0.799" transform="translate(20.126 18.016)" fill="none" stroke="#2c2571" stroke-linecap="round" stroke-width="1"/>
          <path id="Fill-54" d="M3.949,15.714c1.272.181,2.026-.182,2.281-1.1A2.284,2.284,0,0,0,4.64,11.956a1.856,1.856,0,0,0-2.366.97,1.936,1.936,0,0,0,1.676,2.788" transform="translate(0.479 2.756)" fill="#f376da" fill-rule="evenodd"/>
          <path id="Fill-55" d="M13.8,17.129c1.271.18,2.026-.182,2.281-1.1a2.283,2.283,0,0,0-1.591-2.655,1.856,1.856,0,0,0-2.366.97A1.936,1.936,0,0,0,13.8,17.129" transform="translate(2.772 3.085)" fill="#f376da" fill-rule="evenodd"/>
        </g>
      </g>
    </g>
    <g id="Chairs" transform="translate(92.475 206.887)">
      <g id="Chairs_Stool" data-name="Chairs/Stool" transform="translate(0 0)">
        <g id="Chair" transform="translate(0 3.045)">
          <path id="Fill-9" d="M62.077,76.913a2.185,2.185,0,0,1-2.131-1.944l-9-70.017H13.267L4.4,74.964a2.168,2.168,0,0,1-2.415,1.929A2.225,2.225,0,0,1,.137,74.378l9.11-71.96A2.184,2.184,0,0,1,11.38.47H52.825a2.184,2.184,0,0,1,2.133,1.944l9.254,71.96a2.227,2.227,0,0,1-1.848,2.519,2.051,2.051,0,0,1-.288.021" transform="translate(-0.118 -0.47)" fill="#a12bb6" fill-rule="evenodd"/>
          <g id="Group-3" transform="translate(27.125 0)">
            <path id="Fill-1" d="M62.077,76.64A2.185,2.185,0,0,1,59.946,74.7l-9-70.017H13.267L4.4,74.691A2.168,2.168,0,0,1,1.988,76.62,2.225,2.225,0,0,1,.137,74.1l9.11-71.96A2.184,2.184,0,0,1,11.38.2H52.825a2.184,2.184,0,0,1,2.133,1.944L64.213,74.1a2.227,2.227,0,0,1-1.848,2.519,2.053,2.053,0,0,1-.288.021" transform="translate(-0.118 -0.197)" fill="#974ccd" fill-rule="evenodd"/>
          </g>
        </g>
        <path id="top" d="M13.165,54H74.813a6.165,6.165,0,0,1,6.165,6.165H7A6.165,6.165,0,0,1,13.165,54Z" transform="translate(1.485 -54)" fill="#a12bb6" fill-rule="evenodd"/>
      </g>
    </g>
    <g id="Master_Character_Sitting" data-name="Master/Character/Sitting" transform="translate(94.796 72.125)">
      <g id="Master_Character_Sitting-2" data-name="Master/Character/Sitting" transform="translate(0 0)">
        <g id="Sitting" transform="translate(21.852 102.462)">
          <g id="Sitting_Colorful_Pants_1" data-name="Sitting/Colorful Pants 1" transform="translate(0 0)">
            <g id="Group-87" transform="translate(0 0.243)">
              <path id="Fill-1-2" data-name="Fill-1" d="M61.473,73.5,62,71.14,63.1,66.276,53.155,64l-.408,5.02-.191,2.344L52,78.2l8,1.833Z" transform="translate(11.222 14.909)" fill="#b3b2e6" fill-rule="evenodd"/>
              <path id="Fill-2" d="M76.866,57.921,75.392,53,66,55.626l2.123,4.74.991,2.214L72,69.028l7.559-2.113L77.58,60.3Z" transform="translate(14.484 12.347)" fill="#b3b2e6" fill-rule="evenodd"/>
              <g id="Group-13" transform="translate(2.99)">
                <path id="Fill-3" d="M59.332,87.35s-.086-21.176.411-28.149c.3-4.242.935-8.466,1.546-12.669.262-1.807,2.434-9.356.981-10.574-1.126-.943-36.486.819-41.959-.2Q20,35.7.148,0H22.226s17,9.625,19.761,10.239c25.6,5.694,32.717,13.332,34.15,14.733,1.842,1.8,2.367,6.192,2.12,11.771-.744,16.773-8.481,52.806-8.481,52.806Z" transform="translate(-0.148)" fill="#5736ae" fill-rule="evenodd"/>
                <path id="Fill-5" d="M72.347,93.679,44.465,87.811a4.374,4.374,0,0,1-.055-1.7c.3-2.5,1.809-6.284,2.655-8.691q.152-.423.268-.783a9.207,9.207,0,0,0,.279-1c.389-2.027,2.037-1.318,2.037-1.318,2.264,3.489,6.293-.181,7.885,1.637,0,0,.065.073.209.25s.331.412.606.772c.4.515.946,1.26,1.686,2.3,1.812,2.55,5.312,4.719,8.249,6.8.374.263.718.522,1.036.773q.362.289.679.565c2.335,2.032,2.9,3.622,2.888,4.69a2.368,2.368,0,0,1-.54,1.572" transform="translate(10.15 17.287)" fill="#ff67ff" fill-rule="evenodd"/>
                <path id="Fill-7" d="M68.094,87.038c-.833.446-2.661,1.307-3.941,1.039-.056-.012-.113-.027-.167-.044-.889-.268-3.883-2.677-6.289-4.8-1.379-1.218-2.624-2.393-3.507-3.31-1.447-1.5-1.653-2-1.66-2.322-.023-1.2,1.951-1.622,3.306-1.768.133.161.332.411.606.771-1.671.119-3.109.554-3.126.97.09.374,1.486,2.038,5,5.128a36.336,36.336,0,0,0,5.89,4.542c.844.254,2.262-.3,3.21-.77.242.191.467.381.679.565" transform="translate(12.055 17.666)" fill="#432c82" fill-rule="evenodd"/>
                <path id="Fill-9-2" data-name="Fill-9" d="M72.347,91.429,44.466,85.561a4.349,4.349,0,0,1-.056-1.7l28.478,5.994a2.383,2.383,0,0,1-.541,1.572" transform="translate(10.15 19.537)" fill="#7e4dcd" fill-rule="evenodd"/>
                <path id="Fill-11" d="M46.908,87.949l-.827-.174a6.593,6.593,0,0,0,2.4-4.356,8.657,8.657,0,0,0-1.813-6.456c.1-.28.191-.544.268-.782a9.385,9.385,0,0,1,2.215,7.343,7.318,7.318,0,0,1-2.239,4.426" transform="translate(10.552 17.747)" fill="#432c82" fill-rule="evenodd"/>
              </g>
              <g id="Group-59" transform="translate(62.637 41.465)">
                <g id="Group-16" transform="translate(13.69 34.358)">
                  <path id="Fill-14" d="M71.635,72.719c-4.332-.209-9.528-4.236-10.754-8.187-.268-.862-.488-1.793.251-2.48a2.23,2.23,0,0,1,2.928,0c2.919,1.959,5.571,4.336,8.972,5.5a2.763,2.763,0,0,1,1.632,3.674c-.505,1.489-1.972,1.431-3.029,1.5" transform="translate(-60.629 -61.497)" fill="#fed21c" fill-rule="evenodd"/>
                </g>
                <g id="Group-19" transform="translate(15.997 2.061)">
                  <path id="Fill-17" d="M62.5,39.461c.568-2.726,2.7-3.938,5.245-4.136,3.234-.252,5.267,1.546,6.043,4.9a8.294,8.294,0,0,1-.151,4.235c-.266.925-.849,1.731-1.886,1.673-1.587-.089-2.069-1.392-2.439-2.736-.545-1.982-1.452-2.908-3.39-1.467a1.863,1.863,0,0,1-2.151.027A2.561,2.561,0,0,1,62.5,39.461" transform="translate(-62.5 -35.302)" fill="#c664e9" fill-rule="evenodd"/>
                </g>
                <g id="Group-22" transform="translate(24.05 24.25)">
                  <path id="Fill-20" d="M73.776,56.971c-1.583,2.563-.47,5.377-.007,8.218a2.4,2.4,0,0,1-1.508,2.487,1.9,1.9,0,0,1-2.191-.336c-.741-.622-.494-1.434-.315-2.3a3.759,3.759,0,0,0-.225-2.212,3.942,3.942,0,0,1,.662-4.721,2.707,2.707,0,0,0,.418-1.555c.049-1.215-.922-3.1.96-3.244,1.865-.145,1.89,1.88,2.2,3.665" transform="translate(-69.032 -53.299)" fill="#c664e9" fill-rule="evenodd"/>
                </g>
                <g id="Group-25" transform="translate(16.121 14.367)">
                  <path id="Fill-23" d="M66.933,50.739c-.782-.221-1.992-.5-3.162-.915a1.583,1.583,0,0,1-1.125-1.9c.206-.905,1.062-1.074,1.819-1.134,1.928-.151,3.885.075,5.656-1.131a2.253,2.253,0,0,1,3,.485,1.816,1.816,0,0,1,.281,2.145c-.736,1.519-2.174,1.972-3.626,2.266a23.216,23.216,0,0,1-2.839.18" transform="translate(-62.601 -45.283)" fill="#ff67ff" fill-rule="evenodd"/>
                </g>
                <g id="Group-28" transform="translate(16.346 25.806)">
                  <path id="Fill-26" d="M62.784,55.746c.333-.356.652-1,1.1-1.123,1.178-.328,1.819.692,2.281,1.535,1.222,2.229,2.309,4.538,3.425,6.828.323.661.688,1.387-.008,2.041-.818.771-1.548.09-2.184-.308-3.155-1.97-3.871-5.353-4.617-8.974" transform="translate(-62.784 -54.56)" fill="#ff67ff" fill-rule="evenodd"/>
                </g>
                <g id="Group-31" transform="translate(15.372 20.631)">
                  <path id="Fill-29" d="M65.319,50.363c3.892.173,6.242,2.708,5.861,6.041-.086.757-.353,1.35-1.12,1.544a1.355,1.355,0,0,1-1.6-.824c-1.069-1.908-2.089-3.747-4.777-3.042a1.363,1.363,0,0,1-1.674-1.63c.3-2.3,2.123-1.863,3.309-2.089" transform="translate(-61.993 -50.363)" fill="#c2f5ff" fill-rule="evenodd"/>
                </g>
                <g id="Group-34" transform="translate(9.753 26.606)">
                  <path id="Fill-32" d="M57.436,56.965c.2-.735.007-1.55,1.041-1.684,3.973-.512,5.281,1.749,5.239,5.444-.006.508-.288.714-.776.943-5,2.343-4.971-1.525-5.5-4.7" transform="translate(-57.436 -55.209)" fill="#26b6e3" fill-rule="evenodd"/>
                </g>
                <g id="Group-37" transform="translate(17.948 10.003)">
                  <path id="Fill-35" d="M68.078,44.435c-.042,1.3-.725,1.754-1.707,1.72a2.18,2.18,0,0,1-2.287-2.422,1.834,1.834,0,0,1,2.1-1.973c1.536.176,1.831,1.448,1.89,2.675" transform="translate(-64.083 -41.744)" fill="#c2f5ff" fill-rule="evenodd"/>
                </g>
                <g id="Group-40" transform="translate(25.213)">
                  <path id="Fill-38-2" data-name="Fill-38" d="M71.52,33.666c1.248.178,2.318-.062,2.211,1.388-.077,1.04-.509,2.057-1.587,1.9a2.334,2.334,0,0,1-2.169-2,1.222,1.222,0,0,1,1.544-1.287" transform="translate(-69.975 -33.63)" fill="#fed21c" fill-rule="evenodd"/>
                </g>
                <g id="Group-43" transform="translate(24.586 19.672)">
                  <path id="Fill-41-3" data-name="Fill-41" d="M70.979,53.222c-1.288-.124-1.513-1.033-1.512-2.008a1.582,1.582,0,0,1,1.674-1.628,1.39,1.39,0,0,1,1.4,1.618,1.889,1.889,0,0,1-1.558,2.018" transform="translate(-69.467 -49.585)" fill="#f28dfd" fill-rule="evenodd"/>
                </g>
                <g id="Group-46" transform="translate(8.928 36.181)">
                  <path id="Fill-44-3" data-name="Fill-44" d="M60.869,66.272c-1.151,2.805.4,5.383,1.308,8.1a2.437,2.437,0,0,1-1.088,2.716,1.9,1.9,0,0,1-2.214.055c-.829-.484-.715-1.33-.678-2.216a3.729,3.729,0,0,0-.575-2.14,3.951,3.951,0,0,1-.1-4.771,2.717,2.717,0,0,0,.165-1.606c-.147-1.206-1.407-2.892.427-3.366,1.817-.471,2.163,1.521,2.76,3.226" transform="translate(-56.767 -62.975)" fill="#f28dfd" fill-rule="evenodd"/>
                </g>
                <g id="Group-49" transform="translate(6.632 31.757)">
                  <path id="Fill-47-3" data-name="Fill-47" d="M2.744,4.032c-1.289.1-1.657-.752-1.813-1.715A1.613,1.613,0,0,1,2.323.418a1.366,1.366,0,0,1,1.635,1.35A1.923,1.923,0,0,1,2.744,4.032" transform="translate(-0.905 -0.387)" fill="#ff67ff" fill-rule="evenodd"/>
                </g>
                <g id="Group-52" transform="translate(3.836 24.926)">
                  <path id="Fill-50" d="M2.671.846a3.817,3.817,0,0,0,1.817,2.6A3.987,3.987,0,0,0,2.577,6.054,4.459,4.459,0,0,0,.637,3.586,4.458,4.458,0,0,0,2.671.846" transform="translate(-0.637 -0.846)" fill="#ff67ff" fill-rule="evenodd"/>
                </g>
                <g id="Group-55" transform="translate(1.917 36.613)">
                  <path id="Fill-53" d="M3.02,8.838A8.505,8.505,0,0,0,.081,4.912C1.7,3.936,2.485,2.388,3.138.326c.621,1.92,1.107,3.525,2.893,4.359C4.37,5.546,3.689,6.967,3.02,8.838" transform="translate(-0.081 -0.326)" fill="#fed21c" fill-rule="evenodd"/>
                </g>
                <g id="Group-58" transform="translate(0 29.881)">
                  <path id="Fill-56" d="M4.726,3.8c-.064,0-.129,0-.193,0-1.017.013-1.072.1-.669,1.055.113.266.218.538.305.813.069.214.129.479-.138.575-.244.089-.319-.164-.4-.342-.16-.367-.3-.743-.463-1.109s-.374-.4-.616-.067a4.8,4.8,0,0,1-.865.987c-.109.088-.214.164-.338.05A.272.272,0,0,1,1.306,5.4c.22-.332.46-.647.683-.974.31-.46.225-.664-.311-.754-.3-.05-.6-.078-.893-.122-.13-.019-.268-.063-.258-.235s.151-.221.279-.227c.407-.018.813-.016,1.221-.021.355-.006.455-.2.333-.528s-.273-.657-.4-.989C1.868,1.322,1.717,1.03,2,.9c.308-.142.366.231.473.418a7.519,7.519,0,0,1,.374.855c.189.465.415.625.753.125.222-.33.454-.65.691-.967.142-.19.293-.466.563-.253.242.19.128.434-.034.647-.213.28-.434.556-.625.852-.236.367-.129.588.3.612.3.018.6.01.9.046.159.019.375.049.354.3-.019.223-.2.275-.38.285-.214.01-.427,0-.642,0Z" transform="translate(-0.526 -0.865)" fill="#fed21c" fill-rule="evenodd"/>
                </g>
              </g>
              <g id="Group-73" transform="translate(0 6.905)">
                <g id="Group-62" transform="translate(84.342 71.016)">
                  <path id="Fill-60" d="M30.759,8.96,3.218,16.785A4.215,4.215,0,0,1,2.438,15.3C1.629,12.925,1.355,8.85,1.079,6.31c-.03-.3-.062-.573-.1-.821A9.537,9.537,0,0,0,.8,4.469C.28,2.48,2.063,2.341,2.063,2.341,5.6,4.39,7.632-.767,9.843.108c0,0,.089.034.295.124.187.083.474.212.875.4.577.275,1.391.68,2.5,1.26,2.724,1.424,6.8,1.718,10.325,2.194q.676.091,1.265.206c.3.057.583.119.852.184,2.97.717,4.158,1.872,4.61,2.829a2.4,2.4,0,0,1,.193,1.653" transform="translate(-0.708 -0.007)" fill="#ff67ff" fill-rule="evenodd"/>
                </g>
                <path id="Fill-63" d="M93.033,62.628c-.556.788-1.824,2.41-3.09,2.77a1.614,1.614,0,0,1-.167.041c-.914.175-4.638-.568-7.709-1.335-1.76-.439-3.383-.9-4.571-1.306-1.944-.662-2.344-1.012-2.487-1.293-.538-1.062,1.052-2.359,2.205-3.124.187.082.474.212.875.4-1.448.888-2.552,1.948-2.387,2.328.241.291,2.21,1.12,6.691,2.23a35.209,35.209,0,0,0,7.238,1.289c.866-.169,1.9-1.325,2.548-2.188q.449.086.853.184" transform="translate(16.557 12.86)" fill="#3b2d7e" fill-rule="evenodd"/>
                <g id="Group-67" transform="translate(86.072 78.316)">
                  <path id="Fill-65" d="M28.534,1.663.994,9.488A4.225,4.225,0,0,1,.213,8L28.342.01a2.392,2.392,0,0,1,.192,1.653" transform="translate(-0.213 -0.01)" fill="#7e4dcd" fill-rule="evenodd"/>
                </g>
                <path id="Fill-68" d="M73.579,73.375a6.748,6.748,0,0,0,.276-5,8.235,8.235,0,0,0-4.407-4.9c-.03-.3-.063-.574-.1-.823A8.924,8.924,0,0,1,74.5,68.151a7.466,7.466,0,0,1-.1,4.992Z" transform="translate(15.265 13.853)" fill="#3b2d7e" fill-rule="evenodd"/>
                <g id="Group-72" transform="translate(0 0)">
                  <path id="Fill-70" d="M83.87,71.345S74.843,51.611,72.287,45.163s-7.132-22.151-7.132-22.151a136.165,136.165,0,0,1-31.878,6.438C4.915,31.331,2.512,30.537,1.036,22.019-.168,15.071,2.5,2.462,2.5,2.462L24.805.6S56.317,4.192,65.95,5.608A43.079,43.079,0,0,1,72.26,6.985c2.428.742,4.79,4.409,6.969,9.5,6.552,15.295,14.956,51.931,14.956,51.931Z" transform="translate(-0.723 -0.601)" fill="#7e4dcd" fill-rule="evenodd"/>
                </g>
              </g>
              <g id="Group-86" transform="translate(74.716 43.594)">
                <g id="Group-76" transform="translate(1.959 7.484)">
                  <path id="Fill-74" d="M61.208,38.152c.691-1.1.942-2.214,2.158-1.5.872.514,1.572,1.353.972,2.3-.545.865-1.634,1.664-2.674,1.2a1.283,1.283,0,0,1-.456-2" transform="translate(-60.911 -36.427)" fill="#fed21c" fill-rule="evenodd"/>
                </g>
                <g id="Group-79" transform="translate(0 12.375)">
                  <path id="Fill-77" d="M62.6,42.944c-.66,1.165-1.549.99-2.4.576a1.649,1.649,0,0,1-.7-2.271,1.342,1.342,0,0,1,2.009-.632A1.92,1.92,0,0,1,62.6,42.944" transform="translate(-59.322 -40.394)" fill="#f28dfd" fill-rule="evenodd"/>
                </g>
                <g id="Group-82" transform="translate(5.201)">
                  <path id="Fill-80" d="M70.725,35.322c-.11,0-.22,0-.33,0-1.741.023-1.833.172-1.144,1.784.192.45.373.908.523,1.373.115.362.219.81-.238.975-.417.149-.545-.278-.68-.579-.274-.622-.516-1.256-.792-1.875s-.639-.671-1.052-.115a8.3,8.3,0,0,1-1.481,1.672c-.187.147-.366.276-.579.082a.458.458,0,0,1-.08-.618c.376-.559.788-1.093,1.168-1.648.533-.776.388-1.122-.533-1.275-.506-.084-1.018-.13-1.526-.2-.224-.033-.459-.108-.44-.4.016-.275.258-.372.475-.382.7-.029,1.392-.027,2.088-.038.61-.008.778-.339.571-.891s-.467-1.113-.691-1.674c-.152-.381-.408-.874.082-1.1.525-.24.626.39.808.708a12.291,12.291,0,0,1,.64,1.446c.324.787.709,1.058,1.289.211.379-.556.776-1.1,1.181-1.634.242-.322.5-.789.965-.429.412.322.218.737-.057,1.1-.364.473-.742.939-1.07,1.441-.4.621-.22.99.512,1.035.512.029,1.027.016,1.535.076.27.033.64.082.6.507-.032.376-.342.465-.648.48-.366.018-.733,0-1.1,0Z" transform="translate(-63.54 -30.357)" fill="#fed21c" fill-rule="evenodd"/>
                </g>
                <g id="Group-85" transform="translate(2.034 8.801)">
                  <path id="Fill-83" d="M60.972,47.936a4.51,4.51,0,0,1,1.67-.261c1.67-.121,3.343-.216,5.015-.328.213-.015.51.109.6-.194.076-.255-.157-.428-.3-.606Q66.27,44.5,64.578,42.46c-.2-.244-.4-.49-.67-.818a2,2,0,0,1,1.43.411q2.037,1.091,4.038,2.251c.515.3.743.257.891-.387.453-1.977,1.021-3.921,1.663-5.841.074-.221.1-.469.355-.581.3.173.174.478.185.721.1,2.09.051,4.184.224,6.272.059.725.254.782.838.516,1.77-.8,3.554-1.574,5.34-2.339a2.237,2.237,0,0,1,1.352-.286c-.659.578-1.2,1.067-1.755,1.535-1.21,1.017-2.415,2.044-3.65,3.028-.543.434-.52.655.1.972,1.705.88,3.386,1.811,5.077,2.722a1.218,1.218,0,0,1,.659.522,1.826,1.826,0,0,1-1.072.048c-1.718-.233-3.441-.428-5.152-.714-.721-.12-.9.082-.9.811.022,2.271-.016,4.544-.035,6.815,0,.224.08.479-.2.686a5.443,5.443,0,0,1-.743-1.781c-.493-1.559-.932-3.139-1.334-4.725-.192-.76-.438-.7-.876-.217q-2.128,2.355-4.275,4.692c-.114.125-.242.235-.418.406-.242-.869.3-1.462.534-2.093a43.744,43.744,0,0,1,1.8-4.05c.291-.591.159-.759-.405-.913-1.979-.542-3.949-1.119-5.919-1.7-.251-.073-.6-.041-.688-.491" transform="translate(-60.972 -37.495)" fill="#ff67ff" fill-rule="evenodd"/>
                </g>
              </g>
            </g>
            <path id="Path-2" d="M28,42.978,29.416,32.8l25.971.243,12.068,9.932L48.609,44.143Z" transform="translate(-26.426 -32.803)" fill="#7e4dcd" fill-rule="evenodd"/>
          </g>
        </g>
        <g id="Head" transform="translate(25.029)">
          <g id="Head_Short_with_Beanie" data-name="Head/Short with Beanie">
            <g id="Group-28-2" data-name="Group-28" transform="translate(0 0)">
              <g id="Group-3-2" data-name="Group-3" transform="translate(3.195 2.02)">
                <path id="Fill-1-3" data-name="Fill-1" d="M1.027,24.064C.711,14.184-.255,2.085,10.626.934c3.3-.346,9.5-.322,13.359,5.6,0,0,7.981,1.489,9.028,7.837s-9.319,7.938-9.319,7.938c-.317,2.72-.928,6.779-2.992,8.761-2.423,2.325-3.2,1.073-6.106,1.055a43.846,43.846,0,0,0-9.861,1.325c-1.412.311-3.074.561-4.144-.411a36.129,36.129,0,0,0,.436-8.975" transform="translate(-0.591 -0.814)" fill="#2a0952" fill-rule="evenodd"/>
              </g>
              <path id="Fill-9-3" data-name="Fill-9" d="M9.218,14.678l-.059-.25c8.643-2.026,10.96-7.549,10.982-7.6l.239.1c-.022.057-2.381,5.7-11.162,7.759" transform="translate(2.134 1.589)" fill="#4165e3" fill-rule="evenodd"/>
              <path id="Fill-11-2" data-name="Fill-11" d="M7.915,12.053,7.858,11.8A16.137,16.137,0,0,0,15.38,7.636l.189.176a16.424,16.424,0,0,1-7.654,4.241" transform="translate(1.831 1.779)" fill="#4165e3" fill-rule="evenodd"/>
              <path id="Fill-13" d="M20.121,14.943c-.12-.011-2.942-.258-4.6-.545l.226-1.3c1.6.277,4.457.529,4.487.531Z" transform="translate(3.616 3.052)" fill="#2a0952" fill-rule="evenodd"/>
              <path id="Fill-3-2" data-name="Fill-3" d="M17.726,32.079l-.249,9.456c-.081,3.32-2.17,5.047-5.437,4.942-2.79-.09-5.363-1.615-5.62-4.394L7.526,27.221Z" transform="translate(1.496 6.341)" fill="#b3b2e6" fill-rule="evenodd"/>
              <path id="Fill-6" d="M17.508,36.532C10.891,36.539,6.69,27.9,6.69,27.9l11.016,2.474Z" transform="translate(1.559 6.5)" fill="rgba(0,2,60,0.18)" fill-rule="evenodd"/>
              <path id="Fill-15" d="M13.771,36.887h0c5.45.886,10.637-2.689,11.511-7.115l2-10.455c1.094-5.547-1.709-10.851-7.217-12.129C14.424,5.882,7.1,9.053,5.8,14.692L4.282,23.119C3.11,29.636,7.32,35.392,13.771,36.887" transform="translate(0.952 1.606)" fill="#b3b2e6" fill-rule="evenodd"/>
              <g id="Group-19-2" data-name="Group-19" transform="translate(0 22.018)">
                <path id="Fill-17-2" data-name="Fill-17" d="M.112,3.361A4.3,4.3,0,1,0,5.268.146,4.3,4.3,0,0,0,.112,3.361" transform="translate(0 -0.034)" fill="#b3b2e6" fill-rule="evenodd"/>
              </g>
              <path id="Fill-20-2" data-name="Fill-20" d="M4.875,23.238s.7-3.036-2.309-3.23" transform="translate(0.598 4.661)" fill="rgba(0,2,60,0.18)" fill-rule="evenodd"/>
              <path id="Fill-22" d="M1.884,11.419S13.6,6.152,22.061,5.473c.222-.017.441-.033.657-.042a15.434,15.434,0,0,1,2.492.051S23.393,1.219,17.535.212A15.184,15.184,0,0,0,15.373,0,19.371,19.371,0,0,0,12.01.234l-.12.017q-.481.076-.928.171a15.081,15.081,0,0,0-2.518.753c-.2.079-.39.162-.576.248a11.025,11.025,0,0,0-3.35,2.328,10.34,10.34,0,0,0-.771.886,9.23,9.23,0,0,0-1.864,6.781" transform="translate(0.422 0)" fill="#503890" fill-rule="evenodd"/>
              <path id="Fill-24" d="M26.176,6.975A31.037,31.037,0,0,0,3.152,14.4,3.817,3.817,0,0,1,1.887,10.51S12.008.535,25.188,4.017a2.945,2.945,0,0,1,.989,2.958" transform="translate(0.412 0.764)" fill="#816ad8" fill-rule="evenodd"/>
              <path id="Fill-26-2" data-name="Fill-26" d="M23.176,14.687a14.312,14.312,0,0,0,.963,4.683q-2.245-.366-4.49-.732a4.648,4.648,0,0,1-2.86-1.177c-1.112-1.269-.551-3.3-1.269-4.831a10.156,10.156,0,0,0-2.186,6.537,12.46,12.46,0,0,1-5.007-.379c-1.348-.289-2.89-.734-3.423-2a4.012,4.012,0,0,1,.044-2.515c.859-3.388,2.645-6.845,5.829-8.282A11.41,11.41,0,0,1,18.6,5.91c3.382.986,6.755,3.028,7.974,6.334a15.082,15.082,0,0,1,.624,2.614c.231,1.308,1.955,6.533-.73,4.788-1.177-.768-3.54-3.383-3.288-4.958" transform="translate(1.099 1.224)" fill="#2a0952" fill-rule="evenodd"/>
            </g>
          </g>
        </g>
        <g id="Expression" transform="translate(32.18 18.987)">
          <g id="Expression_Relaxed" data-name="Expression/Relaxed" transform="translate(0 0)">
            <g id="Group-36" transform="translate(0 0)">
              <path id="Fill-1-4" data-name="Fill-1" d="M4.741,10.249a2.36,2.36,0,0,1-1.366.89,3.35,3.35,0,0,1-1.888-.148,2.493,2.493,0,0,1-1.053-.666A2.736,2.736,0,0,1,.086,8.1a1.537,1.537,0,0,1,.693-1,2.434,2.434,0,0,1,1.7-.216,4.971,4.971,0,0,1,1.5.456,2.072,2.072,0,0,1,.9,2.692,1.771,1.771,0,0,1-.134.217" transform="translate(0 0.357)" fill="#faa6dc" fill-rule="evenodd"/>
              <path id="Fill-3-3" data-name="Fill-3" d="M.807,9.275a.308.308,0,0,1-.249-.489l.811-1.11a.308.308,0,1,1,.5.364l-.81,1.108a.305.305,0,0,1-.249.127" transform="translate(0.116 0.526)" fill="#ffd0f6" fill-rule="evenodd"/>
              <path id="Fill-5-2" data-name="Fill-5" d="M2.711,10.076H2.693A.31.31,0,0,1,2.4,9.75L2.48,8.379a.308.308,0,1,1,.615.033L3.019,9.785a.309.309,0,0,1-.308.291" transform="translate(0.559 0.651)" fill="#ffd0f6" fill-rule="evenodd"/>
              <path id="Fill-7-2" data-name="Fill-7" d="M1.587,9.8a.314.314,0,0,1-.141-.033.308.308,0,0,1-.133-.416l.715-1.393a.308.308,0,1,1,.549.281L1.861,9.631a.309.309,0,0,1-.274.168" transform="translate(0.297 0.582)" fill="#ffd0f6" fill-rule="evenodd"/>
              <path id="Fill-9-4" data-name="Fill-9" d="M12.347,10.983a1.97,1.97,0,0,0,1.144.745,2.81,2.81,0,0,0,1.582-.125,2.087,2.087,0,0,0,.882-.556,2.294,2.294,0,0,0,.292-1.865,1.3,1.3,0,0,0-.581-.837,2.047,2.047,0,0,0-1.422-.182,4.173,4.173,0,0,0-1.256.383,1.737,1.737,0,0,0-.755,2.256,1.852,1.852,0,0,0,.113.181" transform="translate(2.809 0.657)" fill="#faa6dc" fill-rule="evenodd"/>
              <path id="Fill-11-3" data-name="Fill-11" d="M15.073,10.226a.305.305,0,0,1-.249-.127l-.678-.927a.308.308,0,1,1,.5-.364l.679.928a.308.308,0,0,1-.249.489" transform="translate(3.281 0.789)" fill="#ffd0f6" fill-rule="evenodd"/>
              <path id="Fill-13-2" data-name="Fill-13" d="M13.362,10.9a.309.309,0,0,1-.308-.291L12.99,9.456a.309.309,0,0,1,.291-.326c.194.02.316.122.324.292l.065,1.148a.31.31,0,0,1-.291.326Z" transform="translate(3.026 0.894)" fill="#ffd0f6" fill-rule="evenodd"/>
              <path id="Fill-15-2" data-name="Fill-15" d="M14.4,10.664a.309.309,0,0,1-.274-.168l-.6-1.166a.308.308,0,1,1,.547-.282l.6,1.168a.308.308,0,0,1-.133.416.314.314,0,0,1-.141.033" transform="translate(3.144 0.836)" fill="#ffd0f6" fill-rule="evenodd"/>
              <path id="Fill-17-3" data-name="Fill-17" d="M9.323,8.206c.118.169.243.333.359.5a7.092,7.092,0,0,1,.379.647c.011.023.007.014-.012-.031.006.015.012.031.017.044l.022.064c.007.027.014.054.021.083.02.073-.018,0,0-.021,0,0,0,.069,0,.07s.025-.1,0-.033c-.017.051.054-.086,0-.016-.009.014-.018.028-.028.042.022-.027.02-.025-.007.009s-.046.049-.07.072-.11.091-.058.053a1.864,1.864,0,0,1-.206.129l-.092.047c-.012,0-.134.059-.075.035-.075.031-.153.059-.229.086a.359.359,0,0,0,.19.692,2.5,2.5,0,0,0,1.026-.583.843.843,0,0,0,.261-.515.957.957,0,0,0-.055-.371,5.672,5.672,0,0,0-.826-1.366.368.368,0,0,0-.491-.128.361.361,0,0,0-.128.491" transform="translate(2.115 0.553)" fill="rgba(0,2,60,0.18)" fill-rule="evenodd"/>
              <g id="Group-21" transform="translate(3.743 0)">
                <path id="Fill-19" d="M1.174.506C.682.771.178,1,.055,1.623a.652.652,0,0,0,.756.835A3.07,3.07,0,0,0,1.7,2.139a3.439,3.439,0,0,1,2.324-.1c.422.121.884.264,1.2-.28a.536.536,0,0,0-.2-.842A3.917,3.917,0,0,0,3.269.4a6.319,6.319,0,0,0-2.095.1" transform="translate(-0.036 -0.358)" fill="#2a0952" fill-rule="evenodd"/>
              </g>
              <g id="Group-24" transform="translate(6.397 11.698)">
                <path id="Fill-22-2" data-name="Fill-22" d="M3.912,3.443c.274-.1.539-.18.524-.488-.014-.279-.292-.291-.483-.314A5.185,5.185,0,0,1,1.061,1.129C.889.97.7.744.418.9a.437.437,0,0,0-.185.592A3.8,3.8,0,0,0,3.912,3.443" transform="translate(-0.189 -0.846)" fill="#2a0952" fill-rule="evenodd"/>
              </g>
              <path id="Fill-25" d="M2.221,5.41h0Z" transform="translate(0.516 0.028)" fill="#503890" fill-rule="evenodd"/>
              <path id="Fill-27" d="M2.449,4.659l-.025-.027A5.767,5.767,0,0,1,1.118,4.8a.653.653,0,0,1-.443-.111c-.391-.342.386-.711.657-.689.567.043,1.308-.486,1.812-.086A3.423,3.423,0,0,1,3.6,4.5,5.73,5.73,0,0,0,7.948,6.246c.445-.1,1.329-.673,1.63-.054.18.369-.134.853-.443,1.062a2.034,2.034,0,0,1-.835.295,4.592,4.592,0,0,1-1.319.012c-.308-.044-1.075-.517-1.35-.222-.1.106-.057.407-.075.549-.038.274-.092.546-.147.815-.052.25-.072.589-.462.486-.526-.139-.462-.439-.392-.879.068-.424.115-.85.165-1.275.059-.486-.089-.406-.459-.653-.388-.258-.552-.138-.831.143a6.53,6.53,0,0,1-1.2.816.557.557,0,0,1-.883-.218c-.136-.249.072-.512.366-.745.329-.261.768-.488.956-.624.547-.4.1-.748-.218-1.094" transform="translate(0.132 -0.357)" fill="#2a0952" fill-rule="evenodd"/>
              <path id="Fill-29-2" data-name="Fill-29" d="M14.747,1.989c.434.233.877.433.985.983a.575.575,0,0,1-.666.736,2.736,2.736,0,0,1-.782-.281,3.034,3.034,0,0,0-2.047-.09c-.371.106-.778.232-1.06-.247a.472.472,0,0,1,.176-.741A3.468,3.468,0,0,1,12.9,1.9a5.6,5.6,0,0,1,1.843.092" transform="translate(2.578 -0.799)" fill="#2a0952" fill-rule="evenodd"/>
              <path id="Fill-31" d="M15.582,5.741v0h0Z" transform="translate(3.63 0.105)" fill="#503890" fill-rule="evenodd"/>
              <g id="Group-35" transform="translate(13.029 4.056)">
                <path id="Fill-33" d="M6.888,1.439l.022-.023a5.088,5.088,0,0,0,1.15.147.575.575,0,0,0,.39-.1c.344-.3-.34-.626-.579-.609-.5.039-1.15-.427-1.6-.075a2.985,2.985,0,0,0-.4.52A5.05,5.05,0,0,1,2.047,2.837C1.655,2.751.877,2.243.613,2.789c-.158.324.117.75.388.935a1.8,1.8,0,0,0,.736.259,4.028,4.028,0,0,0,1.161.01c.27-.038.946-.455,1.187-.195.088.092.051.358.067.485.033.239.081.478.129.716.044.219.062.518.407.427.464-.122.407-.386.344-.774-.059-.371-.1-.747-.145-1.122-.051-.427.079-.358.406-.575s.485-.121.73.126A5.813,5.813,0,0,0,7.082,3.8a.491.491,0,0,0,.778-.191c.12-.221-.064-.45-.323-.656-.29-.231-.676-.43-.841-.55-.481-.35-.091-.658.192-.963" transform="translate(-0.567 -0.648)" fill="#2a0952" fill-rule="evenodd"/>
              </g>
            </g>
          </g>
        </g>
        <g id="Upper" transform="translate(0 36.125)">
          <g id="Upper_Cheers_2" data-name="Upper/Cheers 2" transform="translate(0 0)">
            <g id="Group-67-2" data-name="Group-67" transform="translate(0)">
              <g id="Group-3-3" data-name="Group-3" transform="translate(80.035 0)">
                <path id="Fill-1-5" data-name="Fill-1" d="M14.225,4.647c.911,1.957.529,8.134.808,9.931a9.89,9.89,0,0,1-.626,5.033,4.169,4.169,0,0,0-.242,2.592l-5.631.735s-1.279-.228-3.2-3.96S.218,8.917,1.048,8.077c.806-.809,4.146,2.884,4.83,3.691l.063.079c.038.047.058.021.073-.069C6.134,10.744,4.535,1.117,5.684.719A4.529,4.529,0,0,1,7.726.964a1.944,1.944,0,0,1,.2.059,19.806,19.806,0,0,1,2.2.788,1.475,1.475,0,0,1,.2.088,17.077,17.077,0,0,1,2.111,1.084c.065.047.127.085.189.125a4.335,4.335,0,0,1,1.609,1.54" transform="translate(-0.913 -0.673)" fill="#b3b2e6" fill-rule="evenodd"/>
              </g>
              <path id="Fill-4" d="M73.234,14.137l0,0a.1.1,0,0,1-.134-.023,22.343,22.343,0,0,0-4.14-3.959.1.1,0,0,1-.02-.133A.1.1,0,0,1,69.068,10a22.572,22.572,0,0,1,4.185,4,.1.1,0,0,1-.018.129" transform="translate(16.054 1.094)" fill="#9387be" fill-rule="evenodd"/>
              <path id="Fill-6-2" data-name="Fill-6" d="M70.634,1.3l.475,9.214a.108.108,0,0,1-.036.078.1.1,0,0,1-.062.021.1.1,0,0,1-.095-.091l-.478-9.28c.064.017.128.035.2.059" transform="translate(16.409 -0.945)" fill="#9387be" fill-rule="evenodd"/>
              <path id="Fill-8" d="M72.577,2.01l.2,8a.1.1,0,0,1-.036.078.133.133,0,0,1-.051.021.1.1,0,0,1-.1-.092l-.207-8.088a1.466,1.466,0,0,1,.2.086" transform="translate(16.861 -0.784)" fill="#9387be" fill-rule="evenodd"/>
              <path id="Fill-10" d="M74.44,3l.187,7.029a.127.127,0,0,1-.035.079.093.093,0,0,1-.063.02.089.089,0,0,1-.094-.091l-.185-7.161c.065.047.127.085.189.125" transform="translate(17.297 -0.563)" fill="#9387be" fill-rule="evenodd"/>
              <path id="Fill-12" d="M66.7,22.558s8.03,1.772,13.582,7.1L69.921,27.2Z" transform="translate(15.539 4.023)" fill="#c4b8ee" fill-rule="evenodd"/>
              <path id="Fill-14-2" data-name="Fill-14" d="M76.75,34.076c1.394-.29,1.29-.542,1.179-2.09q-.264-3.63-.522-7.261C77.2,21.863,78.288,14.644,74.321,14c-4.326-.7-4.389,7.948-5.1,10.94q-.444,1.885-.889,3.768c-.233.988-.989,2.62-.866,3.616.224,1.811,3.367,2.179,4.887,2.223a19.211,19.211,0,0,0,4.112-.418c.1-.02.194-.037.281-.055" transform="translate(15.714 2.02)" fill="#b3b2e6" fill-rule="evenodd"/>
              <path id="Fill-16" d="M52.75,33.991,50.482,64.826a64.994,64.994,0,0,1-14.317,1.228,135.985,135.985,0,0,1-17.158-1.1,1.233,1.233,0,0,1-1.077-1.235l.3-29.732H52.75Z" transform="translate(4.176 6.686)" fill="#b3b2e6" fill-rule="evenodd"/>
              <path id="Fill-18" d="M28.213,4.284,24.629,5.368l1.642,53.685s21.254-.376,21.254,0c0,.178,2.223-23.768.154-32.845A160.312,160.312,0,0,0,41.187,5.687l-2.2-.335c-.466,2.793-6,5.932-10.77-1.068" transform="translate(5.737 -0.235)" fill="#f376da" fill-rule="evenodd"/>
              <path id="Fill-20-3" data-name="Fill-20" d="M48.217,26.424c.052.449.1.9.139,1.334H26.3l-.1-1.334Z" transform="translate(6.103 4.923)" fill="#eff2f9" fill-rule="evenodd"/>
              <path id="Fill-22-3" data-name="Fill-22" d="M47.1,21.021q.157.644.306,1.288c0,.016.006.03.009.046H25.9l-.1-1.334Z" transform="translate(6.01 3.664)" fill="#eff2f9" fill-rule="evenodd"/>
              <path id="Fill-24-2" data-name="Fill-24" d="M26.6,31.827H48.531c0,.466,0,.91,0,1.334H26.7Z" transform="translate(6.197 6.182)" fill="#eff2f9" fill-rule="evenodd"/>
              <path id="Fill-26-3" data-name="Fill-26" d="M43.176,10.216q.231.638.478,1.333H25.1L25,10.216Z" transform="translate(5.824 1.147)" fill="#eff2f9" fill-rule="evenodd"/>
              <path id="Fill-28" d="M45.334,15.618q.205.658.407,1.334H25.5l-.1-1.334Z" transform="translate(5.917 2.406)" fill="#eff2f9" fill-rule="evenodd"/>
              <path id="Fill-30" d="M48.307,37.23c.052.449.1.9.139,1.334H26.389l-.1-1.334Z" transform="translate(6.124 7.44)" fill="#eff2f9" fill-rule="evenodd"/>
              <path id="Fill-32-2" data-name="Fill-32" d="M26.691,42.633H48.621c0,.465,0,.91,0,1.333H26.789Z" transform="translate(6.217 8.699)" fill="#eff2f9" fill-rule="evenodd"/>
              <path id="Fill-34" d="M26.691,45.633H48.621c0,.465,0,.91,0,1.333H26.789Z" transform="translate(6.217 9.398)" fill="#eff2f9" fill-rule="evenodd"/>
              <line id="Stroke-36" y2="4.815" transform="translate(33.187 60.966)" fill="none" stroke="#2a0952" stroke-width="0.141"/>
              <line id="Stroke-38" y2="4.815" transform="translate(31.266 60.966)" fill="none" stroke="#2a0952" stroke-width="0.141"/>
              <path id="Fill-40-3" data-name="Fill-40" d="M33.178,4.473S23.155,7.158,19.236,10.493,6.576,33.524,3.4,41.838c-4.543,11.878-7,30.344,9.17,27.51s18.752-3.667,18.752-3.667V57.594l6.008-2.586.833-25.176Z" transform="translate(0 -0.191)" fill="#432c82" fill-rule="evenodd"/>
              <path id="Fill-42-3" data-name="Fill-42" d="M28.263,40.458s2.606,7.8.882,15.3L25.937,45.6Z" transform="translate(6.042 8.192)" fill="#c4b8ee" fill-rule="evenodd"/>
              <path id="Fill-44-4" data-name="Fill-44" d="M36.393,5.163c9.51.944,13.756,8.252,17.076,12.421S69.223,38.01,69.223,38.01l-.021.306.93,1.048s1.726-4.43,4.46-11.266L86.18,33.56c-.832,5.252-1.748,11.051-2.169,13.805-.868,5.683-3.18,17.345-13.106,17.345-2.563,0-21.127-18.862-21.127-18.862l.091,16.518H41l.645-32.787Z" transform="translate(8.478 -0.03)" fill="#432c82" fill-rule="evenodd"/>
              <path id="Fill-46-3" data-name="Fill-46" d="M55.867,29.8l-.275,20.42c0,.379-2.688.776-5.992.889s-6.007-.1-6.038-.477L41.893,30.282Z" transform="translate(9.759 5.71)" fill="#fcfcfc" fill-rule="evenodd"/>
              <path id="Fill-48-3" data-name="Fill-48" d="M43.509,33.268c.932-.2.727.144,2.16-.2s1.884.158,2.96-.06,1.741.231,2.784.078,1.56.207,2.348,0a3.116,3.116,0,0,1,1.084-.092l-.207,15.358c0,.335-2.37.686-5.283.785s-5.3-.088-5.325-.422l-1.26-15.352a5.285,5.285,0,0,0,.74-.1" transform="translate(9.963 6.442)" fill="#ffd73d" fill-rule="evenodd"/>
              <path id="Fill-50-2" data-name="Fill-50" d="M45.669,33.069c1.434-.344,1.884.158,2.96-.06s1.741.231,2.784.078,1.56.208,2.348,0a3.116,3.116,0,0,1,1.084-.092l-.046,3.42a4.2,4.2,0,0,0-.994.067,7.715,7.715,0,0,1-2.738.261,11.121,11.121,0,0,0-2.774.169c-.649.033-1.341-.147-2.06-.074s-1.258.215-1.764.206c-.3,0-.928-.031-1.4-.051l-.3-3.629a5.086,5.086,0,0,0,.74-.1c.932-.2.727.144,2.16-.2" transform="translate(9.963 6.442)" fill="#ffe283" fill-rule="evenodd"/>
              <path id="Fill-52" d="M44.714,39.416a.761.761,0,1,0,.735-.788.762.762,0,0,0-.735.788" transform="translate(10.416 7.766)" fill="#fcfcfc" fill-rule="evenodd"/>
              <path id="Fill-54-2" data-name="Fill-54" d="M46.347,40.656a.234.234,0,1,0,.227-.242.234.234,0,0,0-.227.242" transform="translate(10.797 8.182)" fill="#fcfcfc" fill-rule="evenodd"/>
              <path id="Fill-56-2" data-name="Fill-56" d="M48.179,42.14A1.1,1.1,0,1,0,49.242,41a1.1,1.1,0,0,0-1.063,1.138" transform="translate(11.223 8.319)" fill="#fcfcfc" fill-rule="evenodd"/>
              <path id="Fill-58" d="M46.987,43.981a.415.415,0,1,0,.4-.43.415.415,0,0,0-.4.43" transform="translate(10.946 8.913)" fill="#fcfcfc" fill-rule="evenodd"/>
              <path id="Fill-60-2" data-name="Fill-60" d="M24.228,44.4c-.008-1.376.252-1.329,1.736-1.536l6.965-.981L40.58,40.8s6.536-4.8,9.165-5.3,7.025-.8,7.025,0-6.2,2-6.2,2a34.013,34.013,0,0,1,4.9-.035c.555.042,1.917.02,2.291.559.681.984-.875,4.166-1.614,4.889a3.4,3.4,0,0,1-2.349.538c-.3,0-1.5-.228-1.727-.054,0,0-5.6,4.2-9.993,2.6l-7.695,3.656q-1.689.8-3.38,1.6c-.885.42-2.275,1.466-3.24,1.551-1.756.155-2.74-2.737-3.091-4.166a18.494,18.494,0,0,1-.44-3.969c0-.1-.005-.191-.005-.277" transform="translate(5.644 6.924)" fill="#b3b2e6" fill-rule="evenodd"/>
              <path id="Fill-62" d="M25.229,54.025l-3.06.334a56.236,56.236,0,0,1,.523-11.7,1.439,1.439,0,0,1,1.161-1.2l5.315-1a80.958,80.958,0,0,0,.882,15.3,1.384,1.384,0,0,1-1.074,1.57l-4.818,1.041a1.337,1.337,0,0,1-1.6-1.041c-.126-.66-.224-1.339-.3-2.029Z" transform="translate(5.136 8.192)" fill="#6c5de0" fill-rule="evenodd"/>
              <g id="Group-66" transform="translate(80.279 26.58)">
                <path id="Fill-64" d="M11.691,10.58l-1.285,2.8A56.427,56.427,0,0,1,.639,6.921,1.439,1.439,0,0,1,.2,5.306L2.074.231a80.815,80.815,0,0,0,13.581,7.1,1.383,1.383,0,0,1,.8,1.727l-1.582,4.669a1.338,1.338,0,0,1-1.718.84c-.63-.229-1.264-.5-1.894-.784Z" transform="translate(-0.111 -0.231)" fill="#6c5de0" fill-rule="evenodd"/>
              </g>
            </g>
          </g>
        </g>
      </g>
    </g>
    <g id="Desk" transform="translate(80 144.006)">
      <g id="Plant" transform="translate(9.449 6.012)">
        <path id="Fill-185" d="M1.657,27.722c-.125-1.468-.25-3.568-.329-5.04C1.2,20.234,1.1,17.781,1,15.33c-.035-.866.249-1.155,1.115-1.3A29.118,29.118,0,0,1,5.269,13.7c.656-.043,1.3-.179,1.962-.2a2.309,2.309,0,0,1,1.023.141,1.269,1.269,0,0,1-.016.678,27.516,27.516,0,0,0-4.346.17c-.277.052-.7.039-.74.318-.062.381.419.287.642.434a.651.651,0,0,0,.231.048,23.675,23.675,0,0,0,6.177.472,36.949,36.949,0,0,0,4.442-.668c.243-.053.6-.126.575-.445-.032-.4-.424-.322-.7-.323-1.772-.009-3.543,0-5.315,0a.69.69,0,0,1-.055-.624c1.047-.39,2.095.025,3.14,0,.919.057,1.837.122,2.757.164,3.089.142,1.118,12.83,1.033,13.826Z" transform="translate(0.232 3.144)" fill="#ff67ff" fill-rule="evenodd"/>
        <path id="Fill-187" d="M7.832,14.161a1.706,1.706,0,0,1,.047.773c-.039.342.165.461.467.481.334.022.478-.152.475-.469,0-.26-.012-.52-.02-.78,1.772,0,3.543-.007,5.315,0,.272,0,.665-.081.7.324.025.318-.332.391-.575.444A36.949,36.949,0,0,1,9.8,15.6a23.671,23.671,0,0,1-6.177-.472.651.651,0,0,1-.231-.048c-.223-.147-.7-.053-.642-.434.044-.279.462-.266.74-.318a27.516,27.516,0,0,1,4.346-.17" transform="translate(0.639 3.298)" fill="#503890" fill-rule="evenodd"/>
        <path id="Fill-189" d="M9.356,11.259a5.181,5.181,0,0,0-.816,1.748l-.026.032a2.9,2.9,0,0,1-.644-2.572.385.385,0,0,1,.264-.355c.9-.329,1.28-1.149,1.747-1.878.159-.248.433-.579.107-.851s-.65-.041-.944.15c-.344.224-.534.641-.952.814C7.947,7.073,8.017,6.937,9.02,6.4a4.054,4.054,0,0,0,1.42-1.123.641.641,0,0,0,.084-.741c-.142-.249-.393-.2-.631-.226-.448-.042-.723.382-1.187.44a4.032,4.032,0,0,1,.76-2.018A7.669,7.669,0,0,0,10.39.8c.085-.269.12-.608-.224-.763C9.845-.1,9.691.168,9.52.366A7.277,7.277,0,0,0,8.463,2.53a2.06,2.06,0,0,1-.409-.806C7.884,1.336,7.709.952,7.511.579,7.394.36,7.2.182,6.929.317c-.234.118-.2.366-.133.565a4.348,4.348,0,0,0,.593,1.546c.912,1.038.631,2.111.17,3.365A5.376,5.376,0,0,0,6.54,4.271a.6.6,0,0,0-.649-.176.47.47,0,0,0-.216.618A2.381,2.381,0,0,0,6.337,6.1c.4.338.919.7.952,1.309.058,1.064-.265,2.11-.131,3.191-.344-.27-.556-.582-.838-.805a1.809,1.809,0,0,1-.69-1.737,5.421,5.421,0,0,0-.181-2.045c-.106-.345-.2-.779-.7-.711s-.584.471-.545.9c.058.612.129,1.221.2,1.875a1.09,1.09,0,0,1-.927-1.312,3.881,3.881,0,0,0-.443-2.15.572.572,0,0,0-.64-.359c-.306.06-.295.335-.324.568A8.885,8.885,0,0,0,2.147,7.1C1.683,7.248.2,6.448.012,7.3c-.073.338.2.457.43.582a3.4,3.4,0,0,0,1.628.2,1.1,1.1,0,0,1,1.007.482c.155.371-.348.416-.593.576-.2.132-.407.287-.326.568.065.231.275.3.5.327a3.881,3.881,0,0,0,1.8-.09.844.844,0,0,1,1,.242,10.088,10.088,0,0,1,2.535,4.652l-.174.195c-.63-.344-.995-1.018-1.647-1.329-.33-.157-.731-.364-1.016-.017s.1.64.3.875a7.3,7.3,0,0,0,2.661,1.778c.614.211.3.719.358,1.11a1.706,1.706,0,0,1,.047.773c-.039.343.165.461.466.481.335.022.478-.152.476-.469,0-.26-.012-.52-.02-.782a.682.682,0,0,1-.055-.624c.073-.237-.134-.752-.175-1a4.964,4.964,0,0,1-.091-1.153,5.132,5.132,0,0,1,.935-2.122c.173-.3.6-1.022.454-1.383-.216-.539-.914-.261-1.15.078" transform="translate(0 0)" fill="#c664e9" fill-rule="evenodd"/>
        <path id="Fill-191" d="M5.665,21.405c0-.044-.45-.38-.509-.481a.935.935,0,0,1-.122-.577,1.04,1.04,0,0,1,.877-.928c.609-.186.427-1.07,1.058-1.34a1.345,1.345,0,0,1,1.462.446c.445.075.921-.281,1.377.028a1.1,1.1,0,0,1,.482.764c.052.307-.127.586-.067.9a1.5,1.5,0,0,0,.329.356,1.034,1.034,0,0,1-.522,1.771l-.134.02c-.371.057-.518.9-.806,1.112a1.355,1.355,0,0,1-.613.286c-.567.079-.658-.427-1.068-.635-.176.051-.374.11-.573.165a.811.811,0,0,1-1.092-.562,1.153,1.153,0,0,1-.078-.909,1.132,1.132,0,0,0,0-.413" transform="translate(1.171 4.193)" fill="#4ddeff" fill-rule="evenodd"/>
        <path id="Fill-193" d="M8.181,20.643a.659.659,0,1,1-.658-.66.658.658,0,0,1,.658.66" transform="translate(1.599 4.655)" fill="#eff2f9" fill-rule="evenodd"/>
      </g>
      <path id="Fill-167" d="M110.92,30.172h-61.5a.248.248,0,0,1-.249-.248,3.457,3.457,0,0,1,3.457-3.457H110.92a.248.248,0,0,1,.248.248v3.209a.248.248,0,0,1-.248.248" transform="translate(11.456 6.166)" fill="#8a60e2" fill-rule="evenodd"/>
      <path id="Fill-169" d="M127.006,2.358l-7.678,32.464a1.915,1.915,0,0,1-1.864,1.476H70.18a1.918,1.918,0,0,1-1.867-2.359L75.99,1.476A1.916,1.916,0,0,1,77.855,0H125.14a1.918,1.918,0,0,1,1.867,2.357" transform="translate(15.902 0)" fill="#432c82" fill-rule="evenodd"/>
      <path id="Fill-171" d="M116.785,26.916H74.495a.346.346,0,1,1,0-.693h42.29a.346.346,0,1,1,0,.693" transform="translate(17.273 6.109)" fill="#ff67ff" fill-rule="evenodd"/>
      <path id="Fill-173" d="M90.516,15.465c.051,2.4,4.122,5.411,4.122,5.411s4.727-3.01,5.3-5.411c.623-2.6-2.351-3.4-4.555-1.44-1.774-1.964-4.923-1.164-4.869,1.44" transform="translate(21.086 3.012)" fill="#ff67ff" fill-rule="evenodd"/>
      <path id="Fill-175" d="M79.729,0,71.557,36.3H70.18a1.917,1.917,0,0,1-1.865-2.359L75.989,1.476A1.916,1.916,0,0,1,77.855,0Z" transform="translate(15.902 0)" fill="#8a60e2" fill-rule="evenodd"/>
      <path id="Fill-177" d="M139.111,32.048v2.5c0,1.438-.87,2.6-1.941,2.6H2.15c-1.071,0-1.939-1.165-1.939-2.6v-2.5c0-1.438.868-2.6,1.939-2.6H137.171c1.07,0,1.941,1.164,1.941,2.6" transform="translate(0.049 6.86)" fill="#ffb700" fill-rule="evenodd"/>
      <path id="Fill-179" d="M128.327,42.121H12.256A6.452,6.452,0,0,1,5.8,35.67H134.779a6.452,6.452,0,0,1-6.452,6.451" transform="translate(1.352 8.31)" fill="#ea9800" fill-rule="evenodd"/>
      <path id="Fill-181" d="M7.717,132.012,29.692,40.9H21.974L0,132.012Z" transform="translate(0 9.528)" fill="#ffb700" fill-rule="evenodd"/>
      <path id="Fill-183" d="M115.619,132.012,93.646,40.9h7.717l21.974,91.11Z" transform="translate(21.816 9.528)" fill="#ffb700" fill-rule="evenodd"/>
    </g>
  </g>
</svg>
