<svg xmlns="http://www.w3.org/2000/svg" width="294.855" height="267.113" viewBox="0 0 294.855 267.113">
  <g id="Master_Spot_Illustrations_Watering_Plants" data-name="Master/Spot Illustrations/Watering Plants" transform="translate(-7 -27)">
    <g id="Backdrop" transform="translate(60.872 63.05)">
      <g id="Backdrop_Triangle" data-name="Backdrop/Triangle">
        <path id="Background" d="M119.169,23.307,33.2,23.121a7.184,7.184,0,0,0-6.239,10.762L69.786,108.5l42.822,74.611a7.174,7.174,0,0,0,12.432.028l43.142-74.428,43.143-74.426a7.185,7.185,0,0,0-6.193-10.791Z" transform="translate(-26 -23.121)" fill="#50e3ff" fill-rule="evenodd" opacity="0.2"/>
      </g>
    </g>
    <g id="Medium_Decoration" data-name="Medium Decoration" transform="translate(11.489 50.569)">
      <g id="Medium_Decoration_Cloud_1" data-name="Medium Decoration/Cloud 1" transform="translate(0)">
        <path id="Fill-15" d="M32.953,23.214a12.427,12.427,0,0,0-.714-3.689c-1.351-3.04-3.836-3.771-6.761-3.458-2.461.262-3.827,2.007-4.6,4.208-.439,1.253-.733,1.635-1.966.742a4.848,4.848,0,0,0-5.974.171,6.16,6.16,0,0,0-2.576,6.242,10.209,10.209,0,0,0,.646,3.029c-.485.362-.783.051-1.087-.039a4.157,4.157,0,0,0-4.78,1.455,5.626,5.626,0,0,0-.619,5.737c.467.884,1.179.78,1.911.78q12.323,0,24.648,0,15.367,0,30.737-.013c.544,0,1.3.321,1.577-.436A1.95,1.95,0,0,0,62.81,36a6.33,6.33,0,0,0-3.647-1.9,6.7,6.7,0,0,1-4.439-3.211c-1.485-2.323-3.606-3.985-6.449-3.48-1.867.332-3.318.645-4.7-1.184a2.5,2.5,0,0,0-3.184-.321c-.434.247-.778.324-.968-.385-1.043-3.894-3.261-4.724-6.472-2.3" transform="translate(-4 -16)" fill="#ff67ff" fill-rule="evenodd"/>
      </g>
    </g>
    <g id="Medium_Decoration-2" data-name="Medium Decoration" transform="translate(222.486 27)">
      <g id="Medium_Decoration_Cloud_6" data-name="Medium Decoration/Cloud 6" transform="translate(0)">
        <path id="Fill-15-2" data-name="Fill-15" d="M33.914,23.71a13.312,13.312,0,0,0-.763-3.943c-1.442-3.249-4.1-4.03-7.218-3.7-2.627.281-4.087,2.145-4.912,4.5-.47,1.339-.783,1.749-2.1.795a5.171,5.171,0,0,0-6.378.182,6.589,6.589,0,0,0-2.75,6.673,10.861,10.861,0,0,0,.69,3.235c-.519.388-.837.056-1.163-.042a4.438,4.438,0,0,0-5.1,1.554A6.026,6.026,0,0,0,3.555,39.1c.5.945,1.26.833,2.042.833q13.158,0,26.317,0,16.409,0,32.819-.015c.581,0,1.384.345,1.683-.466a2.086,2.086,0,0,0-.623-2.08,6.757,6.757,0,0,0-3.893-2.03,7.154,7.154,0,0,1-4.74-3.431c-1.587-2.484-3.851-4.26-6.887-3.721-1.993.355-3.542.689-5.017-1.266a2.674,2.674,0,0,0-3.4-.342c-.464.263-.832.345-1.034-.413-1.112-4.16-3.481-5.049-6.91-2.46" transform="translate(-3 -16)" fill="#26b6e3" fill-rule="evenodd"/>
      </g>
    </g>
    <g id="Table" transform="translate(145.046 185.082)">
      <path id="Fill-146" d="M26.306,108.987H22.041L50.615,6h8.531Z" transform="translate(2.696 -0.223)" fill="#ea9800" fill-rule="evenodd"/>
      <path id="Fill-152" d="M4.265,108.987H0L28.575,6h8.53Z" transform="translate(0 -0.223)" fill="#ffb700" fill-rule="evenodd"/>
      <path id="Fill-155" d="M125.853,108.987h4.266L101.544,6H93.013Z" transform="translate(11.378 -0.223)" fill="#ffb700" fill-rule="evenodd"/>
      <path id="Fill-158" d="M14.916,9.109H134.229V.853H14.916Z" transform="translate(1.825 -0.853)" fill="#ffb700" fill-rule="evenodd"/>
      <path id="Fill-149" d="M139.5,108.987h4.266L115.187,6h-8.531Z" transform="translate(13.046 -0.223)" fill="#ea9800" fill-rule="evenodd"/>
    </g>
    <g id="Small_Plant" data-name="Small Plant" transform="translate(210.14 140.355)">
      <g id="Small_Plant_Plant_3" data-name="Small Plant/Plant 3" transform="translate(0 0)">
        <g id="Group-3" transform="translate(0 0)">
          <path id="Fill-176" d="M12.544,17.384C10.311,13.6,6.426,6.714,9.32,2.516A10.5,10.5,0,0,1,11.338.42c.964-.795,1.413-.313,2.47.221,3.181,1.6,3.855,4.712,3.955,7.946.192,6.157-5.219,8.8-5.219,8.8" transform="translate(1.014 0)" fill="#8a60e2" fill-rule="evenodd"/>
          <path id="Fill-177" d="M11.914,21.475a28.86,28.86,0,0,1,2.948-5.931c.914-1.375,1.776-2.449,3.455-2.742a25.354,25.354,0,0,1,6.994.089,3,3,0,0,0-.708,1.331,15.158,15.158,0,0,1-4.69,6.065,7.769,7.769,0,0,1-8,1.189" transform="translate(1.457 1.54)" fill="#503890" fill-rule="evenodd"/>
          <path id="Fill-178" d="M12.539,5.737a32.338,32.338,0,0,1,.413,7.213,24.6,24.6,0,0,1-.461,3.6,24.481,24.481,0,0,0-.367,3.523c-.081,2.379.008,4.768.149,7.151s.36,4.771.631,7.138v.007a.511.511,0,1,1-1.015.116s0-.01,0-.013c-.214-2.4-.364-4.8-.453-7.2s-.11-4.815.034-7.228a24.939,24.939,0,0,1,.472-3.613,24.293,24.293,0,0,0,.54-3.513,31.947,31.947,0,0,0-.227-7.127V5.783a.143.143,0,0,1,.122-.164.145.145,0,0,1,.164.118" transform="translate(1.39 0.687)" fill="#503890" fill-rule="evenodd"/>
          <path id="Fill-179" d="M17.238,16.93c-.811.829-1.646,1.631-2.518,2.4-.437.384-.883.758-1.349,1.112a9.7,9.7,0,0,1-1.5.972.3.3,0,0,1-.265-.531l.017-.006a9.305,9.305,0,0,0,1.446-.847c.469-.321.927-.668,1.376-1.026.9-.715,1.768-1.474,2.611-2.256a.126.126,0,0,1,.18,0,.13.13,0,0,1,0,.177" transform="translate(1.4 2.044)" fill="#8a60e2" fill-rule="evenodd"/>
          <path id="Fill-180" d="M12.964,19.115c-1.57-4.241-3.7-8.722-8.621-9.417A16.285,16.285,0,0,1,0,8.836a12.961,12.961,0,0,0,2.637,6.6c.31.4.688.639,1.016,1.066a9.412,9.412,0,0,0,1.312,1.419,7.772,7.772,0,0,0,8,1.189" transform="translate(0 1.081)" fill="#503890" fill-rule="evenodd"/>
          <path id="Fill-181" d="M7.042,14.235c.843.782,1.713,1.541,2.611,2.256.449.358.907.7,1.376,1.026a9.159,9.159,0,0,0,1.446.846.3.3,0,0,1-.232.545l-.016-.008a9.7,9.7,0,0,1-1.5-.972c-.466-.355-.912-.728-1.349-1.112-.872-.769-1.708-1.57-2.518-2.4a.126.126,0,0,1,0-.18.129.129,0,0,1,.177,0" transform="translate(0.835 1.737)" fill="#8a60e2" fill-rule="evenodd"/>
          <path id="Fill-182" d="M12.43,25.52a20.668,20.668,0,0,0-1.614-3.4,5.006,5.006,0,0,0-4.89-2.7,10.1,10.1,0,0,1-3.241-.242c.241.08.731,1.213.9,1.457a17.19,17.19,0,0,0,1.152,1.492,25.455,25.455,0,0,0,2.358,2.6,5.186,5.186,0,0,0,5.337.793" transform="translate(0.328 2.346)" fill="#8a60e2" fill-rule="evenodd"/>
          <path id="Fill-183" d="M8.395,22.295c.568.514,1.154,1.012,1.756,1.481.3.235.608.46.924.67a5.9,5.9,0,0,0,.956.543.3.3,0,0,1-.227.549l-.021-.01a6.411,6.411,0,0,1-1.007-.671c-.311-.242-.607-.495-.9-.756-.577-.52-1.129-1.063-1.664-1.625a.127.127,0,0,1,0-.18.129.129,0,0,1,.175,0" transform="translate(1.001 2.723)" fill="#503890" fill-rule="evenodd"/>
          <path id="Fill-184" d="M17.918,41.082H7.425L5.841,28.011H19.7Z" transform="translate(0.714 3.426)" fill="#ff67ff" fill-rule="evenodd"/>
          <path id="Fill-185" d="M19.08,29.251H6.574a1.144,1.144,0,0,1,0-2.288H19.08a1.144,1.144,0,1,1,0,2.288" transform="translate(0.664 3.298)" fill="#fed21c" fill-rule="evenodd"/>
          <path id="Fill-186" d="M22.406,13.86a.772.772,0,1,1-.771-.772.771.771,0,0,1,.771.772" transform="translate(2.552 1.601)" fill="#aa8dfb" fill-rule="evenodd"/>
          <path id="Fill-187" d="M21.282,15.992a.4.4,0,1,1-.4-.4.4.4,0,0,1,.4.4" transform="translate(2.504 1.907)" fill="#aa8dfb" fill-rule="evenodd"/>
          <path id="Fill-188" d="M19.511,13.88a.4.4,0,1,1-.4-.4.4.4,0,0,1,.4.4" transform="translate(2.288 1.648)" fill="#aa8dfb" fill-rule="evenodd"/>
          <path id="Fill-189" d="M2.069,9.878a.773.773,0,1,1-.723.819.774.774,0,0,1,.723-.819" transform="translate(0.165 1.208)" fill="#aa8dfb" fill-rule="evenodd"/>
          <path id="Fill-190" d="M4.266,10.782a.4.4,0,1,1-.377.43.405.405,0,0,1,.377-.43" transform="translate(0.476 1.319)" fill="#aa8dfb" fill-rule="evenodd"/>
          <path id="Fill-191" d="M2.27,12.684a.4.4,0,1,1-.378.429.4.4,0,0,1,.378-.429" transform="translate(0.231 1.551)" fill="#aa8dfb" fill-rule="evenodd"/>
          <path id="Fill-192" d="M5.912,19.86a.563.563,0,1,1-.526.6.562.562,0,0,1,.526-.6" transform="translate(0.659 2.429)" fill="#aa8dfb" fill-rule="evenodd"/>
          <path id="Fill-193" d="M7.514,20.519a.295.295,0,1,1-.276.312.293.293,0,0,1,.276-.312" transform="translate(0.885 2.51)" fill="#aa8dfb" fill-rule="evenodd"/>
          <path id="Fill-194" d="M6.059,21.9a.294.294,0,1,1-.276.312.293.293,0,0,1,.276-.312" transform="translate(0.707 2.679)" fill="#aa8dfb" fill-rule="evenodd"/>
          <path id="Fill-195" d="M12.458.917a.993.993,0,1,1-1.354.375A.994.994,0,0,1,12.458.917" transform="translate(1.342 0.096)" fill="#aa8dfb" fill-rule="evenodd"/>
          <path id="Fill-196" d="M14.151,2.162a.52.52,0,1,1-.709.2.52.52,0,0,1,.709-.2" transform="translate(1.636 0.256)" fill="#aa8dfb" fill-rule="evenodd"/>
          <path id="Fill-197" d="M10.664,2.992a.52.52,0,1,1-.708.2.52.52,0,0,1,.708-.2" transform="translate(1.209 0.358)" fill="#aa8dfb" fill-rule="evenodd"/>
        </g>
      </g>
    </g>
    <g id="Small_Plant-2" data-name="Small Plant" transform="translate(247.177 126.887)">
      <g id="Small_Plant_Plant_2" data-name="Small Plant/Plant 2" transform="translate(0)">
        <g id="Group" transform="translate(0 0)">
          <path id="Fill-160" d="M13.946,20.968S5.074,5.939,9.5,2.1C14.618-2.329,20.863.393,21.126,8.865s-7.181,12.1-7.181,12.1" transform="translate(1.011 0)" fill="#d78cf8" fill-rule="evenodd"/>
          <path id="Fill-161" d="M13.1,26.914s4.79-12.937,9.351-12.136c5.269.926,6.717,6.112,1.654,10.5S13.1,26.914,13.1,26.914" transform="translate(1.602 1.803)" fill="#c664e9" fill-rule="evenodd"/>
          <path id="Fill-162" d="M13.957,5.264a44.458,44.458,0,0,1,.569,9.925,33.956,33.956,0,0,1-.635,4.957,33.9,33.9,0,0,0-.506,4.847c-.11,3.273.011,6.561.207,9.842s.495,6.563.869,9.82v.008a.7.7,0,1,1-1.4.16.1.1,0,0,0,0-.018c-.294-3.307-.5-6.6-.624-9.915s-.15-6.624.047-9.944a34.269,34.269,0,0,1,.65-4.972,33.411,33.411,0,0,0,.743-4.833,43.975,43.975,0,0,0-.313-9.807V5.327a.2.2,0,0,1,.394-.063" transform="translate(1.51 0.624)" fill="#4d3ebe" fill-rule="evenodd"/>
          <path id="Fill-163" d="M20.423,20.665c-1.116,1.143-2.265,2.246-3.466,3.3-.6.529-1.214,1.043-1.855,1.531a13.273,13.273,0,0,1-2.059,1.338.407.407,0,0,1-.363-.73l.021-.01a12.654,12.654,0,0,0,1.991-1.164c.645-.444,1.275-.919,1.891-1.412,1.236-.984,2.433-2.028,3.593-3.1a.175.175,0,0,1,.247.249" transform="translate(1.523 2.491)" fill="#4d3ebe" fill-rule="evenodd"/>
          <path id="Fill-164" d="M14.139,23.457S9.349,10.52,4.789,11.321c-5.27.925-6.718,6.112-1.655,10.5s11.006,1.635,11.006,1.635" transform="translate(0 1.38)" fill="#c664e9" fill-rule="evenodd"/>
          <path id="Fill-165" d="M6.4,16.958c1.158,1.077,2.357,2.121,3.591,3.1.617.493,1.247.969,1.892,1.411a12.66,12.66,0,0,0,1.99,1.166.407.407,0,1,1-.32.749l-.021-.01a13.233,13.233,0,0,1-2.058-1.338c-.642-.488-1.257-1-1.856-1.531-1.2-1.056-2.35-2.159-3.466-3.3a.177.177,0,0,1,0-.249.179.179,0,0,1,.245,0" transform="translate(0.746 2.068)" fill="#4d3ebe" fill-rule="evenodd"/>
          <path id="Fill-166" d="M13.375,32.42s-3.2-8.633-6.24-8.1c-3.515.618-4.483,4.08-1.1,7.008a7.131,7.131,0,0,0,7.343,1.092" transform="translate(0.482 2.972)" fill="#d78cf8" fill-rule="evenodd"/>
          <path id="Fill-167" d="M8.255,28.047c.78.708,1.588,1.394,2.417,2.038.414.323.837.634,1.269.923a8.193,8.193,0,0,0,1.316.749.407.407,0,0,1-.311.753l-.031-.013a8.907,8.907,0,0,1-1.384-.921c-.428-.333-.836-.683-1.233-1.042-.8-.718-1.553-1.464-2.291-2.237a.175.175,0,0,1,.006-.248.178.178,0,0,1,.241,0" transform="translate(0.974 3.425)" fill="#4d3ebe" fill-rule="evenodd"/>
          <path id="Fill-168" d="M21.358,53.9H6.922L4.741,35.913H23.806Z" transform="translate(0.58 4.393)" fill="#503890" fill-rule="evenodd"/>
          <path id="Fill-169" d="M22.958,37.619H5.75a1.575,1.575,0,0,1,0-3.15H22.958a1.575,1.575,0,0,1,0,3.15" transform="translate(0.511 4.216)" fill="#f376da" fill-rule="evenodd"/>
          <path id="Fill-170" d="M8.794,50.38a1.722,1.722,0,0,0,1.725-1.617A1.778,1.778,0,0,0,8.8,46.953a1.518,1.518,0,0,0-1.63,1.472A1.793,1.793,0,0,0,8.794,50.38" transform="translate(0.876 5.743)" fill="#ff67ff" fill-rule="evenodd"/>
          <path id="Fill-171" d="M17.7,44.87a.863.863,0,0,0,.864-.808.89.89,0,0,0-.863-.9.76.76,0,0,0-.816.736.9.9,0,0,0,.815.976" transform="translate(2.066 5.279)" fill="#ff67ff" fill-rule="evenodd"/>
          <path id="Fill-172" d="M7.233,40.554a.862.862,0,0,0,.863-.809.889.889,0,0,0-.862-.9.759.759,0,0,0-.816.736.9.9,0,0,0,.815.976" transform="translate(0.785 4.751)" fill="#ff67ff" fill-rule="evenodd"/>
          <path id="Fill-173" d="M18.188,41.5a1.724,1.724,0,0,0,1.725-1.617,1.779,1.779,0,0,0-1.724-1.81,1.519,1.519,0,0,0-1.63,1.474A1.794,1.794,0,0,0,18.188,41.5" transform="translate(2.026 4.658)" fill="#ff67ff" fill-rule="evenodd"/>
          <path id="Fill-174" d="M12.982,46.212a1.724,1.724,0,0,0,1.725-1.617,1.779,1.779,0,0,0-1.724-1.81,1.519,1.519,0,0,0-1.63,1.474,1.794,1.794,0,0,0,1.628,1.954" transform="translate(1.389 5.233)" fill="#ff67ff" fill-rule="evenodd"/>
          <path id="Fill-175" d="M17.7,49.333a.42.42,0,0,0,.42-.393.433.433,0,0,0-.42-.439.369.369,0,0,0-.4.357.436.436,0,0,0,.4.475" transform="translate(2.117 5.933)" fill="#ff67ff" fill-rule="evenodd"/>
        </g>
      </g>
    </g>
    <g id="Small_Plant-3" data-name="Small Plant" transform="translate(169.737 126.887)">
      <g id="Small_Plant_Plant_2-2" data-name="Small Plant/Plant 2" transform="translate(0)">
        <g id="Group-2" data-name="Group" transform="translate(0 0)">
          <path id="Fill-160-2" data-name="Fill-160" d="M13.946,20.968S5.074,5.939,9.5,2.1C14.618-2.329,20.863.393,21.126,8.865s-7.181,12.1-7.181,12.1" transform="translate(1.011 0)" fill="#d78cf8" fill-rule="evenodd"/>
          <path id="Fill-161-2" data-name="Fill-161" d="M13.1,26.914s4.79-12.937,9.351-12.136c5.269.926,6.717,6.112,1.654,10.5S13.1,26.914,13.1,26.914" transform="translate(1.602 1.803)" fill="#c664e9" fill-rule="evenodd"/>
          <path id="Fill-162-2" data-name="Fill-162" d="M13.957,5.264a44.458,44.458,0,0,1,.569,9.925,33.956,33.956,0,0,1-.635,4.957,33.9,33.9,0,0,0-.506,4.847c-.11,3.273.011,6.561.207,9.842s.495,6.563.869,9.82v.008a.7.7,0,1,1-1.4.16.1.1,0,0,0,0-.018c-.294-3.307-.5-6.6-.624-9.915s-.15-6.624.047-9.944a34.269,34.269,0,0,1,.65-4.972,33.411,33.411,0,0,0,.743-4.833,43.975,43.975,0,0,0-.313-9.807V5.327a.2.2,0,0,1,.394-.063" transform="translate(1.51 0.624)" fill="#4d3ebe" fill-rule="evenodd"/>
          <path id="Fill-163-2" data-name="Fill-163" d="M20.423,20.665c-1.116,1.143-2.265,2.246-3.466,3.3-.6.529-1.214,1.043-1.855,1.531a13.273,13.273,0,0,1-2.059,1.338.407.407,0,0,1-.363-.73l.021-.01a12.654,12.654,0,0,0,1.991-1.164c.645-.444,1.275-.919,1.891-1.412,1.236-.984,2.433-2.028,3.593-3.1a.175.175,0,0,1,.247.249" transform="translate(1.523 2.491)" fill="#4d3ebe" fill-rule="evenodd"/>
          <path id="Fill-164-2" data-name="Fill-164" d="M14.139,23.457S9.349,10.52,4.789,11.321c-5.27.925-6.718,6.112-1.655,10.5s11.006,1.635,11.006,1.635" transform="translate(0 1.38)" fill="#c664e9" fill-rule="evenodd"/>
          <path id="Fill-165-2" data-name="Fill-165" d="M6.4,16.958c1.158,1.077,2.357,2.121,3.591,3.1.617.493,1.247.969,1.892,1.411a12.66,12.66,0,0,0,1.99,1.166.407.407,0,1,1-.32.749l-.021-.01a13.233,13.233,0,0,1-2.058-1.338c-.642-.488-1.257-1-1.856-1.531-1.2-1.056-2.35-2.159-3.466-3.3a.177.177,0,0,1,0-.249.179.179,0,0,1,.245,0" transform="translate(0.746 2.068)" fill="#4d3ebe" fill-rule="evenodd"/>
          <path id="Fill-166-2" data-name="Fill-166" d="M13.375,32.42s-3.2-8.633-6.24-8.1c-3.515.618-4.483,4.08-1.1,7.008a7.131,7.131,0,0,0,7.343,1.092" transform="translate(0.482 2.972)" fill="#d78cf8" fill-rule="evenodd"/>
          <path id="Fill-167-2" data-name="Fill-167" d="M8.255,28.047c.78.708,1.588,1.394,2.417,2.038.414.323.837.634,1.269.923a8.193,8.193,0,0,0,1.316.749.407.407,0,0,1-.311.753l-.031-.013a8.907,8.907,0,0,1-1.384-.921c-.428-.333-.836-.683-1.233-1.042-.8-.718-1.553-1.464-2.291-2.237a.175.175,0,0,1,.006-.248.178.178,0,0,1,.241,0" transform="translate(0.974 3.425)" fill="#4d3ebe" fill-rule="evenodd"/>
          <path id="Fill-168-2" data-name="Fill-168" d="M21.358,53.9H6.922L4.741,35.913H23.806Z" transform="translate(0.58 4.393)" fill="#503890" fill-rule="evenodd"/>
          <path id="Fill-169-2" data-name="Fill-169" d="M22.958,37.619H5.75a1.575,1.575,0,0,1,0-3.15H22.958a1.575,1.575,0,0,1,0,3.15" transform="translate(0.511 4.216)" fill="#f376da" fill-rule="evenodd"/>
          <path id="Fill-170-2" data-name="Fill-170" d="M8.794,50.38a1.722,1.722,0,0,0,1.725-1.617A1.778,1.778,0,0,0,8.8,46.953a1.518,1.518,0,0,0-1.63,1.472A1.793,1.793,0,0,0,8.794,50.38" transform="translate(0.876 5.743)" fill="#ff67ff" fill-rule="evenodd"/>
          <path id="Fill-171-2" data-name="Fill-171" d="M17.7,44.87a.863.863,0,0,0,.864-.808.89.89,0,0,0-.863-.9.76.76,0,0,0-.816.736.9.9,0,0,0,.815.976" transform="translate(2.066 5.279)" fill="#ff67ff" fill-rule="evenodd"/>
          <path id="Fill-172-2" data-name="Fill-172" d="M7.233,40.554a.862.862,0,0,0,.863-.809.889.889,0,0,0-.862-.9.759.759,0,0,0-.816.736.9.9,0,0,0,.815.976" transform="translate(0.785 4.751)" fill="#ff67ff" fill-rule="evenodd"/>
          <path id="Fill-173-2" data-name="Fill-173" d="M18.188,41.5a1.724,1.724,0,0,0,1.725-1.617,1.779,1.779,0,0,0-1.724-1.81,1.519,1.519,0,0,0-1.63,1.474A1.794,1.794,0,0,0,18.188,41.5" transform="translate(2.026 4.658)" fill="#ff67ff" fill-rule="evenodd"/>
          <path id="Fill-174-2" data-name="Fill-174" d="M12.982,46.212a1.724,1.724,0,0,0,1.725-1.617,1.779,1.779,0,0,0-1.724-1.81,1.519,1.519,0,0,0-1.63,1.474,1.794,1.794,0,0,0,1.628,1.954" transform="translate(1.389 5.233)" fill="#ff67ff" fill-rule="evenodd"/>
          <path id="Fill-175-2" data-name="Fill-175" d="M17.7,49.333a.42.42,0,0,0,.42-.393.433.433,0,0,0-.42-.439.369.369,0,0,0-.4.357.436.436,0,0,0,.4.475" transform="translate(2.117 5.933)" fill="#ff67ff" fill-rule="evenodd"/>
        </g>
      </g>
    </g>
    <g id="Master_Character_Standing" data-name="Master/Character/Standing" transform="translate(7 28.123)">
      <g id="Master_Character_Standing-2" data-name="Master/Character/Standing" transform="translate(0 0)">
        <g id="Lower" transform="translate(54.994 122.508)">
          <g id="Lower_Posing_2" data-name="Lower/Posing 2" transform="translate(0)">
            <g id="Group-28" transform="translate(0)">
              <path id="Fill-1" d="M29,111.148l.816,6.543,7.04.043L36.626,111Z" transform="translate(3.548 13.403)" fill="#b3b2e6" fill-rule="evenodd"/>
              <g id="Group-27" transform="translate(0 0)">
                <g id="Group-4" transform="translate(30.399 129.612)">
                  <path id="Fill-2" d="M28.705,14.411.469,14.242a3.885,3.885,0,0,1-.361-1.558c-.163-2.372.622-6.148,1.009-8.531.047-.278.089-.538.12-.773a8.217,8.217,0,0,0,.09-.973A1.438,1.438,0,0,1,3.073.8C5.912,3.6,9.174-.55,11.053.83c0,0,.81.582,3.04,2.6s6.034,3.358,9.272,4.725c4.18,1.763,5.357,3.506,5.581,4.7a2.168,2.168,0,0,1-.241,1.555" transform="translate(-0.085 -0.541)" fill="#f376da" fill-rule="evenodd"/>
                </g>
                <g id="Group-7" transform="translate(30.421 141.755)">
                  <path id="Fill-5" d="M28.7,2.173.466,2A3.885,3.885,0,0,1,.1.445L28.944.618A2.168,2.168,0,0,1,28.7,2.173" transform="translate(-0.105 -0.445)" fill="#23145a" fill-rule="evenodd"/>
                </g>
                <path id="Fill-8" d="M30.238,129.05l-.839,0a6.12,6.12,0,0,0,1.545-4.477A7.877,7.877,0,0,0,28,118.944c.047-.278.088-.54.12-.774a8.573,8.573,0,0,1,3.493,6.369,6.76,6.76,0,0,1-1.379,4.511" transform="translate(3.426 14.28)" fill="#23145a" fill-rule="evenodd"/>
                <path id="Fill-10" d="M37.628,118.524a.467.467,0,0,1-.449-.354.462.462,0,0,1,.342-.558l1.767-.424a.462.462,0,1,1,.219.9l-1.765.423a.442.442,0,0,1-.113.015" transform="translate(4.547 14.158)" fill="#23145a" fill-rule="evenodd"/>
                <path id="Fill-12" d="M19.165,28.148l7.5,51.055c-1.429,8.612,2.064,43.929,2.064,43.929l10.752-.258Q42.3,89.19,43.3,76.349q1.515-19.391-4.892-52.943l-3.7-2.9Z" transform="translate(2.345 2.334)" fill="#2c2263" fill-rule="evenodd"/>
                <path id="Fill-14" d="M11.022,112.179l.7,5.813,7.466.045.471-6.111Z" transform="translate(1.349 13.516)" fill="#b3b2e6" fill-rule="evenodd"/>
                <g id="Group-18">
                  <path id="Fill-16" d="M4.233.6s-10.456,4.987,1.5,95.263c1.576,11.9,4.585,26.4,5.151,29.962l11.082.066.118-1.578.571-93.806a79.958,79.958,0,0,0,18.1-4.609L32.213.156Z" transform="translate(0 -0.156)" fill="#2c2263" fill-rule="evenodd"/>
                </g>
                <path id="Fill-19" d="M22.873,127.617c0,.067,0,.131,0,.2-.008.3-.022.563-.037.791-.033.5-.072.811-.072.811l-16.819-.1a9.064,9.064,0,0,1-.01-1.6,8.317,8.317,0,0,1,3.041-6.162c3.2-2.421,1.964-1.918,2.623-3.027.075-.123.659-2.01.721-2.139.553-1.151,1.061-1.694,4.074-1.676,4,.025,4.336,1.949,4.756,2.966a18.66,18.66,0,0,1,.651,2.359c.1.423.2.875.293,1.334.239,1.15.461,2.352.613,3.312a17.264,17.264,0,0,1,.171,2.937" transform="translate(0.722 13.856)" fill="#f376da" fill-rule="evenodd"/>
                <path id="Fill-21" d="M21.253,127.038c0,.067,0,.131,0,.2-.008.3-.022.563-.037.791a4.673,4.673,0,0,1-1.734-2.259c-1.024-2.818.6-6.184.666-6.327l.034.016c.1.423.2.875.293,1.334a7.535,7.535,0,0,0-.239,4.71,3.9,3.9,0,0,0,1.022,1.539" transform="translate(2.342 14.435)" fill="#23145a" fill-rule="evenodd"/>
                <path id="Fill-23" d="M22.868,126.4c-.028.951-.109,1.6-.109,1.6L5.94,127.9a9.084,9.084,0,0,1-.01-1.6Z" transform="translate(0.722 15.274)" fill="#23145a" fill-rule="evenodd"/>
                <path id="Fill-25" d="M16.459,117.881a.49.49,0,0,1-.12-.016,8.37,8.37,0,0,0-3.9-.1.482.482,0,0,1-.588-.336.476.476,0,0,1,.338-.585,9.3,9.3,0,0,1,4.4.1.475.475,0,0,1-.126.935" transform="translate(1.448 14.092)" fill="#23145a" fill-rule="evenodd"/>
              </g>
            </g>
          </g>
        </g>
        <g id="Head" transform="translate(51.29 27.497)">
          <g id="Head_Bob_with_Ribbons" data-name="Head/Bob with Ribbons">
            <g id="Group-3-2" data-name="Group" transform="translate(0 0)">
              <path id="Fill-233" d="M37.881,17.375a14.206,14.206,0,0,0-1.035-3.1,14.409,14.409,0,0,0-6.2-6.541,23.067,23.067,0,0,0-3.522-1.453,23.833,23.833,0,0,0-3.329-.911C18.183,4.346,13.014,6.761,9.157,10.708a22.219,22.219,0,0,0-2.1,2.844A22.449,22.449,0,0,0,5.54,15.8c-.749,1.4-1.489,2.8-2.127,4.232a35.645,35.645,0,0,0-1.855,4.733c-.2.7-.27,1.417-.419,2.121a6.8,6.8,0,0,0,.055,3.655,2.282,2.282,0,0,0,1.628,1.682c.158-.009.217-.134.327-.2a3.4,3.4,0,0,1,.1-1.975c.211.524.608.962.82,1.475.141.182.426.266.488.5a.558.558,0,0,1,.391.183,9.14,9.14,0,0,0,4.015,1.611c1.136.241,1.16.184,1.257,1.165.044.443.306.653.847.68a4.852,4.852,0,0,0,3.251-1.033c.123-.093.273-.286.42-.158.266.232.653.284.9.565,2.544,2.833,8.593,2.119,11.452.058a2.145,2.145,0,0,1,1.285-.57,2.956,2.956,0,0,1,.983.332,3.326,3.326,0,0,0,2.186.1c.327-.1.63-.251.955-.354.682-.215,1.493.122,2.062-.044.688-.2.6-.92.621-1.416.056-1.332.026-2.667.015-4a6.713,6.713,0,0,0-.105-.708c-.01-.09-.017-.213.149-.213a.19.19,0,0,1,.177.166.72.72,0,0,1,.016.19c-.036,1.376.22,2.747.111,4.121-.053.646-.175,1.29-.269,1.956.23.024.388-.213.63-.14a2.581,2.581,0,0,0,.82-1.066,2.581,2.581,0,0,1-.82,1.066c-.376.531-1.106.646-1.661.965-.109.063-.217.127-.323.19.131.379.586.146.835.3a5.973,5.973,0,0,0,2.172-1.181c-.016-.259.111-.45.43-.594a.639.639,0,0,1-.226.612c.189.516.438.642,1,.466a2.4,2.4,0,0,0,1.2-.781,3.587,3.587,0,0,0,.741-2.321,14.78,14.78,0,0,0-.816-3.847c-.346-1.343-.709-2.687-.971-4.05a24.86,24.86,0,0,1-.1-4.22,14.5,14.5,0,0,0-.309-2.678" transform="translate(0.112 0.628)" fill="#432c82" fill-rule="evenodd"/>
              <path id="Fill-3" d="M25.311,30.843l-.227,8.607c-.074,3.022-1.975,4.594-4.949,4.5-2.54-.082-4.882-1.47-5.116-4l1.008-13.527Z" transform="translate(1.837 3.232)" fill="#b3b2e6" fill-rule="evenodd"/>
              <path id="Fill-6" d="M25.138,34.958c-6.024.006-9.847-7.856-9.847-7.856l10.028,2.252Z" transform="translate(1.87 3.315)" fill="rgba(0,2,60,0.18)" fill-rule="evenodd"/>
              <path id="Fill-244" d="M8.848,19.814a3.911,3.911,0,1,0,4.694-2.927,3.911,3.911,0,0,0-4.694,2.927" transform="translate(1.07 2.053)" fill="#b3b2e6" fill-rule="evenodd"/>
              <path id="Fill-246" d="M13.414,21.875s.64-2.762-2.1-2.939" transform="translate(1.384 2.316)" fill="rgba(0,2,60,0.18)" fill-rule="evenodd"/>
              <path id="Fill-248" d="M21.11,33.06h0c4.961.807,9.683-2.448,10.478-6.477l1.818-9.517c1-5.05-1.554-9.879-6.568-11.04-5.135-1.189-11.8,1.7-12.988,6.831l-1.378,7.671C11.406,26.458,15.238,31.7,21.11,33.06" transform="translate(1.504 0.704)" fill="#b3b2e6" fill-rule="evenodd"/>
              <path id="Fill-252" d="M39.963,18.2a3.107,3.107,0,0,1-1.733-.355c-.153-.073-.362-.159-.35-.346.011-.21.241-.128.378-.165a1.9,1.9,0,0,0,1.392-2.411,5.46,5.46,0,0,0-2.678-3.093.73.73,0,0,1-.449-1.024,5,5,0,0,0,.026-3.24,2.025,2.025,0,0,0-1.624-1.618,2.118,2.118,0,0,0-2.1.816A2.8,2.8,0,0,0,32.2,7.794c-.085.339-.315.521-.632.1-2.129-2.826-6.539-3.7-9.833-2.669a3.909,3.909,0,0,0,.607-1.46A3.051,3.051,0,0,0,21.37.582,3.231,3.231,0,0,0,18.919.036a4.248,4.248,0,0,0-2.725,1.349,9.757,9.757,0,0,0-1.447,2.147c-.207.386-1.745-.567-2.185-.7a5.157,5.157,0,0,0-3.086.094A2.761,2.761,0,0,0,8.232,6.892a5.759,5.759,0,0,0,2.807,2.284c.687.3.719.31.154.837-2.267,2.117-3.525,5.409-1.944,8.315a3.491,3.491,0,0,0,1.276,1.411,14.036,14.036,0,0,0,2.155.692c.933.349,1.291.991,1.938,1.651.875.9,1.685-1.449,2.129-2.145q1.438-2.242,2.872-4.485a1.057,1.057,0,0,1,.2-.247.769.769,0,0,1,1,.191,8.1,8.1,0,0,1,.6.954,4.145,4.145,0,0,0,2.241,1.329,2.585,2.585,0,0,0,1.059.193c1.217-.119.5-1.648.941-2.438.082-.148.094-.354.308-.378.257-.028.31.193.386.364.372.819.63,1.685,1.01,2.5a6.41,6.41,0,0,0,1.426,2.07.552.552,0,0,1,.239.382,2.321,2.321,0,0,1,2.6.488,3.458,3.458,0,0,1,.961,1.732c.521-.233.326-.761.349-1.108A10.765,10.765,0,0,0,30.912,14.1c-.205-.277-.533-.456-.662-.795a1.133,1.133,0,0,1-.025-.228,2.836,2.836,0,0,1,1.107,1.156,10.96,10.96,0,0,1,1.953,5.4,5.556,5.556,0,0,1-.439,3.437c.4,1.02,1.933.838,2.72.388a3.064,3.064,0,0,0,1.394-1.768,6.266,6.266,0,0,0,.08-2.274c.18.119.29.183.392.259a2.123,2.123,0,0,0,3-.745c.259-.538.113-.795-.462-.725" transform="translate(0.96 0)" fill="#432c82" fill-rule="evenodd"/>
              <path id="Fill-305" d="M14.609,6.891a5.8,5.8,0,0,1-3.727-1.3A3.039,3.039,0,0,1,9.9,3.045a.262.262,0,0,1,.3-.26.279.279,0,0,1,.262.3,2.506,2.506,0,0,0,.806,2.1A5.375,5.375,0,0,0,15.106,6.3a.28.28,0,1,1,.08.554,4.088,4.088,0,0,1-.577.037" transform="translate(1.21 0.34)" fill="#f376da" fill-rule="evenodd"/>
              <path id="Fill-307" d="M15.563,5.967a.281.281,0,0,1-.128-.531A4.333,4.333,0,0,0,17.3,3.342,10.241,10.241,0,0,0,18.03.479a.29.29,0,0,1,.316-.24.281.281,0,0,1,.24.318,10.771,10.771,0,0,1-.774,3.018,4.913,4.913,0,0,1-2.121,2.362.286.286,0,0,1-.128.03" transform="translate(1.869 0.029)" fill="#f376da" fill-rule="evenodd"/>
              <path id="Fill-309" d="M18.5,4.278a3.26,3.26,0,0,1-1.272-.254.281.281,0,1,1,.22-.517,2.938,2.938,0,0,0,3.486-1.073.281.281,0,0,1,.471.305A3.487,3.487,0,0,1,18.5,4.278" transform="translate(2.086 0.282)" fill="#f376da" fill-rule="evenodd"/>
              <path id="Fill-311" d="M12.215,7.52a11.5,11.5,0,0,1-1.982-.2,2.937,2.937,0,0,1-2.066-1.05.28.28,0,1,1,.467-.31,2.482,2.482,0,0,0,1.7.808,9.311,9.311,0,0,0,2.574.156,4.128,4.128,0,0,0,2.273-.929.281.281,0,0,1,.373.421,4.675,4.675,0,0,1-2.584,1.065,6.776,6.776,0,0,1-.751.04" transform="translate(0.993 0.713)" fill="#f376da" fill-rule="evenodd"/>
              <path id="Fill-313" d="M31.421,10.874a.28.28,0,0,1-.26-.177,4.194,4.194,0,0,1-.034-2.664,11.812,11.812,0,0,1,1.067-2.355.281.281,0,0,1,.494.269,11.206,11.206,0,0,0-1.021,2.24,3.639,3.639,0,0,0,.014,2.3.279.279,0,0,1-.157.364.282.282,0,0,1-.1.02" transform="translate(3.783 0.677)" fill="#f376da" fill-rule="evenodd"/>
              <path id="Fill-315" d="M36.169,12.944a.283.283,0,0,1-.145-.04,7.381,7.381,0,0,0-3.961-1.037.258.258,0,0,1-.289-.272.28.28,0,0,1,.272-.29,8.011,8.011,0,0,1,4.268,1.118.281.281,0,0,1-.145.521" transform="translate(3.887 1.383)" fill="#f376da" fill-rule="evenodd"/>
              <path id="Fill-317" d="M31.283,9.175a.277.277,0,0,1-.215-.1.281.281,0,0,1,.036-.4,3.071,3.071,0,0,1,2.837-.552.281.281,0,0,1-.171.535,2.5,2.5,0,0,0-2.307.448.279.279,0,0,1-.18.065" transform="translate(3.792 0.977)" fill="#f376da" fill-rule="evenodd"/>
              <path id="Fill-319" d="M36.176,15.44a1.931,1.931,0,0,1-1.222-.543,4.9,4.9,0,0,1-1.626-2.857.28.28,0,0,1,.552-.094,4.339,4.339,0,0,0,1.438,2.524,1.276,1.276,0,0,0,.993.4.291.291,0,0,1,.331.22.283.283,0,0,1-.219.331,1.305,1.305,0,0,1-.247.025" transform="translate(4.076 1.432)" fill="#f376da" fill-rule="evenodd"/>
              <path id="Fill-321" d="M30.7,22.142a.316.316,0,0,1-.046,0,.281.281,0,0,1-.231-.323,11.518,11.518,0,0,0-3.117-9.827.28.28,0,1,1,.4-.394,12.09,12.09,0,0,1,3.273,10.313.282.282,0,0,1-.277.235" transform="translate(3.33 1.408)" fill="#f376da" fill-rule="evenodd"/>
              <path id="Fill-323" d="M36.823,19.35a7.862,7.862,0,0,1-3.888-1.074A12.408,12.408,0,0,1,28.7,13.895a.281.281,0,0,1,.478-.294,11.843,11.843,0,0,0,4.04,4.189,6.711,6.711,0,0,0,5.554.669.281.281,0,1,1,.193.529,6.268,6.268,0,0,1-2.14.364" transform="translate(3.505 1.647)" fill="#f376da" fill-rule="evenodd"/>
              <path id="Fill-325" d="M15.337,6.057h-.01A1.734,1.734,0,0,1,14,5.294a1.735,1.735,0,0,1-.268-1.508.281.281,0,1,1,.535.171,1.171,1.171,0,0,0,.192,1.016,1.17,1.17,0,0,0,.888.524.281.281,0,0,1-.01.561" transform="translate(1.671 0.439)" fill="#f376da" fill-rule="evenodd"/>
              <path id="Fill-327" d="M.28,21.472A.281.281,0,0,1,.2,20.923,17.079,17.079,0,0,0,11.714,8.494a.281.281,0,1,1,.548.122A17.648,17.648,0,0,1,.362,21.459a.3.3,0,0,1-.082.012" transform="translate(0 1.012)" fill="#f376da" fill-rule="evenodd"/>
              <path id="Fill-329" d="M17.544,6.616a.3.3,0,0,1-.135.3c-.125.09-.239.226-.378.258-.635.152-.824.683-1.067,1.182-.231.474-.563.523-.8.057A2.5,2.5,0,0,0,13.78,7.085a.389.389,0,0,1,0-.744A2.39,2.39,0,0,0,15.1,4.956c.2-.456.57-.423.785.024.251.522.505,1.006,1.14,1.165a.7.7,0,0,1,.519.471" transform="translate(1.652 0.566)" fill="#ffb700" fill-rule="evenodd"/>
              <path id="Fill-331" d="M32.82,11.816a.209.209,0,0,1-.2.107.865.865,0,0,1-.312-.019c-.4-.186-.73.022-1.068.187-.323.158-.523.045-.455-.305a1.708,1.708,0,0,0-.187-1.3.265.265,0,0,1,.31-.4A1.633,1.633,0,0,0,32.2,9.9c.3-.164.485.01.412.341a1.213,1.213,0,0,0,.126,1.1.475.475,0,0,1,.081.471" transform="translate(3.737 1.203)" fill="#ffb700" fill-rule="evenodd"/>
            </g>
          </g>
        </g>
        <g id="Expression" transform="translate(63.412 44.22)">
          <g id="Expression_Happy_Senior_2" data-name="Expression/Happy Senior 2" transform="translate(0 0)">
            <g id="Group-45" transform="translate(0 0)">
              <path id="Fill-1-2" data-name="Fill-1" d="M9.8,8.346a2.149,2.149,0,0,1-1.244.81A3.054,3.054,0,0,1,6.837,9.02a2.27,2.27,0,0,1-.957-.6,2.5,2.5,0,0,1-.318-2.026,1.4,1.4,0,0,1,.632-.91,2.222,2.222,0,0,1,1.544-.2A4.543,4.543,0,0,1,9.1,5.7a1.885,1.885,0,0,1,.819,2.45,1.762,1.762,0,0,1-.122.2" transform="translate(0.67 0.639)" fill="rgba(255,55,184,0.5)" fill-rule="evenodd"/>
              <path id="Fill-3-2" data-name="Fill-3" d="M6.264,7.525a.281.281,0,0,1-.227-.446l.737-1.01a.281.281,0,1,1,.453.331L6.491,7.409a.278.278,0,0,1-.227.116" transform="translate(0.731 0.728)" fill="#ffd0f6" fill-rule="evenodd"/>
              <path id="Fill-5-2" data-name="Fill-5" d="M8.167,8.3H8.152A.282.282,0,0,1,7.887,8l.071-1.248a.294.294,0,0,1,.3-.265.282.282,0,0,1,.265.3l-.07,1.249a.281.281,0,0,1-.281.265" transform="translate(0.964 0.794)" fill="#ffd0f6" fill-rule="evenodd"/>
              <path id="Fill-7" d="M7.044,8.023a.286.286,0,0,1-.128-.03.28.28,0,0,1-.121-.378l.651-1.268a.28.28,0,1,1,.5.256L7.293,7.87a.281.281,0,0,1-.249.153" transform="translate(0.827 0.757)" fill="#ffd0f6" fill-rule="evenodd"/>
              <path id="Fill-9" d="M16.336,9.333a1.788,1.788,0,0,0,1.042.678,2.558,2.558,0,0,0,1.44-.112,1.9,1.9,0,0,0,.8-.507,2.085,2.085,0,0,0,.266-1.7,1.177,1.177,0,0,0-.529-.762,1.857,1.857,0,0,0-1.294-.166,3.8,3.8,0,0,0-1.144.348,1.581,1.581,0,0,0-.687,2.054,1.563,1.563,0,0,0,.1.165" transform="translate(1.966 0.822)" fill="rgba(255,55,184,0.5)" fill-rule="evenodd"/>
              <path id="Fill-11" d="M19,8.7a.278.278,0,0,1-.227-.116l-.617-.845a.281.281,0,1,1,.453-.331l.617.846A.281.281,0,0,1,19,8.7" transform="translate(2.214 0.891)" fill="#ffd0f6" fill-rule="evenodd"/>
              <path id="Fill-13" d="M17.344,9.346a.281.281,0,0,1-.281-.265l-.058-1.046a.28.28,0,1,1,.56-.03l.059,1.045a.282.282,0,0,1-.265.3Z" transform="translate(2.079 0.946)" fill="#ffd0f6" fill-rule="evenodd"/>
              <path id="Fill-15-3" data-name="Fill-15" d="M18.338,9.112a.281.281,0,0,1-.249-.153L17.543,7.9a.28.28,0,1,1,.5-.257L18.587,8.7a.28.28,0,0,1-.121.378.286.286,0,0,1-.128.03" transform="translate(2.142 0.916)" fill="#ffd0f6" fill-rule="evenodd"/>
              <path id="Fill-17" d="M14.016,7.332a3.046,3.046,0,0,0-.308-.9c-.074-.148-.163-.293-.37-.262a.369.369,0,0,0-.322.367,1.214,1.214,0,0,0,.011.413A11.406,11.406,0,0,0,13.454,8.9c.076.183.186.31.4.276a.411.411,0,0,0,.356-.43,4.343,4.343,0,0,0-.192-1.413" transform="translate(1.59 0.754)" fill="rgba(0,2,60,0.18)" fill-rule="evenodd"/>
              <path id="Fill-19-2" data-name="Fill-19" d="M10.215,2.12c.155-.09.352-.174.4-.394a.477.477,0,0,0-.229-.485A2.165,2.165,0,0,0,8.807.877a.406.406,0,0,0-.241.672,2.548,2.548,0,0,0,1.65.571" transform="translate(1.035 0.104)" fill="#d3ccfb" fill-rule="evenodd"/>
              <path id="Fill-21-2" data-name="Fill-21" d="M18.813,2.242a2.5,2.5,0,0,0-.446-.062c-.593.029-.883.228-.86.519.025.308.369.53.8.535a1.432,1.432,0,0,0,.548-.118c.2-.077.366-.189.356-.426a.487.487,0,0,0-.4-.448" transform="translate(2.141 0.266)" fill="#d3ccfb" fill-rule="evenodd"/>
              <path id="Fill-23-2" data-name="Fill-23" d="M13.615,11.851l.037-.013c.175-.054.441,0,.465-.259.024-.273-.256-.238-.42-.315a2.924,2.924,0,0,1-2.463-1.027c-.209-.07-.4-.446-.626-.141s.175.4.309.588c.082.116.251.141.305.29a4.808,4.808,0,0,0,2.394.879" transform="translate(1.288 1.22)" fill="#2a0952" fill-rule="evenodd"/>
              <path id="Fill-25-2" data-name="Fill-25" d="M13.54,11.742a4.808,4.808,0,0,1-2.394-.879,1.983,1.983,0,0,0,.1.731,1.167,1.167,0,0,0,1.257.826,1.078,1.078,0,0,0,1.038-.678" transform="translate(1.363 1.328)" fill="rgba(255,55,184,0.5)" fill-rule="evenodd"/>
              <path id="Fill-27" d="M11.157,10.211a2.921,2.921,0,0,0,2.463,1.027.936.936,0,0,0-.851-.948,4.463,4.463,0,0,0-1.613-.079" transform="translate(1.364 1.244)" fill="rgba(255,55,184,0.5)" fill-rule="evenodd"/>
              <path id="Fill-37" d="M14.482,4.55l-1.891-.36L12.7,3.61l1.891.36Z" transform="translate(1.54 0.441)" fill="#974ccd" fill-rule="evenodd"/>
              <path id="Fill-39" d="M5.941,4.289,0,1.882l.221-.545,5.94,2.406Z" transform="translate(-0.001 0.163)" fill="#974ccd" fill-rule="evenodd"/>
              <path id="Fill-41" d="M9.513.59a3.572,3.572,0,0,0-2.59,1.118A3.915,3.915,0,0,0,5.837,4.429,3.91,3.91,0,0,0,6.914,7.155,3.569,3.569,0,0,0,9.507,8.281h.006a3.767,3.767,0,0,0,3.674-3.839A3.767,3.767,0,0,0,9.518.59Zm0,8.28H9.506A4.159,4.159,0,0,1,6.488,7.561,4.494,4.494,0,0,1,5.249,4.429,4.5,4.5,0,0,1,6.5,1.3,4.158,4.158,0,0,1,9.513,0h.007a4.357,4.357,0,0,1,4.258,4.441A4.359,4.359,0,0,1,9.513,8.87Z" transform="translate(0.641 0)" fill="#974ccd" fill-rule="evenodd"/>
              <path id="Fill-43" d="M17.948,2.021a3.524,3.524,0,0,0-3.438,3.59,3.523,3.523,0,0,0,3.43,3.6h.006a3.337,3.337,0,0,0,2.421-1.044,3.661,3.661,0,0,0,1.015-2.547,3.522,3.522,0,0,0-3.43-3.6Zm0,7.782h-.007a4.111,4.111,0,0,1-4.017-4.192h0a4.113,4.113,0,0,1,4.026-4.18h0A4.112,4.112,0,0,1,21.97,5.623a4.244,4.244,0,0,1-1.178,2.954A3.922,3.922,0,0,1,17.945,9.8Z" transform="translate(1.702 0.175)" fill="#974ccd" fill-rule="evenodd"/>
            </g>
            <path id="Fill-19-3" data-name="Fill-19" d="M15.66,6.94a2.011,2.011,0,0,1,.22-.149,1.876,1.876,0,0,1,1.24-.182,3.071,3.071,0,0,1,1.376.624,1.5,1.5,0,0,1,.42.618c.093.27-.08.505-.393.367-.478-.211-.717-.789-1.265-.928a1.826,1.826,0,0,0-1.474.42c-.1.073-.214.134-.311.213-.318.264-.5-.1-.382-.4a1.618,1.618,0,0,1,.568-.584" transform="translate(2.403 -1.89)" fill="#2a0952" fill-rule="evenodd"/>
            <path id="Fill-21-3" data-name="Fill-21" d="M7.4,5.729a2.685,2.685,0,0,1,.285-.194,2.422,2.422,0,0,1,1.6-.236,3.984,3.984,0,0,1,1.781.808,1.939,1.939,0,0,1,.543.8c.12.348-.1.652-.51.475-.618-.273-.927-1.024-1.636-1.2a2.36,2.36,0,0,0-1.907.542c-.132.094-.277.173-.4.277-.413.341-.643-.132-.495-.519A2.087,2.087,0,0,1,7.4,5.729" transform="translate(1.371 -2.051)" fill="#2a0952" fill-rule="evenodd"/>
          </g>
        </g>
        <g id="Upper" transform="translate(0)">
          <g id="Upper_Arms_Up_2" data-name="Upper/Arms Up 2" transform="translate(0)">
            <g id="Group-84">
              <path id="Fill-1-3" data-name="Fill-1" d="M28.683,45.114,15.451,33.945l-3.736,3.6,13.39,14.843Z" transform="translate(1.433 3.03)" fill="#b3b2e6" fill-rule="evenodd"/>
              <g id="Group-36" transform="translate(0 0)">
                <g id="Group-4-2" data-name="Group-4" transform="translate(0 22.859)">
                  <path id="Fill-2-2" data-name="Fill-2" d="M.287,9.159C1.243,10.886,6.018,13.931,7.2,15.1a9.062,9.062,0,0,0,4.061,2.248,3.812,3.812,0,0,1,2.048,1.218L16.882,14.8s.52-1.068-1.205-4.5S10.989,1.1,9.921,1.26c-1.031.159-.1,4.618.13,5.56l.025.088c.013.055-.016.055-.091.018-.831-.468-7.091-6.836-8-6.2a4.14,4.14,0,0,0-.919,1.641c-.021.057-.043.114-.062.176A17.961,17.961,0,0,0,.4,4.594a1.165,1.165,0,0,0-.043.192A15.627,15.627,0,0,0,.025,6.933c0,.072-.007.139-.011.205a3.965,3.965,0,0,0,.273,2.02" transform="translate(0 -0.681)" fill="#b3b2e6" fill-rule="evenodd"/>
                </g>
                <path id="Fill-5-3" data-name="Fill-5" d="M9.71,31.55h0a.09.09,0,0,0,.056-.112,20.321,20.321,0,0,1-.7-5.194.09.09,0,0,0-.089-.089.089.089,0,0,0-.088.089,20.627,20.627,0,0,0,.707,5.25.089.089,0,0,0,.107.057" transform="translate(1.088 2.848)" fill="#9387be" fill-rule="evenodd"/>
                <path id="Fill-7-2" data-name="Fill-7" d="M.891,22.36l6.56,5.314a.1.1,0,0,0,.077.016.109.109,0,0,0,.049-.035.088.088,0,0,0-.018-.119L.953,22.183c-.021.057-.042.113-.062.176" transform="translate(0.109 2.362)" fill="#9387be" fill-rule="evenodd"/>
                <path id="Fill-9-2" data-name="Fill-9" d="M.319,24.36l5.807,4.455a.088.088,0,0,0,.077.015.128.128,0,0,0,.044-.026.09.09,0,0,0-.012-.127L.362,24.167a1.307,1.307,0,0,0-.043.193" transform="translate(0.039 2.605)" fill="#9387be" fill-rule="evenodd"/>
                <path id="Fill-11-2" data-name="Fill-11" d="M.013,26.458l5.1,3.925a.111.111,0,0,0,.076.016.081.081,0,0,0,.049-.036.08.08,0,0,0-.018-.118l-5.2-3.993c0,.073-.007.139-.01.207" transform="translate(0.002 2.86)" fill="#9387be" fill-rule="evenodd"/>
                <path id="Fill-13-2" data-name="Fill-13" d="M52.309,116.931c1.1.213,7.764,1.042,8.809,1.165,10.247,1.21,21.569-.843,21.569-.843-.083-2.385,4.286-29.9,3.2-36.558-1.144-7.047-10.255-21.648-10.255-21.648l-5.016.174a19.5,19.5,0,0,1-11.8-.1l-4.671.164q-4.723,5.535-4.759,8.319c-.136,10.325,4.479,22.426,4.759,29.907Q54.412,104.6,52.309,116.931Z" transform="translate(6.041 6.871)" fill="#432c82" fill-rule="evenodd"/>
                <path id="Fill-15-4" data-name="Fill-15" d="M76.442,65.54a29.784,29.784,0,0,0-3.647-6.427l-.854,0q-9.331.06-14.025,0-.379,0-1.143.04s5.376,17.448,17.156,16.917c5.665-.256,4.363-4.945,4.363-4.945A33.8,33.8,0,0,0,76.442,65.54Z" transform="translate(6.945 6.879)" fill="#fed21c" fill-rule="evenodd"/>
                <path id="Fill-17-2" data-name="Fill-17" d="M71.816,59.113s6.905,11.305,4.176,13.99c-2.836,2.788-8.046.727-11.66-2.644s-6.541-11.346-6.541-11.346Z" transform="translate(7.069 6.879)" fill="#b3b2e6" fill-rule="evenodd"/>
                <path id="Fill-19-4" data-name="Fill-19" d="M106.318,27.534S105,46.388,99.372,54.69,81.286,79.428,81.286,79.428l-8.512-16.1S85.526,53.6,87.359,49.588s12.2-25.533,12.2-25.533Z" transform="translate(8.902 2.591)" fill="#ad5cee" fill-rule="evenodd"/>
                <path id="Fill-21-4" data-name="Fill-21" d="M102.067,27.856l2.125-10.049L99.46,15.819l-2.817,9.243Z" transform="translate(11.822 1.584)" fill="#b3b2e6" fill-rule="evenodd"/>
                <g id="Group-25" transform="translate(107.809 0)">
                  <path id="Fill-23-3" data-name="Fill-23" d="M12.9,6.152c.237,1.961-1.847,7.227-2.114,8.869a9.06,9.06,0,0,1-1.973,4.2,3.809,3.809,0,0,0-.945,2.187l-5.108-.96S1.711,19.889,1.1,16.1-.5,5.893.463,5.4c.932-.475,2.789,3.685,3.154,4.581l.033.085c.02.053.044.037.083-.038C4.13,9.162,5.47.331,6.584.313A4.123,4.123,0,0,1,8.291,1.1c.049.033.1.067.153.107a18.212,18.212,0,0,1,1.687,1.31,1.242,1.242,0,0,1,.148.131A15.311,15.311,0,0,1,11.806,4.2c.045.057.088.109.13.159a3.969,3.969,0,0,1,.963,1.8" transform="translate(-0.059 -0.313)" fill="#b3b2e6" fill-rule="evenodd"/>
                </g>
                <path id="Fill-26" d="M101.793,13.739l0,0a.09.09,0,0,1-.111-.058A20.361,20.361,0,0,0,99.2,9.064a.086.086,0,0,1,.02-.121.088.088,0,0,1,.122.018,20.658,20.658,0,0,1,2.5,4.669.087.087,0,0,1-.053.109" transform="translate(12.133 0.74)" fill="#9387be" fill-rule="evenodd"/>
                <path id="Fill-28" d="M103.789,1.124l-2.2,8.15a.1.1,0,0,1-.053.057.093.093,0,0,1-.061,0,.086.086,0,0,1-.055-.107l2.215-8.209c.051.034.1.067.154.107" transform="translate(12.406 -0.227)" fill="#9387be" fill-rule="evenodd"/>
                <path id="Fill-30" d="M105.412,2.411l-2.094,7.012a.086.086,0,0,1-.053.058.152.152,0,0,1-.051,0,.093.093,0,0,1-.066-.111l2.116-7.1a1.241,1.241,0,0,1,.148.131" transform="translate(12.617 -0.073)" fill="#9387be" fill-rule="evenodd"/>
                <path id="Fill-32" d="M106.86,3.932,105.029,10.1a.114.114,0,0,1-.053.058.076.076,0,0,1-.061,0,.081.081,0,0,1-.055-.107l1.87-6.281c.045.057.086.109.129.16" transform="translate(12.826 0.11)" fill="#9387be" fill-rule="evenodd"/>
                <path id="Fill-34" d="M57.873,61.84s.146.164.4.462C60.75,65.2,73.419,80.953,62,86.529c0,0-6.56-6.655-11.173-9.906S19.567,49.6,19.567,49.6l5.127-10.417S47.283,58.878,48.906,59.859Z" transform="translate(2.394 4.442)" fill="#ad5cee" fill-rule="evenodd"/>
              </g>
              <g id="Group-52" transform="translate(14.451 44.151)">
                <g id="Group-39" transform="translate(0 0)">
                  <path id="Fill-37-2" data-name="Fill-37" d="M-3.739,17.548c2.062-2.206,5.425-1.2,8.009-.809a14.389,14.389,0,0,0,8.5-1.09A13.425,13.425,0,0,0,20.225,1.995c-.218-1.779-3.041-1.8-2.822,0A10.7,10.7,0,0,1,9.578,13.833c-5,1.306-11.164-2.717-15.312,1.721-1.238,1.325.752,3.324,1.994,1.994" transform="translate(6.124 -0.652)" fill="#fed21c" fill-rule="evenodd"/>
                </g>
                <g id="Group-42" transform="translate(26.605 7.898)">
                  <path id="Fill-40" d="M23.8,8.713q-.377,1.495-.755,2.989a16.706,16.706,0,0,1-.833,2.617,8.42,8.42,0,0,1-.641,1.12,8.056,8.056,0,0,1-.736.756c.083-.066-.121.085-.143.1-.1.065-.2.128-.3.186-.081.046-.163.089-.246.131-.377.191.116-.03-.111.045a3.79,3.79,0,0,1-.6.159c.152-.026.068-.007-.035,0-.141,0-.277,0-.418,0a1.419,1.419,0,0,0-1.41,1.411,1.441,1.441,0,0,0,1.41,1.41,6.144,6.144,0,0,0,5.446-3.46,28.5,28.5,0,0,0,2.086-6.7,1.41,1.41,0,1,0-2.719-.75" transform="translate(-17.582 -7.689)" fill="#fed21c" fill-rule="evenodd"/>
                </g>
                <g id="Group-45-2" data-name="Group-45" transform="translate(20.795 20.983)">
                  <path id="Fill-43-2" data-name="Fill-43" d="M13.767,22.17a1.412,1.412,0,0,0,0-2.822,1.412,1.412,0,0,0,0,2.822" transform="translate(-12.405 -19.349)" fill="#fed21c" fill-rule="evenodd"/>
                </g>
                <g id="Group-48" transform="translate(24.01 17.563)">
                  <path id="Fill-46" d="M15.947,28.16a8.976,8.976,0,0,0,7.742.714c2.648-1.019,4.024-3.306,6.074-5.092,2.578-2.248,5.985-.588,9.026-1a9.317,9.317,0,0,0,6.628-4.4c.963-1.544-1.477-2.963-2.435-1.424a6.611,6.611,0,0,1-6.274,3.066c-2.688-.153-5.345-.743-7.756.841-1.863,1.223-3.016,3.177-4.756,4.526a6.082,6.082,0,0,1-6.825.328,1.411,1.411,0,0,0-1.423,2.435" transform="translate(-15.269 -16.301)" fill="#fed21c" fill-rule="evenodd"/>
                </g>
                <g id="Group-51" transform="translate(31.914 30.039)">
                  <path id="Fill-49" d="M23.722,40.034a9.277,9.277,0,0,0,6.9-4.358,10.7,10.7,0,0,0,.836-1.823c.079-.21.156-.422.237-.631.054-.144.11-.286.167-.428-.094.231,0,.008.046-.094a5.946,5.946,0,0,1,2.2-2.645,1.449,1.449,0,0,0,.507-1.929,1.425,1.425,0,0,0-1.93-.507,9.459,9.459,0,0,0-2.936,3.116,13.27,13.27,0,0,0-.732,1.631c-.081.21-.158.423-.238.633-.038.1-.076.209-.117.313-.027.068-.053.137-.08.2q.062-.145,0-.01a7.351,7.351,0,0,1-.433.808c-.075.12-.156.235-.233.354-.231.357.152-.163-.121.164a8.426,8.426,0,0,1-.623.676q-.177.17-.366.332c-.035.028-.345.264-.159.129a8.467,8.467,0,0,1-.709.465c-.143.082-.288.16-.437.235-.045.022-.458.2-.242.117a7.242,7.242,0,0,1-.8.269c-.137.037-.274.07-.412.1-.051.01-.585.091-.323.059a1.454,1.454,0,0,0-1.41,1.411,1.42,1.42,0,0,0,1.41,1.411" transform="translate(-22.312 -27.418)" fill="#fed21c" fill-rule="evenodd"/>
                </g>
              </g>
              <g id="Group-68" transform="translate(80.82 34.829)">
                <g id="Group-55" transform="translate(0 19.196)">
                  <path id="Fill-53" d="M.655,27.124A7.316,7.316,0,0,1,3.43,30.916a10.76,10.76,0,0,0,2.746,4.8,7.563,7.563,0,0,0,10.1-.175c1.345-1.227-.655-3.217-1.993-1.994a4.685,4.685,0,0,1-7-.806c-.9-1.339-1.184-3-1.9-4.433a9.549,9.549,0,0,0-3.3-3.615C.562,23.683-.852,26.124.655,27.124" transform="translate(-0.011 -24.45)" fill="#fed21c" fill-rule="evenodd"/>
                </g>
                <g id="Group-58" transform="translate(13.158 19.07)">
                  <path id="Fill-56" d="M30.569,33.141a5.709,5.709,0,0,0-.982-5.4,6.9,6.9,0,0,0-4.928-2.258c-2.048-.167-4.047.429-6.075.589-1.607.128-3.334-.021-4.476-1.283-1.219-1.349-3.209.65-1.993,1.994,2.6,2.873,6.56,2.1,9.94,1.633a7.253,7.253,0,0,1,4.562.455,2.867,2.867,0,0,1,1.232,3.523c-.589,1.721,2.135,2.46,2.719.75" transform="translate(-11.735 -24.338)" fill="#fed21c" fill-rule="evenodd"/>
                </g>
                <g id="Group-61" transform="translate(19.082 11.059)">
                  <path id="Fill-59" d="M18.376,20.021a1.411,1.411,0,0,0,0-2.82,1.411,1.411,0,0,0,0,2.82" transform="translate(-17.013 -17.2)" fill="#fed21c" fill-rule="evenodd"/>
                </g>
                <g id="Group-64" transform="translate(19.219 0)">
                  <path id="Fill-62" d="M17.34,12.184a5.3,5.3,0,0,0,3.788,2.6,8.734,8.734,0,0,0,5.315-1.414,15.863,15.863,0,0,0,2.119-1.441,9.362,9.362,0,0,1,2-1.522c1.416-.591,3.16-.076,4.5.5a1.456,1.456,0,0,0,1.929-.506,1.42,1.42,0,0,0-.506-1.929,11.424,11.424,0,0,0-4.6-1.129A6.705,6.705,0,0,0,27.37,9.26c-1.728,1.51-5.868,4.45-7.595,1.5a1.411,1.411,0,0,0-2.435,1.424" transform="translate(-17.136 -7.347)" fill="#fed21c" fill-rule="evenodd"/>
                </g>
                <g id="Group-67" transform="translate(0.383 37.887)">
                  <path id="Fill-65" d="M.519,44.5a5.211,5.211,0,0,0,3.494,2.9A8.838,8.838,0,0,0,9.3,46.552a14.9,14.9,0,0,0,2.281-1.176,10.525,10.525,0,0,1,2.116-1.3c1.553-.53,3.3.285,4.627,1.04A1.411,1.411,0,0,0,19.75,42.68a11.07,11.07,0,0,0-4.64-1.562,7.019,7.019,0,0,0-4.582,1.58c-2.007,1.361-6.171,3.516-7.573.376a1.421,1.421,0,0,0-1.929-.505A1.445,1.445,0,0,0,.519,44.5" transform="translate(-0.352 -41.104)" fill="#fed21c" fill-rule="evenodd"/>
                </g>
              </g>
              <g id="Group-83" transform="translate(26.094 31.124)">
                <path id="Fill-69" d="M74.291,2.689A3.461,3.461,0,0,0,73.3,1.4c-.091-.088-.2-.186,0-.281A2.493,2.493,0,0,0,74.412.045a5.892,5.892,0,0,0,.9,1.2c.093.073.045.153-.038.212a2.862,2.862,0,0,0-.982,1.233" transform="translate(8.672 -0.045)" fill="#c2f5ff" fill-rule="evenodd"/>
                <path id="Fill-71" d="M33.458,46.455a.862.862,0,0,1-1.022-.925,1.178,1.178,0,0,1,1.141-1.3.969.969,0,0,1,1.1,1.022c.01.746-.474,1.144-1.221,1.2" transform="translate(3.687 5.359)" fill="#c2f5ff" fill-rule="evenodd"/>
                <path id="Fill-73" d="M71.964,16.3a.83.83,0,0,1,.777.829.672.672,0,0,1-.727.709.774.774,0,0,1-.731-.753.74.74,0,0,1,.681-.786" transform="translate(8.439 1.944)" fill="#c2f5ff" fill-rule="evenodd"/>
                <path id="Fill-75" d="M76.048,13.471l-.171,0c-.9.028-.947.105-.575.9a7.374,7.374,0,0,1,.283.681c.064.178.122.4-.112.488-.214.08-.286-.134-.358-.283-.147-.308-.279-.623-.429-.929s-.337-.328-.545-.047a4.126,4.126,0,0,1-.75.85c-.1.076-.187.141-.3.048a.223.223,0,0,1-.047-.309c.189-.284.4-.553.588-.835.267-.394.19-.566-.287-.633-.264-.036-.529-.055-.792-.086-.117-.015-.239-.049-.232-.2s.13-.19.242-.2c.359-.022.721-.028,1.08-.04.316-.009.4-.176.287-.45s-.251-.551-.373-.829c-.083-.189-.221-.433.031-.551.27-.125.328.189.425.347a6.19,6.19,0,0,1,.346.716c.175.389.377.522.668.093.192-.282.392-.557.6-.829.122-.163.253-.4.495-.223.217.157.12.365-.019.548-.184.24-.375.477-.54.731-.2.314-.1.5.275.512.265.01.531,0,.795.025.141.012.332.035.318.246-.012.189-.173.237-.331.247-.189.013-.379.01-.569.013v-.016" transform="translate(8.566 1.299)" fill="#c2f5ff" fill-rule="evenodd"/>
                <path id="Fill-77" d="M.25,17.285a1.305,1.305,0,0,1,.462-.079c.464-.042.927-.076,1.392-.116.058,0,.141.028.165-.055s-.045-.113-.086-.16q-.48-.54-.96-1.077c-.057-.065-.113-.129-.19-.218a.57.57,0,0,1,.4.1q.571.281,1.132.582c.145.077.208.064.246-.109.116-.532.264-1.056.432-1.575.019-.061.025-.127.1-.158.085.045.051.127.055.192.037.56.036,1.122.094,1.681.02.194.075.209.236.135.487-.226.979-.441,1.471-.657a.633.633,0,0,1,.374-.083c-.18.158-.328.292-.479.421-.331.279-.66.561-1,.831-.148.12-.14.178.033.262.477.227.949.468,1.423.7a.339.339,0,0,1,.186.137.519.519,0,0,1-.3.018c-.479-.053-.958-.1-1.434-.164-.2-.028-.251.027-.245.223.018.608.018,1.219.025,1.828,0,.059.025.127-.051.184a1.408,1.408,0,0,1-.215-.474c-.145-.415-.275-.836-.4-1.26-.057-.2-.126-.185-.245-.053-.386.429-.776.854-1.163,1.282-.031.034-.066.064-.114.111-.072-.232.076-.394.138-.565a11.287,11.287,0,0,1,.478-1.1c.077-.16.04-.2-.117-.242-.553-.135-1.1-.279-1.653-.424-.071-.018-.168-.008-.194-.128" transform="translate(-0.25 1.714)" fill="#c2f5ff" fill-rule="evenodd"/>
                <path id="Fill-79" d="M33.973,39.277c-.056,0-.113,0-.171,0-.9.028-.947.1-.575.9.1.222.2.449.284.681.063.18.121.4-.113.489-.214.079-.286-.135-.358-.284-.147-.308-.279-.623-.429-.928s-.337-.329-.545-.047a4.156,4.156,0,0,1-.75.85c-.1.075-.187.141-.3.047a.223.223,0,0,1-.047-.309c.189-.283.4-.553.588-.835.268-.394.19-.565-.287-.632-.264-.037-.529-.056-.792-.088-.116-.015-.239-.049-.232-.2s.13-.189.242-.194c.36-.022.721-.029,1.081-.042.315-.009.4-.176.286-.45s-.251-.551-.373-.829c-.082-.189-.22-.433.031-.55.27-.126.329.189.425.346a6.1,6.1,0,0,1,.346.716c.175.389.377.523.668.093.192-.282.392-.557.6-.828.122-.164.253-.4.495-.224.217.157.12.366-.019.548-.184.24-.375.477-.539.732-.2.313-.105.5.274.512.265.01.532,0,.795.024.141.013.332.035.318.247-.012.187-.173.236-.331.247-.189.012-.379.009-.569.012v-.015" transform="translate(3.419 4.456)" fill="#c2f5ff" fill-rule="evenodd"/>
                <path id="Fill-81" d="M16.57,33.961a.862.862,0,0,1-1.022-.925,1.177,1.177,0,0,1,1.14-1.3.968.968,0,0,1,1.1,1.022c.011.746-.472,1.144-1.22,1.2" transform="translate(1.621 3.831)" fill="#c2f5ff" fill-rule="evenodd"/>
              </g>
            </g>
          </g>
        </g>
      </g>
    </g>
  </g>
</svg>
