<svg xmlns="http://www.w3.org/2000/svg" xmlns:xlink="http://www.w3.org/1999/xlink" viewBox="0 0 194.64 185.82"><defs><style>.cls-1{fill:#fff;}.cls-1,.cls-10,.cls-11,.cls-12,.cls-13,.cls-14,.cls-15,.cls-18,.cls-19,.cls-20,.cls-21,.cls-22,.cls-23,.cls-25,.cls-26,.cls-27,.cls-29,.cls-31,.cls-32,.cls-33,.cls-34,.cls-35,.cls-36,.cls-38,.cls-39,.cls-4,.cls-41,.cls-43,.cls-44,.cls-46,.cls-47,.cls-48,.cls-49,.cls-5,.cls-51,.cls-52,.cls-6,.cls-9{fill-rule:evenodd;}.cls-2{opacity:0.64;}.cls-3{fill:#26b6e3;}.cls-4{fill:#4ddeff;}.cls-5{fill:#f28dfd;}.cls-6{fill:#fed21c;}.cls-27,.cls-7{fill:#ff67ff;}.cls-8{mask:url(#mask);}.cls-9{fill:#c2f5ff;}.cls-10{fill:#eff2f9;}.cls-11{fill:#cdd6f2;}.cls-12{fill:#faa6dc;}.cls-13{fill:#f376da;}.cls-14{fill:#fcb332;}.cls-15{fill:#2c2571;}.cls-16,.cls-17,.cls-45{fill:none;}.cls-16{stroke:#cdd6f2;stroke-linejoin:round;stroke-width:0.5px;}.cls-16,.cls-17{stroke-linecap:round;}.cls-17{stroke:#2c2571;}.cls-18{fill:#a12bb6;}.cls-19{fill:#974ccd;}.cls-20{fill:#771f98;}.cls-21{fill:#9f91ca;}.cls-22{fill:#432c82;}.cls-23{fill:#ffb700;}.cls-24{mask:url(#mask-3);}.cls-25{fill:#ff94ff;}.cls-26{fill:#3b2d7e;}.cls-28{mask:url(#mask-4);}.cls-29{fill:#8a60e2;}.cls-30{mask:url(#mask-5);}.cls-31{fill:#2a0952;}.cls-32{fill:#4165e3;}.cls-33{fill:#00023c;fill-opacity:0.18;}.cls-34{fill:#503890;}.cls-35{fill:#816ad8;}.cls-36{fill:#0e47bb;}.cls-37{mask:url(#mask-6);}.cls-38{fill:#ff37b8;fill-opacity:0.5;}.cls-39{fill:#ffd0f6;}.cls-40{mask:url(#mask-7);}.cls-41{fill:#2c2263;}.cls-42{mask:url(#mask-8);}.cls-43{fill:#9387be;}.cls-44{fill:#c4b8ee;}.cls-45{stroke:#2a0952;stroke-width:0.14px;}.cls-46{fill:#fcfcfc;}.cls-47{fill:#ffd73d;}.cls-48{fill:#ffe283;}.cls-49{fill:#6c5de0;}.cls-50{mask:url(#mask-9);}.cls-51{fill:#c664e9;}.cls-52{fill:#ea9800;}.cls-53{isolation:isolate;}</style><mask id="mask" x="130.08" y="0" width="61.32" height="51.28" maskUnits="userSpaceOnUse"><g id="windowcheckmark-3-mask-2"><polygon id="windowcheckmark-3-path-1" class="cls-1" points="130.08 0 191.4 0 191.4 51.28 130.08 51.28 130.08 0"/></g></mask><mask id="mask-3" x="131.41" y="183.37" width="26.34" height="1.44" maskUnits="userSpaceOnUse"><g id="sittingleggings-1-mask-2"><polygon id="sittingleggings-1-path-1" class="cls-1" points="131.41 183.37 157.75 183.37 157.75 184.81 131.41 184.81 131.41 183.37"/></g></mask><mask id="mask-4" x="62" y="97.65" width="63.14" height="63.97" maskUnits="userSpaceOnUse"><g id="sittingleggings-1-mask-4"><polygon id="sittingleggings-1-path-3" class="cls-1" points="62 97.65 125.14 97.65 125.14 161.62 62 161.62 62 97.65"/></g></mask><mask id="mask-5" x="68.89" y="13.18" width="26.36" height="26.69" maskUnits="userSpaceOnUse"><g id="headshort-with-beanie-mask-2"><polygon id="headshort-with-beanie-path-1" class="cls-1" points="68.89 13.18 95.25 13.18 95.25 39.88 68.89 39.88 68.89 13.18"/></g></mask><mask id="mask-6" x="77.8" y="37.67" width="5.03" height="1.97" maskUnits="userSpaceOnUse"><g id="expressionsad-mask-2"><polygon id="expressionsad-path-1" class="cls-1" points="77.8 37.67 82.83 37.67 82.83 39.63 77.8 39.63 77.8 37.67"/></g></mask><mask id="mask-7" x="83.82" y="34.31" width="3.45" height="2.98" maskUnits="userSpaceOnUse"><g id="expressionsad-mask-4"><polygon id="expressionsad-path-3" class="cls-1" points="83.82 34.31 87.27 34.31 87.27 37.29 83.82 37.29 83.82 34.31"/></g></mask><mask id="mask-8" x="110.91" y="40.84" width="11.53" height="18.06" maskUnits="userSpaceOnUse"><g id="uppercheers-2-mask-2"><polygon id="uppercheers-2-path-1" class="cls-1" points="110.91 40.84 122.45 40.84 122.45 58.9 110.91 58.9 110.91 40.84"/></g></mask><mask id="mask-9" x="111.11" y="62.4" width="13.31" height="11.7" maskUnits="userSpaceOnUse"><g id="uppercheers-2-mask-4"><polygon id="uppercheers-2-path-3" class="cls-1" points="111.11 62.4 124.42 62.4 124.42 74.1 111.11 74.1 111.11 62.4"/></g></mask></defs><g id="Calque_2" data-name="Calque 2"><g id="Calque_1-2" data-name="Calque 1"><g id="Master_Spot_Illustrations_Work_from_Home" data-name="Master/Spot Illustrations/Work from Home"><g id="Texture" class="cls-2"><g id="Texture_Unfinished_Grid" data-name="Texture/Unfinished Grid"><g id="Decoration-3"><path id="Stroke-20" class="cls-3" d="M4.89,133a.68.68,0,0,1,.81-.09l.09.07,4.88,4.38,4.58-4.13a.66.66,0,0,1,.78-.07l.09.06,5.07,4.38,4-4.09a.66.66,0,0,1,.85-.09l.09.07a.67.67,0,0,1,.08.85l-.07.08L21.7,139a.65.65,0,0,1-.81.1L20.8,139l-5.1-4.41-4.59,4.14a.66.66,0,0,1-.79.07l-.09-.07L5.36,134.4l-4.24,4.11a.66.66,0,0,1-.85.06l-.08-.07a.66.66,0,0,1-.06-.85l.07-.08Z"/></g><g id="Decoration-4"><path id="Fill-14" class="cls-4" d="M175.86,123c1.47-1.6.66-3.11-1-3.9l-.83.16-.81-.4c-1.14-2.48-3.55-1.82-4.47.12-.82.4-2,0-2.67.85a2.24,2.24,0,0,0-.5,1.77c.08.62.58,1.07.65,1.71a3.16,3.16,0,0,1-.44.88,2.11,2.11,0,0,0,2,3.16l.27,0c.91.25,1.21,1,1.66,1.62a3,3,0,0,1,1,.47l1.69-.46c.5-.43.43-1.12.91-1.58h1.21a1.65,1.65,0,0,0,1.81-1.73,2.33,2.33,0,0,0-.37-1.82c-.16-.19-.15-.51-.23-.81"/></g><g id="Decoration-6"><path id="Fill-7" class="cls-5" d="M100.47,42c1.07-1.17.48-2.26-.69-2.83l-.6.12L98.59,39c-.83-1.81-2.57-1.33-3.24.08-.6.29-1.43,0-1.94.62A1.59,1.59,0,0,0,93,41c.06.45.43.78.47,1.24a2.23,2.23,0,0,1-.31.64,1.52,1.52,0,0,0,1.48,2.29l.19,0c.66.18.89.71,1.21,1.18a2.41,2.41,0,0,1,.75.33l1.23-.33c.35-.31.31-.81.66-1.14h.88a1.19,1.19,0,0,0,1.31-1.25,1.68,1.68,0,0,0-.27-1.32,1.87,1.87,0,0,1-.17-.59"/></g><g id="Decoration-7"><path id="Sparkle-1" class="cls-6" d="M7,42.31a.37.37,0,0,1-.17.36,1.7,1.7,0,0,1-.48.31c-.79.17-1,.81-1.35,1.41s-.71.62-1,0a3.06,3.06,0,0,0-1.68-1.65.47.47,0,0,1,0-.91A2.92,2.92,0,0,0,4,40.23c.25-.55.72-.5,1,.05s.6,1.23,1.38,1.44a.87.87,0,0,1,.63.59"/></g><g id="Decoration-8"><path id="Stroke-35" class="cls-7" d="M53.77,48.13a1,1,0,0,1,0,1.2l-.07.08L49.9,53.57a.81.81,0,0,1-1.21,0,1,1,0,0,1-.08-1.21l.07-.09L52,48.74l-3.5-4.07a1,1,0,0,1-.07-1.16l.07-.09,3.32-3.84-3.55-4.29a1,1,0,0,1,0-1.2l.07-.09,3.86-3.91a.82.82,0,0,1,1.21,0,1,1,0,0,1,0,1.22l-.08.09-3.25,3.29L53.56,39a1,1,0,0,1,.06,1.15l-.07.09-3.3,3.83Z"/></g><g id="Decoration-9"><path id="Sparkle-1-2" data-name="Sparkle-1" class="cls-6" d="M53,95.31a.37.37,0,0,1-.17.36,1.7,1.7,0,0,1-.48.31c-.79.17-1,.81-1.35,1.41s-.71.62-1,0a3.06,3.06,0,0,0-1.68-1.65.47.47,0,0,1,0-.91A2.92,2.92,0,0,0,50,93.23c.25-.55.72-.5,1,0s.6,1.23,1.38,1.44a.87.87,0,0,1,.63.59"/></g><g id="Decoration-10"><path id="Sparkle-1-3" data-name="Sparkle-1" class="cls-6" d="M146,81.28a.68.68,0,0,1-.31.66,3.12,3.12,0,0,1-.86.55c-1.42.3-1.86,1.46-2.42,2.54s-1.28,1.12-1.79.09a5.47,5.47,0,0,0-3-3,.85.85,0,0,1,0-1.63,5.27,5.27,0,0,0,3-3c.45-1,1.28-.9,1.74.09.54,1.15,1.08,2.22,2.49,2.6a1.54,1.54,0,0,1,1.13,1"/></g></g></g><g id="Window"><g id="Window_Checkmark_3" data-name="Window/Checkmark 3"><g class="cls-8"><path id="Fill-141" class="cls-9" d="M180.6,41.65H152.44l-9,9.63V41.65h-2.53a10.81,10.81,0,0,1-10.8-10.8v-20A10.81,10.81,0,0,1,140.88,0H180.6a10.8,10.8,0,0,1,10.8,10.8V30.85a10.8,10.8,0,0,1-10.8,10.8"/></g><g class="cls-8"><path id="Fill-144" class="cls-10" d="M176,20.91A15.29,15.29,0,1,1,160.74,5.62,15.28,15.28,0,0,1,176,20.91"/></g></g></g><g id="Pet"><g id="Pet_Black_Cat" data-name="Pet/Black Cat"><g id="Cat-1"><path id="Fill-36" class="cls-11" d="M170.45,180.09l.15,1.1a2.58,2.58,0,0,1-.07,1.38c-.32.71-1.17,1-1.82,1.38a.91.91,0,0,0-.29.26.64.64,0,0,0,.23.77,1.84,1.84,0,0,0,.83.26,20.43,20.43,0,0,0,3.57.48,15.08,15.08,0,0,0,4.23-.5,10,10,0,0,1,2.63-.48c.4,0,.8.1,1.2.11a3.14,3.14,0,0,0,2.25-.93,3.11,3.11,0,0,0,.88-2.27c-.05-1.43-1.07-2.64-1.47-4a11.13,11.13,0,0,1-.08-4,6.65,6.65,0,0,0-.6-4,3.67,3.67,0,0,0-1.89-1.56,7.64,7.64,0,0,0-2.48-.3c-2.76,0-5.64-.15-8.16,1a1.45,1.45,0,0,0-.77.64c-.32.75.16,1.89.3,2.63.2,1,.39,2.05.57,3.07.28,1.65.55,3.31.79,5"/><path id="Fill-37" class="cls-12" d="M169.16,151.54a3.42,3.42,0,0,0,2.47-.26.59.59,0,0,0,.31-.51c0-.29-.14-.41-.4-.26a3,3,0,0,1-2.2.21,1.69,1.69,0,0,1-.94-.54c-.2-.21-.37-.45-.56-.66a.4.4,0,0,0-.51-.14c-.22.12-.21.32-.13.54a2.68,2.68,0,0,0,2,1.62"/><path id="Fill-38" class="cls-13" d="M168.92,145.81c-.53-.15-.68-.38-.42-.86s.7-1.25,1.06-1.88c.1-.18.2-.36.47-.31s.28.26.32.46a22.9,22.9,0,0,1,.27,2.32c.06.51.09.5-.24.52a4,4,0,0,1-1.46-.25"/><path id="Fill-39" class="cls-13" d="M172.51,155.24a2.15,2.15,0,0,0,1.11-.64c.07,0,0-.13,0-.19a.19.19,0,0,0-.23,0,2.31,2.31,0,0,0-.35.18.86.86,0,0,1-1.13-.18l-.51-.45a.35.35,0,0,0-.42-.1c-.14.09,0,.27,0,.39a2,2,0,0,0,1.51,1"/><path id="Fill-40" class="cls-13" d="M172,152.57c0,.07,0,.18.05.28a.46.46,0,0,0,.47.38.41.41,0,0,0,.36-.46c0-.24,0-.48,0-.71a.38.38,0,0,0-.33-.41c-.23,0-.31.13-.38.3a1.49,1.49,0,0,0-.15.62"/><path id="Fill-41" class="cls-14" d="M166.56,155.74Z"/><path id="Fill-42" class="cls-15" d="M189.82,171.61a21.29,21.29,0,0,0-7-8.89c-1-.72-2-1.51-3.08-2.2-.83-.53-1.88-1-2.3-1.91a7.1,7.1,0,0,1-.4-1.65,24,24,0,0,1-7.93.26c-.15,1-1.94,10.57-1,12.83.18.44.52.78.67,1.22l.06.08.3.33c.48.54,1.69.85,2.29,1.21,0,0,1.09,10.74.88,10.86a14,14,0,0,0-2.09,1,.67.67,0,0,0-.24.5c0,.33.35.42.62.44,2.69.18,5.39.1,8.08,0a37.61,37.61,0,0,0,7.28-.48,2.61,2.61,0,0,0,1.16-.48,31.5,31.5,0,0,0,7.4-19.1,40.89,40.89,0,0,0-.29-7.82c-.45-3.17-1.43-6.29-3.82-8.52a6,6,0,0,0-1.18-.89,1.76,1.76,0,0,0-2,0,2.45,2.45,0,0,0-.86,2.13,2.13,2.13,0,0,0,0,.25c-.09,1.36,2.25,6.31,2.66,7.84a58.51,58.51,0,0,1,1.73,9.55c.05.56.23,3.63-.9,3.48,0,0,0,0-.07-.11"/><path id="Fill-43" class="cls-15" d="M167.33,149.38a.4.4,0,0,1,.51.14c.19.21.36.45.56.66a1.69,1.69,0,0,0,.94.54,3,3,0,0,0,2.2-.21c.26-.15.41,0,.4.26a.59.59,0,0,1-.31.51c-1.44.8-3.82.33-4.43-1.36-.08-.22-.09-.42.13-.54m3.64,4.44a.36.36,0,0,1,.42.09l.51.46a.86.86,0,0,0,1.13.18,2.31,2.31,0,0,1,.35-.18.19.19,0,0,1,.23,0c0,.06.08.14,0,.2a2.2,2.2,0,0,1-1.11.63,2,2,0,0,1-1.51-1c-.07-.12-.17-.3,0-.39m6.94-7.09a12,12,0,0,1-1.48-.31c-.31-.09-.36-.26-.27-.58.23-.81.77-1.48,1.05-2.28,0-.13.13-.3.31-.29a.36.36,0,0,1,.34.28,14.08,14.08,0,0,1,.89,2.34c.17.77.12.82-.84.84m-5,6a.41.41,0,0,1-.36.46.46.46,0,0,1-.47-.38c0-.1,0-.21-.05-.28a1.49,1.49,0,0,1,.15-.62c.07-.17.15-.33.38-.3a.37.37,0,0,1,.33.41c0,.23,0,.47,0,.71m-2.48-6.71a4,4,0,0,1-1.46-.25c-.53-.15-.68-.38-.42-.86s.7-1.25,1.06-1.88c.1-.18.2-.36.47-.31s.28.26.32.46a22.9,22.9,0,0,1,.27,2.32c.06.51.09.5-.24.52m-4.63,8.2a7.37,7.37,0,0,0,1.57,2.37c1.1,1.14,3.16,1.16,4.62,1.4a11.78,11.78,0,0,0,5.18-.26,3.77,3.77,0,0,0,2-1.1,5.65,5.65,0,0,0,1-1.74,9.71,9.71,0,0,0,.15-5.65c-.17-.68-.73-3.72-1-4.53-.41-1.32-.83-2.64-1.33-3.93-.06-.16-.11-.35-.31-.35s-.23.19-.29.33c-.8,1.72-1.59,3.45-2.39,5.17-.26.56-.33,1-1,1a4.43,4.43,0,0,1-1.86-.45c-.45-.22-.45-.43-.51-.94v0c-.2-1.76-.39-3.53-.59-5.29,0-.14,0-.33-.13-.38s-.3.07-.4.19c-.49.63-3.95,4.95-5,9.47a8.85,8.85,0,0,0,.07,4,5.83,5.83,0,0,0,.22.71"/><path id="Fill-44" class="cls-13" d="M178.75,145.89a14.08,14.08,0,0,0-.89-2.34.36.36,0,0,0-.34-.28c-.19,0-.27.16-.32.29-.27.8-.81,1.47-1,2.28-.09.32,0,.49.27.58a12,12,0,0,0,1.48.31c1,0,1-.07.84-.84"/><path id="Fill-45" class="cls-13" d="M168.51,158.74a9.2,9.2,0,0,0,3.16.62c.53,0,1.05.08,1.58.11s.6-.12.54-.55c0-.25-.21-.27-.39-.29-.7-.07-1.41-.12-2.11-.21a27.12,27.12,0,0,1-2.68-.56h-.1c0,.28-.21.55,0,.84t0,0"/><path id="Fill-46" class="cls-13" d="M177.6,159a2.59,2.59,0,0,0,.14-.29c.1-.26,0-.46-.31-.44a8.27,8.27,0,0,0-1.31.19c-.37.09-.27.39-.25.62s.25.16.4.14c.42-.05.84-.12,1.26-.19l.07,0"/><path id="Fill-47" class="cls-13" d="M174.74,159.18c.19,0,.42,0,.42-.26s-.22-.27-.42-.27-.38,0-.38.27.17.29.38.26"/><path id="Fill-48" class="cls-12" d="M176.66,152.61a3.45,3.45,0,0,1-2.34-.87.57.57,0,0,1-.17-.56c.06-.29.23-.37.45-.16a3,3,0,0,0,2.08.74,1.7,1.7,0,0,0,1-.3c.24-.15.46-.34.7-.5a.4.4,0,0,1,.53,0c.18.17.12.37,0,.55a2.74,2.74,0,0,1-2.3,1.11"/><path id="Stroke-49" class="cls-16" d="M179.47,170.93c-5.8,6.29,1,11.5,1.95,12-1.75-.58-7.71-.25-9.3.7"/><line id="Stroke-50" class="cls-17" x1="164" y1="150.36" x2="166.05" y2="151.67"/><line id="Stroke-51" class="cls-17" x1="164.19" y1="153.65" x2="165.89" y2="153.42"/><line id="Stroke-52" class="cls-17" x1="182.92" y1="151.97" x2="180.6" y2="152.72"/><line id="Stroke-53" class="cls-17" x1="181.92" y1="155.1" x2="180.32" y2="154.46"/><path id="Fill-54" class="cls-13" d="M167.59,154.82c1,.15,1.64-.14,1.85-.89a1.84,1.84,0,0,0-1.29-2.15,1.5,1.5,0,0,0-1.92.78,1.57,1.57,0,0,0,1.36,2.26"/><path id="Fill-55" class="cls-13" d="M177.44,156.24c1,.14,1.64-.15,1.85-.9a1.86,1.86,0,0,0-1.29-2.15,1.51,1.51,0,0,0-1.92.79,1.57,1.57,0,0,0,1.36,2.26"/></g></g></g><g id="Chairs"><g id="Chairs_Chair" data-name="Chairs/Chair"><g id="Chair"><path id="Fill-9" class="cls-18" d="M94.37,185.31a1.77,1.77,0,0,1-1.73-1.57L85.34,127H54.78l-7.19,56.78a1.75,1.75,0,0,1-2,1.57,1.81,1.81,0,0,1-1.51-2l7.39-58.37a1.78,1.78,0,0,1,1.73-1.58H86.87a1.78,1.78,0,0,1,1.73,1.58l7.5,58.36a1.81,1.81,0,0,1-1.5,2.05h-.23"/><g id="Group-3"><path id="Fill-1" class="cls-19" d="M116.37,185.31a1.77,1.77,0,0,1-1.73-1.57L107.34,127H76.78l-7.19,56.78a1.75,1.75,0,0,1-2,1.57,1.81,1.81,0,0,1-1.51-2l7.39-58.37a1.78,1.78,0,0,1,1.73-1.58h33.62a1.78,1.78,0,0,1,1.73,1.58l7.5,58.36a1.81,1.81,0,0,1-1.5,2.05h-.23"/></g><g id="Group-6"><path id="Fill-4" class="cls-20" d="M61.22,67.85h11c3.63,0,7.32,0,10.76,1.14s6.67,3.57,7.8,7c.84,2.58.43,5.3.6,8a68.25,68.25,0,0,0,1.36,7.32,89.2,89.2,0,0,0,4.35,15.81c1.48,3.93,3.34,7.88,6.53,10.59,2.17,1.83,5,3.22,5.94,5.93a1,1,0,0,1,0,1c-1.14,1.3-5.11,1.26-6.58,1.26l-26.25-.59a36.84,36.84,0,0,1-8.45-.85c-4.12-1.06-10.61-.66-14.13-3.06a14,14,0,0,1-3-2.44c-3.21-3.83-.62-11.36-.71-16.17-.16-7.92-.31-15.85.31-23.74a21,21,0,0,1,1.12-6,7.94,7.94,0,0,1,3.93-4.48,11.93,11.93,0,0,1,4.8-.66Z"/></g><path id="Fill-7-2" data-name="Fill-7" class="cls-18" d="M59.85,125c-6.48,0-13.42-3.55-14.42-10a121.66,121.66,0,0,1-1.29-24.47,29.79,29.79,0,0,1,11.3-22s4.09,17.81-1,42.4c-3,16.68,20.54,9.08,33.15,11.3,6.66,1.18,6.91,3.58,6.91,3.58Z"/></g></g></g><g id="Master_Character_Sitting" data-name="Master/Character/Sitting"><g id="Master_Character_Sitting-2" data-name="Master/Character/Sitting"><g id="Sitting"><g id="Sitting_Leggings_1" data-name="Sitting/Leggings 1"><polygon id="Fill-1-2" data-name="Fill-1" class="cls-21" points="140.82 167.19 140.75 164.79 140.61 159.84 132 159.84 132.73 164.79 133.07 167.11 134.07 173.84 141 173.84 140.82 167.19"/><polygon id="Fill-2" class="cls-21" points="123.75 164.79 123.61 159.84 115 159.84 115.73 164.79 116.07 167.11 117.07 173.84 124 173.84 123.82 167.19 123.75 164.79"/><g id="Group-27"><path id="Fill-3" class="cls-22" d="M131.32,161.59s-2.23-10.76-3-16.79-1.14-20.33-1.14-20.33-8.9,1.74-25,.8q-35.65-2.1-23.43-27.2c.73-.63,2.77-.67,6.14-.14,15.47,1.49,38.89,8.6,46.95,12.09a40.69,40.69,0,0,1,5.17,2.66c1.94,1.21,3.16,4.86,3.89,9.66,2.2,14.43,0,39.25,0,39.25Z"/><path id="Fill-5" class="cls-23" d="M130.63,133.63c-.4-7.52-.66-11.48-1.57-12.29s-3.06-.37-6.75.24c-6.16,1-15.47,2.58-25.68.19-5.46-1.27-9.46-3.92-11.89-7.86a19.19,19.19,0,0,1-2.63-8.41l-.7-.11a20,20,0,0,0,2.74,8.88c2.53,4.11,6.68,6.86,12.32,8.18,10.35,2.42,19.74.85,26-.18,3.13-.52,5.59-.94,6.19-.41s1,6.07,1.34,11.81c.37,6.92.84,15.54,2.23,22.46a.35.35,0,0,0,.34.28h.07a.36.36,0,0,0,.27-.41c-1.39-6.87-1.85-15.46-2.23-22.36"/><path id="Fill-7-3" data-name="Fill-7" class="cls-23" d="M141.15,156.59h0l-10.72-.23a.36.36,0,0,1-.34-.36.34.34,0,0,1,.35-.34l10.73.24a.33.33,0,0,1,.33.35.34.34,0,0,1-.34.34"/><path id="Fill-9-2" data-name="Fill-9" class="cls-22" d="M157.5,184.81H131.75a3.76,3.76,0,0,1-.34-1.44c-.16-2.19.53-5.68.88-7.88,0-.26.07-.5.1-.71a7.34,7.34,0,0,0,.08-.9c0-1.8,1.58-1.49,1.58-1.49,2.6,2.56,5.55-1.29,7.28,0l.23.17.66.55c.44.37,1.06.91,1.89,1.66,2,1.85,5.52,3.07,8.48,4.31q.57.24,1,.48l.7.35c2.42,1.32,3.19,2.57,3.37,3.48a2.08,2.08,0,0,1-.21,1.44"/><g id="Group-13"><g class="cls-24"><path id="Fill-11" class="cls-25" d="M157.49,184.81H131.75a3.63,3.63,0,0,1-.34-1.44h26.3a2,2,0,0,1-.22,1.44"/></g></g><path id="Fill-14-2" data-name="Fill-14" class="cls-22" d="M134.38,184.81h-.77a5.68,5.68,0,0,0,1.39-4.14,7.33,7.33,0,0,0-2.71-5.18c0-.26.07-.5.1-.71a7.93,7.93,0,0,1,3.22,5.86,6.31,6.31,0,0,1-1.23,4.17"/><path id="Fill-16" class="cls-26" d="M140.71,184.84H115a3.75,3.75,0,0,1-.34-1.43c-.16-2.19.54-5.69.88-7.89,0-.25.07-.49.1-.71a7.34,7.34,0,0,0,.08-.9c0-1.8,1.58-1.49,1.58-1.49,2.61,2.57,5.56-1.28,7.28,0l.23.18.67.55c.43.36,1,.9,1.88,1.65,2.05,1.85,5.52,3.07,8.48,4.31.38.16.73.32,1.06.48s.48.24.69.36c2.42,1.31,3.19,2.56,3.37,3.48a2,2,0,0,1-.21,1.43"/><path id="Fill-18" class="cls-27" d="M140.71,184.84H115a3.75,3.75,0,0,1-.34-1.43h26.3a2,2,0,0,1-.21,1.43"/><g id="Group-22"><g class="cls-28"><path id="Fill-20" class="cls-29" d="M114.53,161.62s-2.23-10.75-3-16.79-1.14-20.33-1.14-20.33a27.42,27.42,0,0,1-3.27.74c-3.67.66-36.38-1.08-37.63-1.08-12.51,0-5-26.51-5-26.51l14.28.42,1.71,2.52c15.47,1.49,26.53,6,34.59,9.46a39.42,39.42,0,0,1,5.17,2.67c1.94,1.2,3.16,4.85,3.89,9.65,2.2,14.43,0,39.25,0,39.25Z"/></g></g><path id="Fill-23" class="cls-23" d="M115.73,156.44a.34.34,0,0,1-.34-.28c-1.39-6.92-1.86-15.53-2.23-22.45-.31-5.74-.61-11.16-1.34-11.81s-3.06-.12-6.19.4c-6.21,1-15.6,2.6-25.95.18-5.64-1.32-9.78-4.07-12.32-8.18C63,107.21,65,98.42,65,98.33a.34.34,0,0,1,.41-.25.34.34,0,0,1,.26.41c0,.09-2,8.61,2.28,15.45,2.44,4,6.44,6.59,11.89,7.87,10.22,2.39,19.52.83,25.68-.19,3.69-.62,5.92-1,6.76-.24s1.16,4.77,1.57,12.29c.37,6.9.84,15.48,2.22,22.35a.35.35,0,0,1-.27.41h-.07"/><path id="Fill-25" class="cls-23" d="M124.36,156.62h0l-10.72-.23a.35.35,0,0,1-.34-.35.34.34,0,0,1,.35-.34l10.73.23a.33.33,0,0,1,.33.35.34.34,0,0,1-.34.34"/></g></g></g><g id="Head"><g id="Head_Short_with_Beanie" data-name="Head/Short with Beanie"><g id="Group-28"><g id="Group-3-2" data-name="Group-3"><g class="cls-30"><path id="Fill-1-3" data-name="Fill-1" class="cls-31" d="M69.24,32C69,24,68.2,14.21,77,13.28c2.68-.28,7.7-.26,10.83,4.54,0,0,6.48,1.21,7.33,6.36s-7.56,6.43-7.56,6.43c-.26,2.21-.75,5.5-2.43,7.11-2,1.89-2.59.87-5,.86a35.48,35.48,0,0,0-8,1.07c-1.14.25-2.49.46-3.36-.33A29.29,29.29,0,0,0,69.24,32"/></g></g><path id="Fill-9-3" data-name="Fill-9" class="cls-32" d="M75.51,24.74l-.05-.2c7-1.65,8.89-6.13,8.91-6.17l.19.08s-1.93,4.62-9,6.29"/><path id="Fill-11-2" data-name="Fill-11" class="cls-32" d="M74.2,22.76l0-.2a13.21,13.21,0,0,0,6.1-3.38l.15.14a13.28,13.28,0,0,1-6.21,3.44"/><path id="Fill-13" class="cls-31" d="M85.55,26.14c-.09,0-2.38-.21-3.73-.44L82,24.65c1.29.22,3.61.42,3.64.43Z"/><path id="Fill-3-2" data-name="Fill-3" class="cls-21" d="M81.89,42.71l-.2,7.66c-.07,2.7-1.76,4.1-4.41,4-2.27-.07-4.35-1.31-4.56-3.56l.9-12Z"/><path id="Fill-6" class="cls-33" d="M81.76,46.45c-5.36,0-8.77-7-8.77-7l8.94,2Z"/><path id="Fill-15" class="cls-21" d="M78.24,42.76h0c4.42.72,8.63-2.18,9.34-5.77l1.62-8.48c.89-4.5-1.39-8.8-5.85-9.83s-10.52,1.51-11.58,6.08L70.55,31.6c-1,5.28,2.46,9.95,7.69,11.16"/><g id="Group-19"><path id="Fill-17" class="cls-21" d="M66.39,32.1a3.48,3.48,0,1,0,4.18-2.61,3.48,3.48,0,0,0-4.18,2.61"/></g><path id="Fill-20-2" data-name="Fill-20" class="cls-33" d="M70.74,34.17s.57-2.46-1.87-2.62"/><path id="Fill-22" class="cls-34" d="M68.17,20.81s9.5-4.28,16.36-4.83l.54,0a12.18,12.18,0,0,1,2,0,8.19,8.19,0,0,0-6.23-4.27,10.49,10.49,0,0,0-1.75-.17,15.68,15.68,0,0,0-2.73.18l-.09,0c-.26,0-.52.08-.76.14a11.13,11.13,0,0,0-2,.61l-.47.2a8.8,8.8,0,0,0-2.71,1.89,7.06,7.06,0,0,0-.63.72,7.46,7.46,0,0,0-1.51,5.5"/><path id="Fill-24" class="cls-35" d="M87.86,17.82a25.16,25.16,0,0,0-18.67,6,3.1,3.1,0,0,1-1-3.15s8.21-8.09,18.9-5.27a2.39,2.39,0,0,1,.8,2.4"/><path id="Fill-26" class="cls-31" d="M86,24.45a11.5,11.5,0,0,0,.78,3.8l-3.64-.6a3.71,3.71,0,0,1-2.32-.95c-.91-1-.45-2.68-1-3.92A8.22,8.22,0,0,0,78,28.08a10.17,10.17,0,0,1-4.06-.3c-1.09-.24-2.34-.6-2.77-1.63a3.24,3.24,0,0,1,0-2c.7-2.75,2.15-5.55,4.73-6.72a9.33,9.33,0,0,1,6.34-.06c2.75.8,5.48,2.46,6.47,5.14a12.6,12.6,0,0,1,.51,2.12c.18,1.06,1.58,5.3-.6,3.88-1-.62-2.87-2.74-2.66-4"/></g></g></g><g id="Expression"><g id="Expression_Sad" data-name="Expression/Sad"><g id="Group-33"><polygon id="Fill-1-4" data-name="Fill-1" class="cls-36" points="81.03 33.3 81.06 33.31 81.06 33.28 81.03 33.3"/><g id="Group-32"><path id="Fill-6-2" data-name="Fill-6" class="cls-31" d="M74.18,32.34,74,32.22l.15.12m-.55-.24a2.71,2.71,0,0,0,2,1.33,3.18,3.18,0,0,0,1.94-.35A2.5,2.5,0,0,0,78.63,32a.37.37,0,0,0-.17-.48.33.33,0,0,0-.48.1,2.7,2.7,0,0,1-1.86,1.15,2.46,2.46,0,0,1-1.82-1.15c-.15-.2-.71.11-.71.32a.38.38,0,0,0,0,.17"/><path id="Fill-8" class="cls-31" d="M86.59,32.73l-.16.11.16-.11m.36-.29c-.07-.25-.38-.53-.56-.35a5.44,5.44,0,0,1-1,.76L85,33l-.84,0a2.76,2.76,0,0,1-1.46-1.23.31.31,0,0,0-.46-.15.35.35,0,0,0-.22.45,2.72,2.72,0,0,0,2.68,1.64,3.79,3.79,0,0,0,2-.73.72.72,0,0,0,.26-.26.34.34,0,0,0,0-.2"/><g id="Group-12"><g class="cls-37"><path id="Fill-10" class="cls-31" d="M78.27,39.58c.15-.1.34-.33.44-.4a4,4,0,0,1,1.46-.78,3.23,3.23,0,0,1,1.24-.07,3.12,3.12,0,0,1,.59.13,2,2,0,0,0,.49.15.3.3,0,0,0,.2-.08,1,1,0,0,0,.13-.22.58.58,0,0,0-.15-.39,2.32,2.32,0,0,0-.74-.15c-.27,0-.54-.06-.81-.08a3.41,3.41,0,0,0-.55,0,4,4,0,0,0-1.52.42,4.17,4.17,0,0,0-.6.4l-.3.23c-.07.06-.24.17-.27.26a1.19,1.19,0,0,0-.08.2.93.93,0,0,0,.12.27.28.28,0,0,0,.2.18.21.21,0,0,0,.15-.05"/></g></g><path id="Fill-13-2" data-name="Fill-13" class="cls-33" d="M81.44,33.94l.29.4c.11.17.21.35.31.53,0,0,0,0,0,0s0,0,0,0l0,0s0,0,0,.07,0,0,0,0V35s0-.08,0,0,0-.07,0,0l0,0s0,0,0,0L82,35.1s-.09.07,0,0l-.17.1-.08,0-.06,0-.18.07a.29.29,0,1,0,.15.56,1.91,1.91,0,0,0,.83-.47.68.68,0,0,0,.21-.42.78.78,0,0,0,0-.3,4.5,4.5,0,0,0-.67-1.11.29.29,0,1,0-.5.3"/><path id="Fill-15-2" data-name="Fill-15" class="cls-38" d="M77.35,36.51a1.91,1.91,0,0,1-1.11.72,2.66,2.66,0,0,1-1.53-.12,2,2,0,0,1-.86-.54,2.22,2.22,0,0,1-.28-1.8,1.25,1.25,0,0,1,.56-.81,1.94,1.94,0,0,1,1.38-.18,4.31,4.31,0,0,1,1.22.37,1.67,1.67,0,0,1,.72,2.18,1,1,0,0,1-.1.18"/><path id="Fill-17-2" data-name="Fill-17" class="cls-39" d="M74.25,35.86a.3.3,0,0,1-.15,0,.25.25,0,0,1,0-.35l.65-.9a.25.25,0,0,1,.41.3l-.66.89a.24.24,0,0,1-.2.11"/><path id="Fill-19" class="cls-39" d="M76.15,36.61h0a.26.26,0,0,1-.24-.27L76,35.23a.25.25,0,1,1,.49,0l-.06,1.11a.25.25,0,0,1-.25.24"/><path id="Fill-21" class="cls-39" d="M75,36.33a.27.27,0,0,1-.12,0,.24.24,0,0,1-.1-.34l.58-1.13a.25.25,0,0,1,.33-.11.25.25,0,0,1,.11.34l-.58,1.13a.24.24,0,0,1-.22.14"/><g id="Group-25"><g class="cls-40"><path id="Fill-23-2" data-name="Fill-23" class="cls-38" d="M84.05,36.64a1.63,1.63,0,0,0,.93.6,2.24,2.24,0,0,0,1.28-.1,1.7,1.7,0,0,0,.71-.45,1.82,1.82,0,0,0,.24-1.51,1,1,0,0,0-.47-.68,1.65,1.65,0,0,0-1.15-.15,3.26,3.26,0,0,0-1,.31A1.4,1.4,0,0,0,84,36.49a.6.6,0,0,0,.09.15"/></g></g><path id="Fill-26-2" data-name="Fill-26" class="cls-39" d="M86.64,36.13a.23.23,0,0,1-.2-.1l-.55-.75a.25.25,0,0,1,0-.35.24.24,0,0,1,.35,0l.55.75a.25.25,0,0,1,0,.35.3.3,0,0,1-.15.05"/><path id="Fill-28" class="cls-39" d="M85.05,36.76a.24.24,0,0,1-.25-.24l0-.93a.25.25,0,0,1,.49,0l.06.94a.26.26,0,0,1-.24.26Z"/><path id="Fill-30" class="cls-39" d="M86,36.52a.25.25,0,0,1-.22-.13l-.49-1a.24.24,0,0,1,.11-.33.24.24,0,0,1,.33.1l.49.95a.26.26,0,0,1-.11.34.2.2,0,0,1-.11,0"/></g></g><path id="Fill-3-3" data-name="Fill-3" class="cls-41" d="M77.27,29.49a.87.87,0,0,0-.54-1.64,3.07,3.07,0,0,0-2.29,1.27c-.76,1.46,1.84.82,2.8.39l0,0"/><path id="Fill-5-2" data-name="Fill-5" class="cls-41" d="M83.69,29.74a.73.73,0,0,1,.37-1.39,2.54,2.54,0,0,1,2,.95c.71,1.18-1.5.77-2.33.45h0"/></g></g><g id="Upper"><g id="Upper_Cheers_2" data-name="Upper/Cheers 2"><g id="Group-67"><g id="Group-3-3" data-name="Group-3"><g class="cls-42"><path id="Fill-1-5" data-name="Fill-1" class="cls-21" d="M121.71,44.07c.74,1.58.43,6.59.65,8a8,8,0,0,1-.5,4.08,3.38,3.38,0,0,0-.2,2.11l-4.57.59s-1-.18-2.59-3.21-4.15-8.16-3.48-8.84,3.37,2.34,3.92,3l0,.07s.05,0,.06-.06c.1-.84-1.2-8.65-.27-9a3.7,3.7,0,0,1,1.66.2l.16.05a16.15,16.15,0,0,1,1.78.64l.16.07a13.05,13.05,0,0,1,1.71.88l.15.1a3.51,3.51,0,0,1,1.31,1.25"/></g></g><path id="Fill-4-2" data-name="Fill-4" class="cls-43" d="M118.42,53.2h0a.07.07,0,0,1-.1,0A18.26,18.26,0,0,0,115,50a.08.08,0,0,1,0-.11.09.09,0,0,1,.11,0,18.43,18.43,0,0,1,3.39,3.25.08.08,0,0,1,0,.11"/><path id="Fill-6-3" data-name="Fill-6" class="cls-43" d="M116.6,41.13,117,48.6a.06.06,0,0,1,0,.06s0,0,0,0a.07.07,0,0,1-.07-.07l-.39-7.53.16.05"/><path id="Fill-8-2" data-name="Fill-8" class="cls-43" d="M118.54,41.84l.16,6.48a.11.11,0,0,1,0,.07h0a.07.07,0,0,1-.08-.07l-.17-6.56.16.07"/><path id="Fill-10-2" data-name="Fill-10" class="cls-43" d="M120.4,42.82l.16,5.7a.16.16,0,0,1,0,.06l0,0a.08.08,0,0,1-.08-.07l-.15-5.81.15.1"/><path id="Fill-12" class="cls-44" d="M112.7,62.4s6.52,1.44,11,5.76l-8.41-2Z"/><path id="Fill-14-3" data-name="Fill-14" class="cls-21" d="M121,70.12c1.13-.24,1.05-.44,1-1.7l-.42-5.89c-.17-2.32.71-8.17-2.51-8.69-3.51-.57-3.56,6.44-4.13,8.87l-.72,3.06a10.69,10.69,0,0,0-.7,2.93c.18,1.47,2.73,1.77,4,1.8a15,15,0,0,0,3.34-.34l.22,0"/><path id="Fill-16-2" data-name="Fill-16" class="cls-21" d="M92.17,73.83l-1.84,25a52.52,52.52,0,0,1-11.61,1A110.25,110.25,0,0,1,64.8,99a1,1,0,0,1-.87-1l.24-24.12h28Z"/><path id="Fill-18-2" data-name="Fill-18" class="cls-13" d="M73.54,44.13,70.63,45,72,88.55s17.24-.31,17.24,0c0,.14,1.8-19.28.12-26.64a129.24,129.24,0,0,0-5.26-16.64L82.27,45c-.38,2.27-4.87,4.81-8.73-.86"/><path id="Fill-20-3" data-name="Fill-20" class="cls-10" d="M90.06,66.27c0,.36.08.72.11,1.08H72.28l-.08-1.08Z"/><path id="Fill-22-2" data-name="Fill-22" class="cls-10" d="M89.08,60.86l.24,1v0H71.88l-.08-1.09Z"/><path id="Fill-24-2" data-name="Fill-24" class="cls-10" d="M72.6,71.67H90.39v1.08H72.68Z"/><path id="Fill-26-3" data-name="Fill-26" class="cls-10" d="M85.74,50.06c.13.34.26.71.39,1.08h-15L71,50.06Z"/><path id="Fill-28-2" data-name="Fill-28" class="cls-10" d="M87.57,55.46l.33,1.08H71.48l-.08-1.08Z"/><path id="Fill-30-2" data-name="Fill-30" class="cls-10" d="M90.15,77.07c0,.37.08.73.11,1.09H72.37l-.08-1.09Z"/><path id="Fill-32" class="cls-10" d="M72.69,82.48H90.48v1.08H72.77Z"/><path id="Fill-34" class="cls-10" d="M72.69,85.48H90.48v1.08H72.77Z"/><line id="Stroke-36" class="cls-45" x1="72.92" y1="90.29" x2="72.92" y2="94.2"/><line id="Stroke-38" class="cls-45" x1="71.36" y1="90.29" x2="71.36" y2="94.2"/><path id="Fill-40-2" data-name="Fill-40" class="cls-22" d="M72.91,44.32S64.78,46.49,61.6,49.2,51.33,67.88,48.76,74.62c-3.69,9.64-5.68,24.61,7.43,22.31S71.4,94,71.4,94V87.4l4.87-2.1L77,64.89Z"/><path id="Fill-42-2" data-name="Fill-42" class="cls-44" d="M73.82,80.3s2.12,6.33.72,12.41l-2.6-8.24Z"/><path id="Fill-44-2" data-name="Fill-44" class="cls-22" d="M82.39,45c7.72.76,11.16,6.69,13.85,10.07S109,71.65,109,71.65l0,.25.76.85s1.4-3.6,3.61-9.14l9.4,4.43c-.67,4.26-1.41,9-1.76,11.2-.7,4.6-2.57,14.06-10.63,14.06C108.31,93.3,93.25,78,93.25,78l.07,13.39H86.13l.52-26.59Z"/><path id="Fill-46-2" data-name="Fill-46" class="cls-46" d="M99.23,69.65,99,86.21c0,.31-2.18.63-4.86.72s-4.87-.08-4.89-.39L87.89,70Z"/><path id="Fill-48-2" data-name="Fill-48" class="cls-47" d="M89.37,73.05c.76-.16.59.12,1.75-.16s1.53.13,2.4,0,1.41.19,2.26.06,1.27.17,1.9,0a2.66,2.66,0,0,1,.88-.07L98.4,85.28c0,.28-1.93.56-4.29.64s-4.3-.07-4.32-.34l-1-12.45a5.44,5.44,0,0,0,.6-.08"/><path id="Fill-50" class="cls-48" d="M91.12,72.89c1.16-.28,1.53.13,2.4,0s1.41.19,2.26.06,1.27.17,1.9,0a2.66,2.66,0,0,1,.88-.07l0,2.77a3.5,3.5,0,0,0-.81.06,6.35,6.35,0,0,1-2.22.21,8.91,8.91,0,0,0-2.25.14c-.53,0-1.09-.12-1.67-.06s-1,.17-1.43.16l-1.14,0-.24-2.94a3.78,3.78,0,0,0,.6-.08c.76-.16.59.12,1.75-.16"/><path id="Fill-52" class="cls-46" d="M90.71,79.11a.63.63,0,0,0,.64.6.62.62,0,1,0-.64-.6"/><path id="Fill-54-2" data-name="Fill-54" class="cls-46" d="M92.35,80.45a.19.19,0,0,0,.19.19.2.2,0,0,0,.19-.2.19.19,0,0,0-.2-.18.18.18,0,0,0-.18.19"/><path id="Fill-56" class="cls-46" d="M94.18,81.77A.89.89,0,1,0,96,81.71a.89.89,0,0,0-1.78.06"/><path id="Fill-58" class="cls-46" d="M93,83.74a.34.34,0,1,0,.67,0,.34.34,0,1,0-.67,0"/><path id="Fill-60" class="cls-21" d="M70.23,82.47c0-1.12.2-1.08,1.41-1.25l5.65-.79,6.2-.88s5.3-3.89,7.43-4.29,5.7-.65,5.7,0-5,1.62-5,1.62a27.68,27.68,0,0,1,4,0c.45,0,1.55,0,1.86.45.55.8-.71,3.38-1.31,4a2.79,2.79,0,0,1-1.91.43c-.24,0-1.21-.18-1.4,0,0,0-4.54,3.4-8.1,2.11l-6.24,3L75.72,88a10.34,10.34,0,0,1-2.62,1.26c-1.43.13-2.23-2.22-2.51-3.38a15.06,15.06,0,0,1-.36-3.22v-.22"/><path id="Fill-62" class="cls-49" d="M70.63,91.31l-2.48.27a44.92,44.92,0,0,1,.42-9.49,1.17,1.17,0,0,1,.94-1l4.31-.81a65.61,65.61,0,0,0,.72,12.41A1.12,1.12,0,0,1,73.67,94l-3.91.85a1.08,1.08,0,0,1-1.3-.85c-.1-.53-.18-1.08-.24-1.64Z"/><g id="Group-66"><g class="cls-50"><path id="Fill-64" class="cls-49" d="M120.5,70.8l-1,2.27a46.29,46.29,0,0,1-7.92-5.24,1.17,1.17,0,0,1-.36-1.31l1.52-4.12a65.33,65.33,0,0,0,11,5.76,1.13,1.13,0,0,1,.64,1.4l-1.28,3.79a1.07,1.07,0,0,1-1.39.68c-.51-.18-1-.4-1.54-.63Z"/></g></g></g></g></g></g></g><g id="Desk"><g id="Plant"><path id="Fill-185" class="cls-27" d="M43.2,99.75c-.1-1.19-.21-2.89-.27-4.08-.11-2-.19-4-.27-6,0-.7.21-.93.91-1a21.77,21.77,0,0,1,2.56-.27c.53,0,1-.15,1.59-.16a1.78,1.78,0,0,1,.83.11,1,1,0,0,1,0,.55A21.82,21.82,0,0,0,45,89c-.23,0-.56,0-.6.26s.34.23.52.35a.53.53,0,0,0,.19,0,19.6,19.6,0,0,0,5,.38,31.26,31.26,0,0,0,3.6-.54c.2,0,.49-.1.47-.36s-.35-.26-.57-.26H49.32a.52.52,0,0,1,0-.5,7.47,7.47,0,0,1,2.54,0l2.24.14c2.5.11.91,10.4.84,11.21Z"/><path id="Fill-187" class="cls-34" d="M48.53,88.88a1.22,1.22,0,0,1,0,.63c0,.27.14.37.38.39s.39-.13.39-.38,0-.42,0-.64h4.31c.22,0,.54-.07.57.26s-.27.32-.47.36a31.26,31.26,0,0,1-3.6.54,19.6,19.6,0,0,1-5-.38.53.53,0,0,1-.19,0c-.18-.12-.57,0-.52-.35s.37-.22.6-.26a21.82,21.82,0,0,1,3.52-.14"/><path id="Fill-189" class="cls-51" d="M49.25,83.85a4.39,4.39,0,0,0-.66,1.42l0,0a2.37,2.37,0,0,1-.52-2.09.3.3,0,0,1,.21-.29c.73-.27,1-.93,1.42-1.52.13-.2.35-.47.09-.69s-.53,0-.77.12-.43.52-.77.66c-.12-1-.06-1.14.75-1.58A3.3,3.3,0,0,0,50.13,79a.52.52,0,0,0,.07-.6c-.12-.21-.32-.17-.51-.19-.37,0-.59.31-1,.36a3.28,3.28,0,0,1,.62-1.64,6.06,6.06,0,0,0,.75-1.56c.07-.22.1-.49-.18-.62s-.39.11-.52.27a5.83,5.83,0,0,0-.86,1.75,1.61,1.61,0,0,1-.33-.65c-.14-.32-.28-.63-.44-.93s-.26-.32-.48-.21-.16.29-.1.45a3.44,3.44,0,0,0,.48,1.26c.74.84.51,1.71.13,2.73A4.25,4.25,0,0,0,47,78.18a.5.5,0,0,0-.53-.14c-.22.08-.22.33-.17.5a2,2,0,0,0,.53,1.13c.33.27.75.57.78,1.06,0,.86-.22,1.71-.11,2.59-.28-.22-.45-.48-.68-.66a1.46,1.46,0,0,1-.56-1.41,4.25,4.25,0,0,0-.15-1.66c-.08-.28-.16-.63-.57-.57s-.47.38-.44.73.1,1,.16,1.52a.89.89,0,0,1-.75-1.07,3.17,3.17,0,0,0-.36-1.74.46.46,0,0,0-.52-.29c-.25,0-.24.27-.26.46a7.18,7.18,0,0,0,.07,1.85c-.38.12-1.58-.53-1.74.16-.06.28.17.37.35.48a2.83,2.83,0,0,0,1.32.16c.33,0,.71.12.82.39s-.28.34-.48.47-.33.23-.27.46a.43.43,0,0,0,.41.27,3.14,3.14,0,0,0,1.46-.08.69.69,0,0,1,.81.2,8.12,8.12,0,0,1,2,3.77l-.14.16c-.51-.28-.81-.83-1.33-1.08-.27-.13-.6-.29-.83,0s.08.52.25.71A5.9,5.9,0,0,0,48.24,88c.5.17.25.58.29.9a1.22,1.22,0,0,1,0,.63c0,.27.14.37.38.39a.33.33,0,0,0,.39-.38c0-.21,0-.43,0-.64a.52.52,0,0,1,0-.5,2.57,2.57,0,0,0-.15-.81,4.26,4.26,0,0,1-.07-.94,4.16,4.16,0,0,1,.76-1.72c.14-.24.48-.83.37-1.12-.18-.44-.75-.21-.94.06"/><path id="Fill-191" class="cls-4" d="M47.21,95.48s-.37-.31-.41-.39a.7.7,0,0,1-.1-.47.84.84,0,0,1,.71-.75c.49-.15.34-.87.86-1.09a1.08,1.08,0,0,1,1.18.37c.36.06.75-.23,1.12,0a.9.9,0,0,1,.39.62c0,.25-.1.47-.05.73a1.14,1.14,0,0,0,.26.28.84.84,0,0,1-.42,1.44l-.11,0c-.3,0-.42.72-.65.9a1.09,1.09,0,0,1-.5.23c-.46.06-.53-.35-.87-.51l-.46.13a.66.66,0,0,1-.89-.46.93.93,0,0,1-.06-.73,1,1,0,0,0,0-.34"/><path id="Fill-193" class="cls-10" d="M49.6,95.24a.54.54,0,1,1-.54-.54.54.54,0,0,1,.54.54"/></g><path id="Fill-167" class="cls-29" d="M133.25,99.32H83.38a.21.21,0,0,1-.21-.21A2.81,2.81,0,0,1,86,96.31h47.27a.2.2,0,0,1,.2.2v2.6a.2.2,0,0,1-.2.21"/><path id="Fill-169" class="cls-22" d="M149.91,71.76l-6.23,26.33a1.55,1.55,0,0,1-1.51,1.19H103.82a1.55,1.55,0,0,1-1.52-1.91L108.53,71a1.56,1.56,0,0,1,1.51-1.2h38.35a1.56,1.56,0,0,1,1.52,1.92"/><path id="Fill-171" class="cls-27" d="M142.73,96.63h-34.3a.28.28,0,0,1-.28-.28.27.27,0,0,1,.28-.28h34.3a.28.28,0,0,1,.28.28.29.29,0,0,1-.28.28"/><path id="Fill-173" class="cls-27" d="M124.52,84.83c0,2,3.34,4.39,3.34,4.39s3.83-2.44,4.3-4.39c.5-2.11-1.91-2.76-3.7-1.17-1.43-1.59-4-.94-3.94,1.17"/><path id="Fill-175" class="cls-29" d="M111.56,69.84l-6.63,29.44h-1.11a1.55,1.55,0,0,1-1.52-1.91L108.53,71a1.56,1.56,0,0,1,1.51-1.2Z"/><path id="Fill-177" class="cls-23" d="M146.87,101.4v2c0,1.16-.71,2.11-1.58,2.11H35.78c-.87,0-1.57-1-1.57-2.11v-2c0-1.17.7-2.11,1.57-2.11H145.29c.87,0,1.58.94,1.58,2.11"/><path id="Fill-179" class="cls-52" d="M139.18,110.75H45a5.25,5.25,0,0,1-5.24-5.24H144.41a5.24,5.24,0,0,1-5.23,5.24"/><polygon id="Fill-181" class="cls-23" points="40.26 184.64 58.08 110.75 51.82 110.75 34 184.64 40.26 184.64"/><polygon id="Fill-183" class="cls-23" points="145.47 184.64 127.65 110.75 133.91 110.75 151.73 184.64 145.47 184.64"/></g></g><path class="cls-7" d="M160.92,5.92a15,15,0,1,0,15,15A15,15,0,0,0,160.92,5.92Zm0,27.5a12.5,12.5,0,1,1,12.5-12.5A12.5,12.5,0,0,1,160.92,33.42Z"/><path class="cls-7" d="M166.23,15.62a1.25,1.25,0,0,0-1.77,0l-3.54,3.53-3.53-3.53a1.25,1.25,0,1,0-1.8,1.73l0,0,3.54,3.54-3.54,3.54a1.24,1.24,0,0,0,0,1.76,1.29,1.29,0,0,0,1.77,0l3.53-3.53,3.54,3.53a1.25,1.25,0,1,0,1.77-1.76l-3.54-3.54,3.54-3.54A1.26,1.26,0,0,0,166.23,15.62Z"/><text class="cls-53"/></g></g></svg>