<svg xmlns="http://www.w3.org/2000/svg" width="332.322" height="258.935" viewBox="0 0 332.322 258.935">
  <g id="Master_Scenes_Teamwork" data-name="Master/Scenes/Teamwork" transform="translate(-39 -78.935)">
    <g id="Window" transform="translate(52 78)">
      <g id="Group-48" transform="translate(181 11.078)">
        <path id="Fill-40" d="M6.069.731.527,2.835A.071.071,0,0,1,.465,2.83.1.1,0,0,1,.436,2.8.073.073,0,0,1,.475,2.7L6.081.571a.974.974,0,0,1-.012.16" fill="#cdd6f2" fill-rule="evenodd"/>
        <path id="Fill-42" d="M5.788,2.635.919,4.494a.1.1,0,0,1-.064-.005A.071.071,0,0,1,.826,4.45a.065.065,0,0,1,.041-.087L5.828,2.474c-.016.058-.027.109-.04.162" fill="#cdd6f2" fill-rule="evenodd"/>
      </g>
      <g id="Group-94" transform="translate(84 27.078)">
        <g id="Group-78" transform="translate(16 12)">
          <path id="Fill-76" d="M19.8,4.625a3.91,3.91,0,0,0-3.07-1.482,5.437,5.437,0,0,0-3.7.97c-1.18.725-1.892,1.163-4.453-1.321C5.824.116,3.186-.14,1.9.756.94,1.427.665,2.663,1.121,4.142c.147.067.291.133.44.2-.539-1.46-.344-2.672.544-3.292a3.549,3.549,0,0,1,3.367.014A9.478,9.478,0,0,1,8.337,3.048c2.631,2.55,3.527,2.2,4.887,1.367A5.064,5.064,0,0,1,16.7,3.5a3.577,3.577,0,0,1,2.807,1.327,3.706,3.706,0,0,1,.462,2.648c.123-.014.245-.031.368-.047a3.959,3.959,0,0,0-.538-2.8" fill="#f376da" fill-rule="evenodd"/>
        </g>
        <g id="Group-81" transform="translate(0 1)">
          <path id="Fill-79" d="M6.8,8.63a2.781,2.781,0,0,1-3.218.614C1.283,8.087,1.1,5.912,1.353,4.289,1.727,1.869,2.437.741,3.8.4a4.385,4.385,0,0,1,2.868.848,1.806,1.806,0,0,1,.5,1.442A3.6,3.6,0,0,1,6.29,4.87c-.524.689-.794,1.164.242,2.21A1.115,1.115,0,0,1,6.8,8.63m-.013-1.8c-.872-.881-.665-1.151-.212-1.745a3.943,3.943,0,0,0,.944-2.372A2.137,2.137,0,0,0,6.918,1,4.7,4.7,0,0,0,3.765.051a.169.169,0,0,0-.033,0C1.829.517,1.3,2.336,1,4.235.621,6.693,1.481,8.583,3.421,9.56c.054.028.109.054.165.077a3.115,3.115,0,0,0,3.5-.8,1.468,1.468,0,0,0-.3-2.008" fill="#f376da" fill-rule="evenodd"/>
        </g>
        <g id="Group-84" transform="translate(38 12)">
          <path id="Fill-82" d="M1.118,6.828A3.143,3.143,0,0,1,.766,4.149a5.932,5.932,0,0,1,2.688-2.8c.03-.154.06-.309.094-.464A6.49,6.49,0,0,0,.432,4.034,3.442,3.442,0,0,0,.789,6.961c.118-.029.236-.059.352-.092-.008-.014-.015-.028-.023-.041" fill="#f376da" fill-rule="evenodd"/>
        </g>
        <g id="Group-87" transform="translate(10)">
          <path id="Fill-85" d="M21.2,7.054a3.693,3.693,0,0,1-.5,4.473,11.046,11.046,0,0,1-8.351,3.029A6.222,6.222,0,0,1,7.5,11.319,26.091,26.091,0,0,0,5.12,7.841,13.357,13.357,0,0,0,1.978,4.976,2.411,2.411,0,0,1,.912,2.228,2.42,2.42,0,0,1,3.26.433h.2C6.655.44,8.039,2.1,9.378,3.708,10.787,5.4,12.118,7,15.4,5.9c2.612-.879,4.782-.448,5.805,1.157M15.285,5.561c-3.049,1.028-4.249-.411-5.635-2.077C8.324,1.891,6.821.086,3.461.078l-.206,0A2.766,2.766,0,0,0,.57,2.134,2.756,2.756,0,0,0,1.79,5.275,17.9,17.9,0,0,1,7.2,11.5a6.637,6.637,0,0,0,5.108,3.41,11.552,11.552,0,0,0,8-2.534,7.374,7.374,0,0,0,.652-.6A4.053,4.053,0,0,0,21.5,6.861c-1.117-1.751-3.442-2.236-6.219-1.3" fill="#f376da" fill-rule="evenodd"/>
        </g>
      </g>
      <g id="Group-510" transform="translate(0 0.078)">
        <path id="Fill-97" d="M244.774,194.8l-237.761.49a5.743,5.743,0,0,1-5.755-5.732L.933,32.049a5.743,5.743,0,0,1,5.732-5.755l237.76-.491a5.744,5.744,0,0,1,5.756,5.731l.324,157.512a5.744,5.744,0,0,1-5.731,5.757" fill="#eff2f9" fill-rule="evenodd"/>
        <path id="Fill-99" d="M244.038,25.806,7.3,26.294A6.253,6.253,0,0,0,1.056,32.56L1.066,38l249.247-.514-.009-5.437a6.254,6.254,0,0,0-6.267-6.239" fill="#00a8c4" fill-rule="evenodd"/>
        <path id="Fill-101" d="M7.58,195.293l35.771-.073L43.026,37.909,1,38l.311,151.066a6.248,6.248,0,0,0,6.265,6.231" fill="#c2f5ff" fill-rule="evenodd"/>
        <path id="Fill-103" d="M244.495,25.8h-.013L6.723,26.3A5.744,5.744,0,0,0,.99,32.05l.325,157.513a5.744,5.744,0,0,0,5.743,5.731h.013l237.761-.491a5.743,5.743,0,0,0,5.731-5.755l-.326-157.513a5.741,5.741,0,0,0-5.743-5.731m0,1.581a4.168,4.168,0,0,1,4.163,4.154l.326,157.511a4.169,4.169,0,0,1-4.155,4.172l-237.77.491A4.17,4.17,0,0,1,2.9,189.559L2.57,32.048a4.169,4.169,0,0,1,4.155-4.172l237.756-.49h.013" fill="#00a8c4" fill-rule="evenodd"/>
        <path id="Fill-105" d="M37.181,183.269l-27.294.056a2.339,2.339,0,1,1-.009-4.677l27.292-.057a2.339,2.339,0,1,1,.011,4.678" fill="#eff2f9" fill-rule="evenodd"/>
        <path id="Fill-107" d="M32.931,76.549l-21.326.044a5.106,5.106,0,0,1-5.117-5.1L6.444,50.17a5.105,5.105,0,0,1,5.1-5.116l21.328-.044a5.106,5.106,0,0,1,5.116,5.1l.044,21.326a5.107,5.107,0,0,1-5.1,5.117" fill="#eff2f9" fill-rule="evenodd"/>
        <path id="Fill-109" d="M134.3,146.851l-81.412.168a3.055,3.055,0,1,1-.013-6.109l81.411-.168a3.055,3.055,0,0,1,3.062,3.047h0a3.054,3.054,0,0,1-3.048,3.061" fill="#c2f5ff" fill-rule="evenodd"/>
        <path id="Fill-111" d="M129.572,53.688l-64.261.133a3.055,3.055,0,0,1-.012-6.11l64.261-.131a3.054,3.054,0,1,1,.012,6.108" fill="#c2f5ff" fill-rule="evenodd"/>
        <path id="Fill-113" d="M231.72,121.038l-85.8.177a3.055,3.055,0,0,1-.012-6.109l85.8-.176a3.054,3.054,0,1,1,.014,6.108" fill="#c2f5ff" fill-rule="evenodd"/>
        <path id="Fill-115" d="M231.72,130.038l-85.8.177a3.055,3.055,0,0,1-.012-6.109l85.8-.176a3.054,3.054,0,1,1,.014,6.108" fill="#c2f5ff" fill-rule="evenodd"/>
        <path id="Fill-117" d="M134.324,159.481l-81.411.168a3.055,3.055,0,0,1-.013-6.109l81.411-.168a3.055,3.055,0,0,1,.013,6.109" fill="#c2f5ff" fill-rule="evenodd"/>
        <path id="Fill-119" d="M134.35,172.111l-81.412.168a3.055,3.055,0,1,1-.012-6.109L134.337,166a3.055,3.055,0,0,1,.013,6.109" fill="#c2f5ff" fill-rule="evenodd"/>
        <path id="Fill-121" d="M228.889,180.349l-79.884.165a6.011,6.011,0,0,1-6.023-6l-.069-32.869a6.014,6.014,0,0,1,6-6.025l79.884-.165a6.012,6.012,0,0,1,6.024,6l.068,32.87a6.011,6.011,0,0,1-6,6.023" fill="#c2f5ff" fill-rule="evenodd"/>
        <path id="Fill-123" d="M14.727,32.02a2.014,2.014,0,1,1-2.019-2.01,2.015,2.015,0,0,1,2.019,2.01" fill="#c2f5ff" fill-rule="evenodd"/>
        <path id="Fill-125" d="M23.254,32a2.014,2.014,0,1,1-2.019-2.01A2.015,2.015,0,0,1,23.254,32" fill="#c2f5ff" fill-rule="evenodd"/>
        <path id="Fill-127" d="M31.782,31.985a2.014,2.014,0,1,1-2.019-2.01,2.015,2.015,0,0,1,2.019,2.01" fill="#c2f5ff" fill-rule="evenodd"/>
        <path id="Fill-129" d="M59.12,50.779a5.824,5.824,0,1,1-5.837-5.812,5.826,5.826,0,0,1,5.837,5.812" fill="#c2f5ff" fill-rule="evenodd"/>
        <path id="Fill-131" d="M53.293,45.467h-.01A5.325,5.325,0,0,0,53.3,56.116h.01a5.325,5.325,0,0,0-.013-10.649Zm0,11.649a6.325,6.325,0,0,1-.015-12.649h.012a6.325,6.325,0,0,1,.015,12.649Z" fill="#00a8c4" fill-rule="evenodd"/>
        <path id="Fill-133" d="M35.572,81.468l-25.664.054a1.153,1.153,0,0,1,0-2.306l25.663-.053a1.153,1.153,0,0,1,.005,2.305" fill="#eff2f9" fill-rule="evenodd"/>
        <path id="Fill-135" d="M35.582,86.394l-25.663.054a1.153,1.153,0,0,1-.005-2.306l25.664-.053a1.153,1.153,0,0,1,0,2.305" fill="#eff2f9" fill-rule="evenodd"/>
        <path id="Fill-137" d="M65.189,127.115a.318.318,0,0,1-.317.318l-6.925.014-3.979.013c-2.4,0-6.343-3.934-6.348-6.331l-.116-51.2c0-2.245,2.088-7.107,6.056-7.073l11.231-.034a.317.317,0,0,1,.318.316Z" fill="#c2f5ff" fill-rule="evenodd"/>
        <path id="Fill-139" d="M111.254,62.731h-.013l-57.734.119a6.01,6.01,0,0,0-6,6.024l.108,52.583a6.011,6.011,0,0,0,6.011,6h.013l57.734-.12a6.01,6.01,0,0,0,6-6.023l-.108-52.583a6.011,6.011,0,0,0-6.011-6m0,0v.79a5.229,5.229,0,0,1,5.221,5.21l.108,52.583a5.225,5.225,0,0,1-5.21,5.232l-57.746.12a5.229,5.229,0,0,1-5.221-5.21L48.3,68.872a5.227,5.227,0,0,1,5.211-5.232l57.734-.119.011-.79" fill="#00a8c4" fill-rule="evenodd"/>
        <path id="Fill-171" d="M23.633,51.2l2.128,4.312a1.624,1.624,0,0,0,1.224.888l4.756.692a1.624,1.624,0,0,1,.9,2.771L29.2,63.224a1.623,1.623,0,0,0-.466,1.437l.812,4.738a1.625,1.625,0,0,1-2.357,1.713l-4.255-2.237a1.626,1.626,0,0,0-1.513,0l-4.255,2.237A1.625,1.625,0,0,1,14.808,69.4l.812-4.738a1.623,1.623,0,0,0-.466-1.437l-3.443-3.356a1.624,1.624,0,0,1,.9-2.771l4.756-.692a1.624,1.624,0,0,0,1.224-.888L20.72,51.2a1.624,1.624,0,0,1,2.913,0" fill="#ff67ff" fill-rule="evenodd"/>
        <path id="Fill-231" d="M41.745,162.785v0h0Z" fill="#432c82" fill-rule="evenodd"/>
        <path id="Fill-235" d="M54.483,158.09h0Z" fill="#432c82" fill-rule="evenodd"/>
        <path id="Fill-250" d="M41.745,168.583v0l0,0Z" fill="#432c82" fill-rule="evenodd"/>
        <path id="Fill-254" d="M54.483,162.911h0Z" fill="#432c82" fill-rule="evenodd"/>
        <path id="Fill-259" d="M51.336,158.856a.176.176,0,0,1,.061-.042.176.176,0,0,0-.061.042" fill="#2a0952" fill-rule="evenodd"/>
        <path id="Fill-261" d="M51.91,157.869a.17.17,0,0,0,0,.039.052.052,0,0,0,.023-.044c-.007,0-.02,0-.021.005" fill="#2a0952" fill-rule="evenodd"/>
        <path id="Fill-263" d="M49.638,157.815a.209.209,0,0,0-.019-.04.071.071,0,0,0,0,.057c.005-.006.017-.013.016-.017" fill="#2a0952" fill-rule="evenodd"/>
        <path id="Fill-485" d="M148.93,77.777a5.592,5.592,0,0,1-5.021-3.092L129.123,45.329a5.619,5.619,0,0,1,2.491-7.543L202.959,1.853a5.618,5.618,0,0,1,7.543,2.49L225.287,33.7a5.615,5.615,0,0,1-2.49,7.543L151.451,77.175a5.555,5.555,0,0,1-2.521.6" fill="#eff2f9" fill-rule="evenodd"/>
        <path id="Fill-487" d="M205.482.857a5.982,5.982,0,0,0-2.7.644L131.437,37.433a6.01,6.01,0,0,0-2.665,8.073l14.785,29.357a6.01,6.01,0,0,0,8.073,2.665L222.976,41.6a6.012,6.012,0,0,0,2.665-8.073L210.856,4.166A6.012,6.012,0,0,0,205.482.857m0,.79h0a5.2,5.2,0,0,1,4.668,2.874l14.785,29.357a5.22,5.22,0,0,1-2.314,7.011L151.275,76.823a5.222,5.222,0,0,1-7.013-2.316L129.477,45.151a5.22,5.22,0,0,1,2.316-7.012L203.138,2.207a5.17,5.17,0,0,1,2.344-.56" fill="#00a8c4" fill-rule="evenodd"/>
        <path id="Fill-489" d="M157.969,73.528l-5.891,2.94c-3.56,1.685-6.481.695-8-2.524l-14.4-28.588c-1.454-2.888-.612-5.915,2.736-7.932l5.705-2.822Z" fill="#c2f5ff" fill-rule="evenodd"/>
        <path id="Fill-491" d="M193.17,12.516,145.213,36.924l-.671-1.318L192.5,11.2Z" fill="#00a8c4" fill-rule="evenodd"/>
        <path id="Fill-493" d="M174.509,25.1,146.46,39.375l-.736-1.448,28.048-14.275Z" fill="#00a8c4" fill-rule="evenodd"/>
        <path id="Fill-507" d="M151.743,144.252h53.251v-1.611H151.743Z" fill="#00a8c4" fill-rule="evenodd"/>
        <path id="Fill-509" d="M151.742,147.247h31.145v-1.77H151.742Z" fill="#00a8c4" fill-rule="evenodd"/>
      </g>
    </g>
    <g id="Window-2" data-name="Window" transform="translate(300 71.912)">
      <g id="Window_Bubble" data-name="Window/Bubble">
        <g id="Bubble-1" transform="translate(10 11)">
          <path id="Fill-16" d="M50.52,9.624H22.362L13.326,0V9.624H10.8A10.8,10.8,0,0,0,0,20.427V40.474a10.8,10.8,0,0,0,10.8,10.8H50.52a10.8,10.8,0,0,0,10.8-10.8V20.427a10.8,10.8,0,0,0-10.8-10.8" fill="#fed21c" fill-rule="evenodd"/>
          <path id="Fill-18" d="M16.631,29.855a4.911,4.911,0,1,1-4.911-4.91,4.91,4.91,0,0,1,4.911,4.91" fill="#eff2f9" fill-rule="evenodd"/>
          <path id="Fill-20" d="M35.761,29.855a4.911,4.911,0,1,1-4.911-4.91,4.911,4.911,0,0,1,4.911,4.91" fill="#eff2f9" fill-rule="evenodd"/>
          <path id="Fill-22" d="M54.89,29.855a4.911,4.911,0,1,1-4.911-4.91,4.911,4.911,0,0,1,4.911,4.91" fill="#eff2f9" fill-rule="evenodd"/>
        </g>
      </g>
    </g>
    <g id="Master_Character_Standing" data-name="Master/Character/Standing" transform="translate(378 103) rotate(180)">
      <g id="Master_Character_Standing-2" data-name="Master/Character/Standing">
        <g id="Lower" transform="translate(21 -96)">
          <g id="Lower_Posing_1" data-name="Lower/Posing 1">
            <g id="Group-46" transform="translate(24 -10)">
              <path id="Fill-1" d="M13.181-100.668l-3.169-2.665,3.671-5.772,3.169,2.666Z" fill="#b3b2e6" fill-rule="evenodd"/>
              <g id="Group-45" transform="translate(0 -0.87)">
                <path id="Fill-2" d="M13.366-127.866,0-106.851a3.49,3.49,0,0,0,.991,1.018c1.694,1.262,4.892,2.5,6.857,3.36.23.1.444.194.634.284a7.277,7.277,0,0,1,.771.4,1.27,1.27,0,0,0,2.031-.522c-.732-3.453,3.926-3.872,3.794-5.931,0,0-.048-.881-.488-3.5s.374-6.091.9-9.149c.679-3.947-.061-5.66-.847-6.4a1.943,1.943,0,0,0-1.277-.57" fill="#8a60e2" fill-rule="evenodd"/>
                <path id="Fill-4" d="M13.366-127.866,0-106.851a3.49,3.49,0,0,0,.991,1.018L14.643-127.3a1.943,1.943,0,0,0-1.277-.57" fill="#c664e9" fill-rule="evenodd"/>
                <path id="Fill-6" d="M1.363-109l-.4.624A5.461,5.461,0,0,1,5.05-107.36a7.02,7.02,0,0,1,2.8,4.886c.231.1.444.195.635.285a7.633,7.633,0,0,0-3.089-5.657A6.046,6.046,0,0,0,1.363-109" fill="#c664e9" fill-rule="evenodd"/>
                <path id="Fill-8" d="M13.123-112.177a.411.411,0,0,0,.049.5.411.411,0,0,0,.58.015l1.162-1.106a.412.412,0,0,0,.014-.581.411.411,0,0,0-.58-.014l-1.162,1.106a.461.461,0,0,0-.063.077" fill="#c664e9" fill-rule="evenodd"/>
                <path id="Fill-10" d="M13.2-113.975a.41.41,0,0,0,.05.5.41.41,0,0,0,.58.014l1.161-1.106a.411.411,0,0,0,.014-.58.411.411,0,0,0-.58-.014l-1.162,1.106a.424.424,0,0,0-.063.077" fill="#c664e9" fill-rule="evenodd"/>
                <path id="Fill-12" d="M13.3-115.754a.411.411,0,0,0,.049.5.41.41,0,0,0,.58.014l1.162-1.106a.411.411,0,0,0,.014-.58.411.411,0,0,0-.58-.014l-1.162,1.106a.461.461,0,0,0-.063.077" fill="#c664e9" fill-rule="evenodd"/>
                <path id="Fill-14" d="M13.529-117.617a.413.413,0,0,0,.049.5.411.411,0,0,0,.58.014l1.162-1.106a.411.411,0,0,0,.014-.58.411.411,0,0,0-.58-.015l-1.162,1.106a.506.506,0,0,0-.063.077" fill="#c664e9" fill-rule="evenodd"/>
                <path id="Fill-16-2" data-name="Fill-16" d="M13.937-119.537a.41.41,0,0,0,.05.5.411.411,0,0,0,.58.015l1.161-1.106a.411.411,0,0,0,.014-.58.41.41,0,0,0-.58-.015L14-119.614a.422.422,0,0,0-.064.077" fill="#c664e9" fill-rule="evenodd"/>
                <path id="Fill-18-2" data-name="Fill-18" d="M49.531-66.527s-.123-.232-.356-.665c-1.647-3.042-30.548-39.521-31.1-39.83q-.395-.216-.8-.437a36.957,36.957,0,0,0-5.871,8.3s.522.849,1.36,2.232c.165.27.341.561.529.87.566.935,1.228,2.033,1.946,3.232,3.229,5.391,7.578,12.793,9.2,16.231,1.188,2.511,2.6,5.3,4.18,8.043q.452.783.919,1.559c.036.061.07.12.108.18,2.148,3.547,2.553,2.916,5.073,5.4l-6.1,37.664L42.123-6.64s10.193-29.444,7.427-59.746C49.544-66.433,49.537-66.48,49.531-66.527Z" fill="#382981" fill-rule="evenodd"/>
                <path id="Fill-20-2" data-name="Fill-20" d="M20.478-105.578c-.264-.173-.53-.341-.8-.509l-4.906,6.5-.453.6-1.559,2.064q.246.407.529.87l1.526-2.022.452-.6Z" fill="#8a60e2" fill-rule="evenodd"/>
                <g id="Group-24" transform="translate(8)">
                  <path id="Fill-22-2" data-name="Fill-22" d="M2.494-9.774c-1.2-4.263-3.158-14.906.959-22.835,2.271-4.373,10.884,4.617,19.5,6q7.007,1.122,16.663-2.964-4.1,17.956-5.493,22.937A38.426,38.426,0,0,1,31.7-.13H8.23Q3.7-5.511,2.494-9.774Z" fill="#382981" fill-rule="evenodd"/>
                </g>
                <path id="Fill-25" d="M20.9-111.834l.675-5.362h6.841l.4,5.644Z" fill="#b3b2e6" fill-rule="evenodd"/>
                <path id="Fill-27" d="M29.532-110.948l-.1-1.459H19.278c-.109.665-.352,1.739-.675,3.119-.07.3-.145.619-.221.947-1.324,5.63-3.59,15.228-3.99,23.572-.571,11.916-.519,15.639-.519,15.639C12.715-60.273,9.867-32.1,8.961-22.285c-.023.234,20.571,3.394,20.571,3.394Z" fill="#382981" fill-rule="evenodd"/>
                <path id="Fill-29" d="M29.532-108.341v-.946H18.6c-.07.3-.145.618-.221.946Z" fill="#8a60e2" fill-rule="evenodd"/>
                <path id="Fill-31" d="M31.016-126.339c0-.062,0-.122,0-.181-.006-.273-.018-.519-.029-.73-.029-.464-.062-.75-.062-.75H15.512a8.4,8.4,0,0,0-.018,1.48,7.7,7.7,0,0,0,2.752,5.706c2.914,2.252,1.789,1.783,2.386,2.809.068.114.592,1.859.648,1.979.5,1.067.962,1.571,3.723,1.571,3.662,0,3.984-1.778,4.375-2.713a17.518,17.518,0,0,0,.61-2.175c.092-.39.184-.807.275-1.229.226-1.062.437-2.171.58-3.056a16.014,16.014,0,0,0,.173-2.711" fill="#8a60e2" fill-rule="evenodd"/>
                <path id="Fill-33" d="M31.016-126.339c0-.062,0-.122,0-.181-.006-.273-.018-.519-.029-.73a4.3,4.3,0,0,0-1.6,2.075c-.954,2.6.512,5.714.574,5.846l.031-.014c.092-.39.184-.807.275-1.229a7.01,7.01,0,0,1-.192-4.352,3.58,3.58,0,0,1,.945-1.415" fill="#c664e9" fill-rule="evenodd"/>
                <path id="Fill-35" d="M31.013-126.52c-.021-.877-.091-1.48-.091-1.48H15.512a8.393,8.393,0,0,0-.018,1.48Z" fill="#c664e9" fill-rule="evenodd"/>
                <path id="Fill-37" d="M25.511-119.26a.417.417,0,0,0-.11.015,7.624,7.624,0,0,1-3.573.073.439.439,0,0,0-.541.307.442.442,0,0,0,.307.541,8.443,8.443,0,0,0,4.027-.071.439.439,0,0,0,.315-.535.439.439,0,0,0-.425-.33" fill="#c664e9" fill-rule="evenodd"/>
                <path id="Fill-39" d="M25.858-117.557a.422.422,0,0,0-.111.014,7.619,7.619,0,0,1-3.572.073.44.44,0,0,0-.541.307.44.44,0,0,0,.307.541,8.442,8.442,0,0,0,4.027-.071.439.439,0,0,0,.315-.535.439.439,0,0,0-.425-.329" fill="#c664e9" fill-rule="evenodd"/>
                <path id="Fill-41" d="M24.853-120.651a.454.454,0,0,0-.11.014,7.7,7.7,0,0,1-3.574.074.439.439,0,0,0-.54.307.44.44,0,0,0,.307.54,8.45,8.45,0,0,0,4.027-.07.44.44,0,0,0,.315-.536.439.439,0,0,0-.425-.329" fill="#c664e9" fill-rule="evenodd"/>
                <path id="Fill-43" d="M24.078-122.234a.455.455,0,0,0-.11.014,7.7,7.7,0,0,1-3.574.074.438.438,0,0,0-.54.307.44.44,0,0,0,.307.54,8.449,8.449,0,0,0,4.027-.07.44.44,0,0,0,.315-.536.439.439,0,0,0-.425-.329" fill="#c664e9" fill-rule="evenodd"/>
              </g>
            </g>
          </g>
        </g>
        <g id="Head" transform="translate(33 1)">
          <g id="Head_Short_with_Beanie" data-name="Head/Short with Beanie">
            <g id="Group-28" transform="translate(28.3 -22.7)">
              <g id="Group-3" transform="translate(2 -0.824)">
                <path id="Fill-1-2" data-name="Fill-1" d="M.945-19.671C.688-11.658-.095-1.845,8.73-.911c2.677.281,7.7.261,10.835-4.541,0,0,6.473-1.208,7.322-6.356s-7.558-6.438-7.558-6.438c-.257-2.206-.753-5.5-2.427-7.106-1.965-1.886-2.592-.87-4.952-.856a35.561,35.561,0,0,1-8-1.075c-1.145-.252-2.493-.455-3.361.333a29.3,29.3,0,0,1,.354,7.279" fill="#2a0952" fill-rule="evenodd"/>
              </g>
              <path id="Fill-9" d="M9.207-13.194l-.048.2c7.01,1.643,8.889,6.123,8.907,6.168L18.26-6.9c-.018-.046-1.931-4.624-9.053-6.293" fill="#4165e3" fill-rule="evenodd"/>
              <path id="Fill-11" d="M7.9-11.219l-.046.205a13.088,13.088,0,0,1,6.1,3.378l.153-.143A13.32,13.32,0,0,0,7.9-11.219" fill="#4165e3" fill-rule="evenodd"/>
              <path id="Fill-13" d="M19.253-14.595c-.1.009-2.386.209-3.729.442l.183,1.051c1.3-.225,3.615-.429,3.639-.431Z" fill="#2a0952" fill-rule="evenodd"/>
              <path id="Fill-3" d="M15.589-31.161l-.2-7.669c-.066-2.693-1.76-4.093-4.41-4.008-2.263.073-4.35,1.31-4.558,3.564l.9,12.053Z" fill="#b3b2e6" fill-rule="evenodd"/>
              <path id="Fill-6-2" data-name="Fill-6" d="M15.464-34.9c-5.367-.005-8.774,7-8.774,7l8.935-2.007Z" fill="rgba(0,2,60,0.18)" fill-rule="evenodd"/>
              <path id="Fill-15" d="M11.941-31.221h0c4.42-.719,8.627,2.181,9.336,5.771L22.9-16.97c.887,4.5-1.386,8.8-5.853,9.837C12.471-6.074,6.534-8.646,5.474-13.219L4.245-20.054c-.951-5.286,2.464-9.954,7.7-11.167" fill="#b3b2e6" fill-rule="evenodd"/>
              <g id="Group-19" transform="translate(0 -17.824)">
                <path id="Fill-17" d="M.09-2.733A3.486,3.486,0,0,1,2.7-6.915,3.487,3.487,0,0,1,6.881-4.306,3.485,3.485,0,0,1,4.273-.125,3.485,3.485,0,0,1,.09-2.733" fill="#b3b2e6" fill-rule="evenodd"/>
              </g>
              <path id="Fill-20-3" data-name="Fill-20" d="M4.438-22.628s.571,2.462-1.873,2.62" fill="rgba(0,2,60,0.18)" fill-rule="evenodd"/>
              <path id="Fill-22-3" data-name="Fill-22" d="M1.87-9.262s9.5,4.272,16.365,4.823c.18.014.358.027.533.034a12.518,12.518,0,0,0,2.021-.041A8.19,8.19,0,0,1,14.564-.172,12.315,12.315,0,0,1,12.81,0,15.711,15.711,0,0,1,10.083-.19L9.986-.2Q9.6-.265,9.233-.343A12.232,12.232,0,0,1,7.191-.954c-.161-.064-.316-.131-.467-.2A8.942,8.942,0,0,1,4.007-3.043a8.387,8.387,0,0,1-.625-.719,7.486,7.486,0,0,1-1.512-5.5" fill="#503890" fill-rule="evenodd"/>
              <path id="Fill-24" d="M21.565-6.276A25.173,25.173,0,0,1,2.891-12.3,3.1,3.1,0,0,0,1.865-9.143s8.209,8.09,18.9,5.266a2.389,2.389,0,0,0,.8-2.4" fill="#816ad8" fill-rule="evenodd"/>
              <path id="Fill-26" d="M19.688-12.905a11.608,11.608,0,0,1,.781-3.8q-1.821.3-3.642.594a3.77,3.77,0,0,0-2.32.955c-.9,1.029-.447,2.679-1.029,3.918a8.237,8.237,0,0,1-1.773-5.3,10.106,10.106,0,0,0-4.061.307c-1.093.234-2.344.6-2.776,1.625a3.254,3.254,0,0,0,.036,2.04c.7,2.748,2.145,5.552,4.728,6.717a9.254,9.254,0,0,0,6.342.063c2.743-.8,5.479-2.456,6.467-5.137a12.232,12.232,0,0,0,.506-2.12c.187-1.061,1.586-5.3-.592-3.883-.955.623-2.871,2.744-2.667,4.021" fill="#2a0952" fill-rule="evenodd"/>
            </g>
          </g>
        </g>
        <g id="Expression" transform="translate(64 -35)">
          <g id="Expression_Excited" data-name="Expression/Excited">
            <g id="Group-38" transform="matrix(0.995, -0.105, 0.105, 0.995, 5.168, -1.749)">
              <path id="Fill-1-3" data-name="Fill-1" d="M7.963-6.509c.1-.138.2-.271.291-.408a5.85,5.85,0,0,0,.307-.525c.009-.019.006-.011-.01.025,0-.012.01-.024.014-.036L8.583-7.5c.006-.022.011-.044.017-.066.016-.06-.015,0,0,.016s0-.056,0-.057.02.083,0,.027c-.014-.041.044.07,0,.014-.007-.012-.015-.023-.023-.035q.027.033-.006-.006c-.019-.02-.037-.041-.057-.059s-.089-.074-.047-.043a1.369,1.369,0,0,0-.167-.1l-.076-.039c-.009,0-.108-.048-.06-.028-.062-.025-.124-.048-.186-.07a.3.3,0,0,1-.2-.358.3.3,0,0,1,.358-.2,2.015,2.015,0,0,1,.831.473.68.68,0,0,1,.213.418.774.774,0,0,1-.045.3,4.562,4.562,0,0,1-.67,1.108.3.3,0,0,1-.4.1.292.292,0,0,1-.1-.4" fill="rgba(0,2,60,0.18)" fill-rule="evenodd"/>
              <path id="Fill-3-2" data-name="Fill-3" d="M5.344-1.651A.874.874,0,0,1,4.807-.012a3.069,3.069,0,0,1-2.294-1.27c-.759-1.458,1.841-.812,2.8-.382l.028.013" fill="#2c2263" fill-rule="evenodd"/>
              <path id="Fill-5" d="M10.209-1.833a.732.732,0,0,0,.371,1.4,2.57,2.57,0,0,0,1.979-.952c.7-1.182-1.5-.767-2.326-.454l-.024.01" fill="#2c2263" fill-rule="evenodd"/>
              <path id="Fill-7" d="M3.708-3.472l.151.02a3.342,3.342,0,0,0,2.366-.779A.592.592,0,0,0,6.45-4.8c-.043-.308-.214-.407-.458-.206a3.1,3.1,0,0,1-2.231.614,1.808,1.808,0,0,1-1.068-.395c-.238-.184-.458-.393-.694-.579a.422.422,0,0,0-.555-.056c-.2.162-.158.373-.04.58a3.085,3.085,0,0,0,2.3,1.371" fill="#2c2263" fill-rule="evenodd"/>
              <path id="Fill-9-2" data-name="Fill-9" d="M12.536-5.089c-.668.535-1.544,1.136-2.415.717C9.668-4.59,9.3-5.013,8.834-5.19a.451.451,0,0,0-.528.052c-.147.166-.051.327.057.5A2.775,2.775,0,0,0,10.483-3.4a3.006,3.006,0,0,0,2.394-.919c.275-.455.2-.625-.341-.765" fill="#2c2263" fill-rule="evenodd"/>
              <path id="Fill-11-2" data-name="Fill-11" d="M9.331-11.15c.221.038.652.48.583.622a.5.5,0,0,1-.579.223c-.42-.06-.13-.416-.239-.58.034-.16.048-.3.235-.265m-1.117.769c-.55-.116-.287-.533-.287-.814,0-.421.351-.2.545-.206.449-.011.279.31.249.611.006.276-.093.494-.507.409m-1.65.492a.2.2,0,0,1-.082-.041A1.1,1.1,0,0,1,6.7-11.1a1.346,1.346,0,0,1,.136-.044c.2-.069.427-.29.612-.123s.038.451.056.661a1.708,1.708,0,0,1-.937.716M6.011-10.1a.871.871,0,0,1-1.155.814c-.213-.081-.253-.251-.139-.467a2.146,2.146,0,0,1,1.3-.958c0,.229-.014.42-.008.611m-1.66-.146a.835.835,0,0,0-.188,1.093.918.918,0,0,0,1.032.322A3.552,3.552,0,0,0,6.52-9.364a2.891,2.891,0,0,1,2.153-.452,4.975,4.975,0,0,0,.906.072.787.787,0,0,0,.821-.542.791.791,0,0,0-.347-.923,3.031,3.031,0,0,0-1.4-.624,5.318,5.318,0,0,0-4.3,1.586" fill="#2c2263" fill-rule="evenodd"/>
              <path id="Fill-13-2" data-name="Fill-13" d="M6.019-10.712c0,.229-.014.42-.008.61a.871.871,0,0,1-1.155.815c-.213-.081-.253-.251-.139-.467a2.146,2.146,0,0,1,1.3-.958" fill="#fdfdfd" fill-rule="evenodd"/>
              <path id="Fill-15-2" data-name="Fill-15" d="M7.5-10.605a1.708,1.708,0,0,1-.937.716.2.2,0,0,1-.082-.041A1.1,1.1,0,0,1,6.7-11.1c.044-.019.091-.029.136-.044.2-.068.427-.29.612-.123s.038.451.056.661" fill="#fdfdfd" fill-rule="evenodd"/>
              <path id="Fill-17-2" data-name="Fill-17" d="M8.721-10.79c.006.275-.093.494-.507.408-.55-.115-.287-.532-.287-.813,0-.421.351-.2.545-.206.449-.011.279.309.249.611" fill="#fdfdfd" fill-rule="evenodd"/>
              <path id="Fill-19" d="M9.1-10.886c.034-.159.048-.3.235-.265.222.038.652.481.583.622a.5.5,0,0,1-.579.223c-.419-.059-.13-.416-.239-.58" fill="#fdfdfd" fill-rule="evenodd"/>
              <path id="Fill-21" d="M3.845-8.49a1.914,1.914,0,0,0-1.108-.722,2.72,2.72,0,0,0-1.532.12,2.025,2.025,0,0,0-.853.54,2.219,2.219,0,0,0-.282,1.8,1.242,1.242,0,0,0,.562.81,1.969,1.969,0,0,0,1.376.176,4.032,4.032,0,0,0,1.217-.37,1.68,1.68,0,0,0,.729-2.183,1.436,1.436,0,0,0-.109-.176" fill="rgba(255,55,184,0.5)" fill-rule="evenodd"/>
              <path id="Fill-23" d="M.749-7.838A.251.251,0,0,0,.6-7.79a.25.25,0,0,0-.055.349l.658.9a.252.252,0,0,0,.349.055.252.252,0,0,0,.054-.35l-.657-.9a.247.247,0,0,0-.2-.1" fill="#ffd0f6" fill-rule="evenodd"/>
              <path id="Fill-25-2" data-name="Fill-25" d="M2.652-8.589H2.638a.251.251,0,0,0-.236.264l.063,1.112a.243.243,0,0,0,.263.236.251.251,0,0,0,.236-.263L2.9-8.353a.251.251,0,0,0-.25-.236" fill="#ffd0f6" fill-rule="evenodd"/>
              <path id="Fill-27-2" data-name="Fill-27" d="M1.529-8.308a.255.255,0,0,0-.114.027.25.25,0,0,0-.108.337l.58,1.13a.251.251,0,0,0,.337.109.251.251,0,0,0,.108-.337l-.581-1.13a.25.25,0,0,0-.222-.136" fill="#ffd0f6" fill-rule="evenodd"/>
              <g id="Group-31" transform="translate(10 -5.84)">
                <path id="Fill-29-2" data-name="Fill-29" d="M.858-2.779a1.6,1.6,0,0,1,.928-.6,2.27,2.27,0,0,1,1.283.1,1.683,1.683,0,0,1,.715.451,1.859,1.859,0,0,1,.237,1.513,1.053,1.053,0,0,1-.471.679A1.66,1.66,0,0,1,2.4-.492,3.383,3.383,0,0,1,1.378-.8a1.407,1.407,0,0,1-.611-1.83,1.238,1.238,0,0,1,.091-.147" fill="rgba(255,55,184,0.5)" fill-rule="evenodd"/>
              </g>
              <path id="Fill-32" d="M13.452-8.112a.247.247,0,0,0-.2.1l-.55.753a.252.252,0,0,0,.054.35.251.251,0,0,0,.35-.055l.55-.754a.25.25,0,0,0-.055-.349.251.251,0,0,0-.147-.048" fill="#ffd0f6" fill-rule="evenodd"/>
              <path id="Fill-34" d="M11.857-8.74a.251.251,0,0,0-.25.236l-.051.932a.25.25,0,0,0,.236.264.253.253,0,0,0,.263-.237l.052-.931a.251.251,0,0,0-.236-.264Z" fill="#ffd0f6" fill-rule="evenodd"/>
              <path id="Fill-36" d="M12.8-8.506a.25.25,0,0,0-.222.136l-.486.946a.249.249,0,0,0,.107.337.253.253,0,0,0,.337-.108l.486-.947a.25.25,0,0,0-.108-.337.255.255,0,0,0-.114-.027" fill="#ffd0f6" fill-rule="evenodd"/>
            </g>
          </g>
        </g>
        <g id="Upper" transform="translate(7)">
          <g id="Upper_With_Backpack" data-name="Upper/With Backpack">
            <g id="Group-39" transform="translate(26 -49)">
              <path id="Fill-1-4" data-name="Fill-1" d="M8.837-15.864C3.345-31.217,1.671-66.251,21.7-68.488q18.459-2.06,13.483,62.225l.071,1.094S14.328-.511,8.837-15.864Z" fill="#2c2263" fill-rule="evenodd"/>
              <g id="Group-5" transform="translate(18 -0.588)">
                <path id="Fill-3-3" data-name="Fill-3" d="M1.766-7.137.405-6.87A11.394,11.394,0,0,0,1.634-3.7,5.849,5.849,0,0,0,6.788-.411a4.867,4.867,0,0,0,3.7-1.418,5.278,5.278,0,0,0,1.259-3.625l-1.384.088a3.907,3.907,0,0,1-.9,2.6,3.551,3.551,0,0,1-2.681.97c-3.9.017-5.005-5.286-5.016-5.339" fill="#2c2263" fill-rule="evenodd"/>
              </g>
              <path id="Fill-6-3" data-name="Fill-6" d="M74.29-49.086a8.77,8.77,0,0,1-.228,2.836c-.036.156-.076.314-.12.475C72.627-41.013,69.6-34.7,64.959-27.023c-3.356,5.551-6.327,9.768-6.451,9.945a6.024,6.024,0,0,1-8.4,1.448,6.024,6.024,0,0,1-1.448-8.394c1.377-1.953,3.823-5.619,6.3-9.749A6.009,6.009,0,0,1,51.368-35.5a6.025,6.025,0,0,1,.012-8.52c.113-.112,2.8-2.789,5.781-5.367a47.092,47.092,0,0,1,4.794-3.733,14.734,14.734,0,0,1,2.821-1.5,8.439,8.439,0,0,1,1.875-.486,6.91,6.91,0,0,1,3.265.316,6.449,6.449,0,0,1,1.122.515,6.636,6.636,0,0,1,3.252,5.195" fill="#fed21c" fill-rule="evenodd"/>
              <path id="Fill-8-2" data-name="Fill-8" d="M71.038-54.281a6.51,6.51,0,0,0-1.121-.515c-.236,3.821,2.417,6.938,4.146,8.546a8.738,8.738,0,0,0,.227-2.836,6.632,6.632,0,0,0-3.252-5.195" fill="#ad5cee" fill-rule="evenodd"/>
              <path id="Fill-10-2" data-name="Fill-10" d="M30.15-8.326a.716.716,0,0,1-.384-.375A.739.739,0,0,1,30-9.328,32.5,32.5,0,0,1,35.072-14.7a10.94,10.94,0,0,1,6.795-2.545,11.44,11.44,0,0,1,7.49,3.6,2.516,2.516,0,0,1,.67.913,2.224,2.224,0,0,1-.977,2.285,47.176,47.176,0,0,1-5.009,2.715c-.813.457.886-2.185-3.17-1.6a11.9,11.9,0,0,0-5.684,3.062A22.1,22.1,0,0,1,30.15-8.326Z" fill="#7b76dd" fill-rule="evenodd"/>
              <path id="Fill-12-2" data-name="Fill-12" d="M19.538-28.341c-.059-.953-.108-1.852-.149-2.7-.015-.289-.027-.571-.041-.85-.356-7.9.747-12.126-1.513-19.8C11.8-72.186,19.42-75.747,19.42-75.747c10.667-5.917,38-.7,38-.7s3.474,3.22,2.872,14.372c-.657,12.193-2.4,18.235-2.914,25.6s2.739,19.629-1.747,21.993c-1.546.815-3.033,1.724-4.544,2.6-1.43.83-2.467.509-3.609-.737-.573-.626-1.036-1.352-1.656-1.932-1.839-1.719-5.272-2.8-7.589-1.815s-3.631,3.841-5.268,5.753A6.238,6.238,0,0,1,30.46-8.53a5.3,5.3,0,0,1-4.025-.687c-1.09-.587-2.225-1.018-3.381-1.51-5.549-2.359-2.87-7.21-3.516-17.614" fill="#fed21c" fill-rule="evenodd"/>
              <path id="Fill-14-2" data-name="Fill-14" d="M21.733-11.314a22.45,22.45,0,0,0,8.25-14.862c1.185-9.855-4.5-23.161-12.428-26.49,0,0-2.777-1.907-1.376-5.9,0,0,16.276,3.112,19.133,24.076S26.556-9.406,26.556-9.406c-1.467.526-3.891-.73-4.823-1.908" fill="#2c2263" fill-rule="evenodd"/>
              <path id="Fill-16-3" data-name="Fill-16" d="M30.418-27.374a.806.806,0,0,0-.874.773c-.015.436-.044.863-.091,1.271a1.38,1.38,0,0,0,.923,1.458,13.505,13.505,0,0,0,4.448.8,1.383,1.383,0,0,0,1.357-1.371c.006-.5.008-1.124,0-1.814a.8.8,0,0,0-.777-.8c-1.666-.049-3.328-.174-4.989-.319" fill="#816ad8" fill-rule="evenodd"/>
              <path id="Fill-18-3" data-name="Fill-18" d="M51.06-11.911s1.043-14.424,2.188-21.97c1.156-7.628,5.709-18.324,6.223-18.16,0,0,1.457,12.234-.635,19.053s-2.217,15.684-3.6,18.4a4.862,4.862,0,0,1-4.173,2.675" fill="#2c2263" fill-rule="evenodd"/>
              <path id="Fill-20-4" data-name="Fill-20" d="M64.151-44.3a16.8,16.8,0,0,1-1.809,4.527,2.775,2.775,0,0,1-2.662,1l.2-1.408s-5.1.411-5.8-.333.367-1.874.367-1.874-.271.227-.337-.732,1.108-1.629,1.108-1.629-.3-.287-.24-1.146,1.193-1.68,1.193-1.68a.979.979,0,0,1,.467-1.556,5.813,5.813,0,0,1,4.71,0,4.071,4.071,0,0,1,2.8,4.828" fill="#b3b2e6" fill-rule="evenodd"/>
              <path id="Fill-22-4" data-name="Fill-22" d="M57.152-26.589a.736.736,0,0,1,.725.782c-.025.4-.037.788-.032,1.164a1.26,1.26,0,0,1-.97,1.243,12.336,12.336,0,0,1-4.119.33,1.267,1.267,0,0,1-1.111-1.371c.041-.455.094-1.022.161-1.65a.736.736,0,0,1,.779-.657c1.52.1,3.043.141,4.567.159" fill="#816ad8" fill-rule="evenodd"/>
              <path id="Fill-24-2" data-name="Fill-24" d="M59.234-73s.648-3.571-1.24-5.655c0,0-24.593-4.951-39.827,1a10.532,10.532,0,0,0-1.1,5.463s18.3-7.292,42.17-.807" fill="#ad5cee" fill-rule="evenodd"/>
              <path id="Fill-26-2" data-name="Fill-26" d="M52.9-54.92s1.76-9.654-.046-14.635c0,0-10.745-4.568-25.15.426,0,0,.416,9.251.634,15.2,0,0,15.458.391,24.562-1" fill="#ad5cee" fill-rule="evenodd"/>
              <path id="Fill-28" d="M35.576-65.659a.215.215,0,0,1,.241.175c3.6,19.615,2.116,49.975,2.1,50.28a.216.216,0,0,1-.226.2.214.214,0,0,1-.2-.225c.015-.3,1.5-30.616-2.094-50.182a.215.215,0,0,1,.173-.251h.01" fill="#eff2f9" fill-rule="evenodd"/>
              <path id="Fill-30" d="M48.946-66.126h.006a.216.216,0,0,1,.238.191c2.531,23.936-2.249,49.361-2.3,49.615a.217.217,0,0,1-.253.172.217.217,0,0,1-.172-.253c.049-.253,4.817-25.618,2.293-49.488a.215.215,0,0,1,.185-.236" fill="#eff2f9" fill-rule="evenodd"/>
              <g id="Group-34" transform="translate(0 -10.588)">
                <path id="Fill-32-2" data-name="Fill-32" d="M28.728-36.334a88.285,88.285,0,0,0-8.776-4.036A39.958,39.958,0,0,0,12.416-42.6a16.107,16.107,0,0,0-4.234-.218c-.165.015-.328.034-.489.056A9.981,9.981,0,0,0,5-42.016a8.575,8.575,0,0,0-2,1.234A8.26,8.26,0,0,0,.073-35.315a10.938,10.938,0,0,0,.163,3.5A15.557,15.557,0,0,0,.685-30.1a38.727,38.727,0,0,0,4.523,8.688c1.68,2.591,3.818,5.6,6.355,8.931,4.265,5.606,8.17,10.2,8.334,10.39A3.787,3.787,0,0,0,21.595-.9a49.1,49.1,0,0,0,5.5-11.374c-1.508-1.836-3.7-4.56-5.972-7.542a117.121,117.121,0,0,1-6.845-9.81c.774.275,1.651.612,2.644,1.027,3.308,1.382,6.068,2.862,6.1,2.876a6.025,6.025,0,0,0,8.159-2.449,6.024,6.024,0,0,0-2.445-8.158" fill="#fed21c" fill-rule="evenodd"/>
              </g>
              <path id="Fill-35-2" data-name="Fill-35" d="M5-52.6A8.544,8.544,0,0,0,3-51.37,8.266,8.266,0,0,0,.073-45.9a10.963,10.963,0,0,0,.162,3.5C2.44-43.888,6.946-47.65,5-52.6" fill="#ad5cee" fill-rule="evenodd"/>
              <path id="Fill-37-2" data-name="Fill-37" d="M21.65-38.579s4.3,4.541,5.845,4.79a2.654,2.654,0,0,0,2.147-.292l-.282-1.36s5.535.972,6.239.35-.173-1.751-.173-1.751.229.233.373-.641-.874-1.59-.874-1.59.3-.238.32-1.029-.948-1.646-.948-1.646.317-.569-.228-1.678-5.212-3.036-8.336-2.807-5.672,4.19-4.083,7.654" fill="#b3b2e6" fill-rule="evenodd"/>
            </g>
          </g>
        </g>
      </g>
    </g>
    <g id="Decoration-2" transform="translate(39 170)">
      <path id="Stroke-35" d="M19.813,9.267a1,1,0,0,1,1.294-.056l.092.081,4.507,4.493a1,1,0,0,1-1.318,1.5l-.094-.083-3.826-3.815-4.4,4.085a1,1,0,0,1-1.261.081l-.1-.082-4.16-3.866L5.9,15.747a1,1,0,0,1-1.3.023l-.09-.085-4.236-4.5A1,1,0,0,1,1.637,9.728l.092.086L5.3,13.606l4.6-4.1a1,1,0,0,1,1.248-.067l.1.081,4.145,3.852Z" fill="#ff67ff"/>
    </g>
    <g id="Decoration-4" transform="translate(43 278)">
      <g id="Group" transform="translate(19.5 10.5) rotate(90)">
        <path id="Fill-39-2" data-name="Fill-39" d="M3.628,1.812A1.81,1.81,0,1,1,1.819,0,1.811,1.811,0,0,1,3.628,1.812" fill="#ff97ff" fill-rule="evenodd"/>
        <path id="Fill-41-2" data-name="Fill-41" d="M3.624,7.28A1.81,1.81,0,1,1,1.815,5.468,1.811,1.811,0,0,1,3.624,7.28" fill="#ff97ff" fill-rule="evenodd"/>
        <path id="Fill-43-2" data-name="Fill-43" d="M3.62,12.406a1.81,1.81,0,1,1-1.809-1.812A1.81,1.81,0,0,1,3.62,12.406" fill="#ff97ff" fill-rule="evenodd"/>
      </g>
    </g>
  </g>
</svg>
