<svg xmlns="http://www.w3.org/2000/svg" xmlns:xlink="http://www.w3.org/1999/xlink" width="50" height="50" viewBox="0 0 50 50">
  <defs>
    <linearGradient id="linear-gradient" x1="0.5" x2="0.5" y2="1" gradientUnits="objectBoundingBox">
      <stop offset="0" stop-color="#203b72"/>
      <stop offset="0.374" stop-color="#4b347f"/>
      <stop offset="1" stop-color="#922692"/>
    </linearGradient>
  </defs>
  <g id="Groupe_1" data-name="Groupe 1" transform="translate(-92 -506)">
    <circle id="Ellipse_1" data-name="Ellipse 1" cx="25" cy="25" r="25" transform="translate(92 506)" fill="url(#linear-gradient)"/>
    <g id="noun_Brain_3124552_1_" data-name="noun_Brain_3124552 (1)" transform="translate(105.312 517.704)">
      <path id="Tracé_1" data-name="Tracé 1" d="M35.911,42.243a11.206,11.206,0,0,0,7.288,2.7,3.7,3.7,0,0,0,2.63-1.09,3.807,3.807,0,0,0,1.122-2.709v-.06h2.894a.482.482,0,0,0,.431-.267l.965-1.929h0a.48.48,0,0,0,.051-.216V34.158A6.752,6.752,0,0,0,48.4,21.305H46.952V19.8a3.807,3.807,0,0,0-1.122-2.709A3.7,3.7,0,0,0,43.2,16,11.2,11.2,0,0,0,32,27.2V33.74A11.186,11.186,0,0,0,35.911,42.243Zm9.237.924a2.734,2.734,0,0,1-1.572.781V41.28l1.306-1.306-.682-.682-1.447,1.447a.482.482,0,0,0-.141.341v2.876a10.239,10.239,0,0,1-7.418-3.841h2.113a.482.482,0,0,0,.482-.482V37.9l2.353-2.353.714.595a.483.483,0,0,0,.309.112h.965v1.206l-1.736,1.3a.482.482,0,0,0-.193.386v2.412h.965v-2.17l1.736-1.3a.482.482,0,0,0,.193-.386V36.257h2.894V41.14a2.848,2.848,0,0,1-.84,2.027Zm4.4-3.052h-2.6v-.965H50.03Zm.78-1.929H46.952V34.81H48.4a6.731,6.731,0,0,0,1.929-.281ZM48.4,22.27a5.788,5.788,0,0,1,0,11.576H46.952V22.27Zm-3.251-4.5a2.848,2.848,0,0,1,.84,2.027v2.754l-2.27,2.27a.482.482,0,0,0-.141.341v1.447h.965V25.364l1.447-1.447v4.141H43.093v.965h2.894v2.894h-3.23l-1.111-.74V29.987h-.965v1.447a.482.482,0,0,0,.215.4l1.447.965a.482.482,0,0,0,.268.081h3.376v2.412H41.339l-2.586-2.155v-1.7h-.965v1.929a.482.482,0,0,0,.174.371l1.436,1.2-2.433,2.433a.482.482,0,0,0-.141.341v1.447H34.512a10.214,10.214,0,0,1-1.1-2.412h2.445v-.965H33.169a10.252,10.252,0,0,1-.2-2.035v-.859h1.729L36,34.187l.682-.682-1.447-1.447a.482.482,0,0,0-.341-.141H32.965V29.5h1.447a.482.482,0,0,0,.386-.193l1.3-1.736h1.688V29.5h.965V25.164a.482.482,0,0,0-.193-.386l-1.736-1.3V19.194a10.23,10.23,0,0,1,1.929-1.212v3.806a.482.482,0,0,0,.181.377l2.231,1.784v1.7h.965v-1.73l1.306-1.306-.682-.682L41.61,23.071l-1.893-1.515v-3.98a10.24,10.24,0,0,1,2.412-.555v1.873a.482.482,0,0,0,.141.341l1.447,1.447L44.4,20l-1.306-1.306V16.966H43.2a2.737,2.737,0,0,1,1.948.807Zm-9.289,2.3v3.649a.482.482,0,0,0,.193.386l1.736,1.3v1.206H35.858a.482.482,0,0,0-.386.193l-1.3,1.736H32.965V27.2a10.221,10.221,0,0,1,2.894-7.131Z" transform="translate(-32 -16)" fill="#fff"/>
      <rect id="Rectangle_2" data-name="Rectangle 2" width="0.965" height="1.929" transform="translate(15.916 2.412)" fill="#fff"/>
      <rect id="Rectangle_3" data-name="Rectangle 3" width="1.929" height="0.965" transform="translate(21.515 6.26) rotate(-45)" fill="#fff"/>
      <rect id="Rectangle_4" data-name="Rectangle 4" width="1.929" height="0.965" transform="translate(24.116 11.576)" fill="#fff"/>
      <rect id="Rectangle_5" data-name="Rectangle 5" width="0.965" height="1.929" transform="translate(21.515 17.856) rotate(-45)" fill="#fff"/>
      <path id="Tracé_2" data-name="Tracé 2" d="M307.858,155.617A3.621,3.621,0,0,0,304.241,152H304v.965h.241a2.653,2.653,0,0,1,0,5.305H304v.965h.241A3.621,3.621,0,0,0,307.858,155.617Z" transform="translate(-287.601 -143.801)" fill="#fff"/>
    </g>
  </g>
</svg>
