<svg xmlns="http://www.w3.org/2000/svg" xmlns:xlink="http://www.w3.org/1999/xlink" width="30" height="30" viewBox="0 0 30 30">
  <defs>
    <linearGradient id="linear-gradient" x1="0.5" x2="0.5" y2="1" gradientUnits="objectBoundingBox">
      <stop offset="0" stop-color="#203b72"/>
      <stop offset="0.374" stop-color="#4b347f"/>
      <stop offset="1" stop-color="#922692"/>
    </linearGradient>
  </defs>
  <g id="Groupe_1900" data-name="Groupe 1900" transform="translate(-229 -81)">
    <g id="Groupe_1899" data-name="Groupe 1899" transform="translate(140 -175)">
      <g id="Groupe_2" data-name="Groupe 2" transform="translate(89 256)">
        <circle id="Ellipse_1" data-name="Ellipse 1" cx="15" cy="15" r="15" fill="url(#linear-gradient)"/>
      </g>
    </g>
    <g id="noun_shopping_2450200" transform="translate(234.101 87)">
      <path id="Tracé_12" data-name="Tracé 12" d="M16.49,17.772l2.4-9.6a.3.3,0,0,0-.054-.258A.3.3,0,0,0,18.6,7.8H16.316a6.294,6.294,0,0,0-12.228,0H1.8a.3.3,0,0,0-.234.114.3.3,0,0,0-.054.258l2.4,9.6A.3.3,0,0,0,4.2,18h12A.3.3,0,0,0,16.49,17.772ZM16.2,9.6a.3.3,0,1,1-.3.3A.3.3,0,0,1,16.2,9.6Zm-6-6a5.713,5.713,0,0,1,5.5,4.2H4.706A5.713,5.713,0,0,1,10.2,3.6Zm-6,6a.3.3,0,1,1-.3.3A.3.3,0,0,1,4.2,9.6Zm.234,7.8-2.25-9H3.974c-.03.216-.048.432-.06.654a.9.9,0,1,0,.6.006A6,6,0,0,1,4.58,8.4H15.824a6,6,0,0,1,.066.66.9.9,0,1,0,.6-.006,5.885,5.885,0,0,0-.06-.654h1.788l-2.25,9Z" transform="translate(-1.504 -3)" fill="#fff" stroke="#fff" stroke-width="0.5"/>
      <path id="Tracé_13" data-name="Tracé 13" d="M25.386,29.706a.29.29,0,0,0,.42,0l4.2-4.2a.3.3,0,0,0-.426-.426L25.6,29.07l-1.59-1.59a.3.3,0,0,0-.426.426Z" transform="translate(-10.299 -11.796)" fill="#fff" stroke="#fff" stroke-width="0.5"/>
    </g>
  </g>
</svg>
