<svg xmlns="http://www.w3.org/2000/svg" xmlns:xlink="http://www.w3.org/1999/xlink" width="30" height="30" viewBox="0 0 30 30">
  <defs>
    <linearGradient id="linear-gradient" x1="0.5" x2="0.5" y2="1" gradientUnits="objectBoundingBox">
      <stop offset="0" stop-color="#203b72"/>
      <stop offset="0.374" stop-color="#4b347f"/>
      <stop offset="1" stop-color="#922692"/>
    </linearGradient>
  </defs>
  <g id="Groupe_4" data-name="Groupe 4" transform="translate(-89 -256)">
    <g id="Groupe_2" data-name="Groupe 2" transform="translate(89 256)">
      <circle id="Ellipse_1" data-name="Ellipse 1" cx="15" cy="15" r="15" fill="url(#linear-gradient)"/>
    </g>
    <g id="noun_Nutrition_3503099" transform="translate(97.69 262.568)">
      <path id="Tracé_3" data-name="Tracé 3" d="M22.833,5.526,21.66,5.188a.564.564,0,0,1-.411-.542V4.352h.241a.5.5,0,0,0,.5-.5V2.5a.5.5,0,0,0-.5-.5H13.9a.5.5,0,0,0-.5.5V3.851a.5.5,0,0,0,.5.5h.241v.295a.564.564,0,0,1-.41.541l-1.173.338a1.215,1.215,0,0,0-.877,1.165V18.55a1.221,1.221,0,0,0,.519,1c.006,0,.037.019.044.022l.3.1a1.907,1.907,0,0,0,.586.094h9.125a1.91,1.91,0,0,0,.587-.095l.3-.1a.145.145,0,0,0,.037-.018,1.213,1.213,0,0,0,.526-1V6.691A1.215,1.215,0,0,0,22.833,5.526ZM13.9,4.061a.21.21,0,0,1-.209-.21V2.5a.21.21,0,0,1,.209-.209h7.593A.21.21,0,0,1,21.7,2.5V3.851a.21.21,0,0,1-.209.21h-.376l-.011,0H14.285l-.011,0ZM23.419,18.55a.921.921,0,0,1-.383.748l-.281.092a1.616,1.616,0,0,1-.5.08H13.131a1.615,1.615,0,0,1-.5-.08L12.35,19.3a.916.916,0,0,1-.381-.747V17.021H23.419Zm0-1.82H11.97V8.86H23.419Zm0-8.161H11.97V6.691a.923.923,0,0,1,.666-.885l1.174-.338a.853.853,0,0,0,.62-.821V4.352h6.528v.295a.854.854,0,0,0,.621.821l1.174.338a.923.923,0,0,1,.666.885Zm-9.876,6.723h8.3a.146.146,0,0,0,.146-.146v-4.7a.146.146,0,0,0-.146-.146h-8.3a.146.146,0,0,0-.146.146v4.7a.146.146,0,0,0,.146.146Zm.146-4.7H21.7V15H13.688Zm5.472,2.033a2.042,2.042,0,0,0-.8.086,1.059,1.059,0,0,0,.055-.318,1.689,1.689,0,0,0-.632-1.138.146.146,0,0,0-.181,0,1.689,1.689,0,0,0-.632,1.138,1.057,1.057,0,0,0,.055.318,2.042,2.042,0,0,0-.8-.086.145.145,0,0,0-.128.128A1.688,1.688,0,0,0,16.459,14a1.542,1.542,0,0,0,1.07.366c.08,0,.138,0,.165-.007s.086.007.166.007A1.542,1.542,0,0,0,18.929,14a1.688,1.688,0,0,0,.358-1.252.145.145,0,0,0-.128-.128Zm-1.618,1.455a1.27,1.27,0,0,1-.877-.281,1.288,1.288,0,0,1-.28-.891,1.276,1.276,0,0,1,.891.281,1.126,1.126,0,0,1,.273.694c-.006.075-.008.142-.007.2Zm.153-.858c-.032-.031-.071-.072-.112-.119a1.054,1.054,0,0,0-.068-.083,1.066,1.066,0,0,1-.252-.627,1.288,1.288,0,0,1,.432-.828,1.288,1.288,0,0,1,.432.828,1.075,1.075,0,0,1-.26.635c-.02.023-.039.046-.056.069C17.768,13.145,17.727,13.187,17.694,13.22Zm1.03.577a1.281,1.281,0,0,1-.877.28c0-.055,0-.122-.007-.2a1.126,1.126,0,0,1,.273-.694,1.283,1.283,0,0,1,.891-.28A1.282,1.282,0,0,1,18.724,13.8Z" transform="translate(-11.678 -2)" fill="#fff" stroke="#fff" stroke-width="0.5"/>
    </g>
  </g>
</svg>
